<?xml version="1.0" encoding="utf-8" standalone="no"?>
<!DOCTYPE svg PUBLIC "-//W3C//DTD SVG 1.1//EN"
  "http://www.w3.org/Graphics/SVG/1.1/DTD/svg11.dtd">
<!-- Created with matplotlib (https://matplotlib.org/) -->
<svg height="864pt" version="1.1" viewBox="0 0 1152 864" width="1152pt" xmlns="http://www.w3.org/2000/svg" xmlns:xlink="http://www.w3.org/1999/xlink">
 <defs>
  <style type="text/css">
*{stroke-linecap:butt;stroke-linejoin:round;}
  </style>
 </defs>
 <g id="figure_1">
  <g id="patch_1">
   <path d="M 0 864 
L 1152 864 
L 1152 0 
L 0 0 
z
" style="fill:#ffffff;"/>
  </g>
  <g id="axes_1">
   <g id="patch_2">
    <path d="M 144 768.96 
L 1036.8 768.96 
L 1036.8 103.68 
L 144 103.68 
z
" style="fill:#ffffff;"/>
   </g>
   <g id="matplotlib.axis_1">
    <g id="xtick_1">
     <g id="line2d_1">
      <defs>
       <path d="M 0 0 
L 0 3.5 
" id="ma2e194e5ad" style="stroke:#000000;stroke-width:0.8;"/>
      </defs>
      <g>
       <use style="stroke:#000000;stroke-width:0.8;" x="184.579879" xlink:href="#ma2e194e5ad" y="768.96"/>
      </g>
     </g>
     <g id="text_1">
      <!-- 0 -->
      <defs>
       <path d="M 31.78125 66.40625 
Q 24.171875 66.40625 20.328125 58.90625 
Q 16.5 51.421875 16.5 36.375 
Q 16.5 21.390625 20.328125 13.890625 
Q 24.171875 6.390625 31.78125 6.390625 
Q 39.453125 6.390625 43.28125 13.890625 
Q 47.125 21.390625 47.125 36.375 
Q 47.125 51.421875 43.28125 58.90625 
Q 39.453125 66.40625 31.78125 66.40625 
z
M 31.78125 74.21875 
Q 44.046875 74.21875 50.515625 64.515625 
Q 56.984375 54.828125 56.984375 36.375 
Q 56.984375 17.96875 50.515625 8.265625 
Q 44.046875 -1.421875 31.78125 -1.421875 
Q 19.53125 -1.421875 13.0625 8.265625 
Q 6.59375 17.96875 6.59375 36.375 
Q 6.59375 54.828125 13.0625 64.515625 
Q 19.53125 74.21875 31.78125 74.21875 
z
" id="DejaVuSans-48"/>
      </defs>
      <g transform="translate(181.398629 783.558437)scale(0.1 -0.1)">
       <use xlink:href="#DejaVuSans-48"/>
      </g>
     </g>
    </g>
    <g id="xtick_2">
     <g id="line2d_2">
      <g>
       <use style="stroke:#000000;stroke-width:0.8;" x="347.063516" xlink:href="#ma2e194e5ad" y="768.96"/>
      </g>
     </g>
     <g id="text_2">
      <!-- 20 -->
      <defs>
       <path d="M 19.1875 8.296875 
L 53.609375 8.296875 
L 53.609375 0 
L 7.328125 0 
L 7.328125 8.296875 
Q 12.9375 14.109375 22.625 23.890625 
Q 32.328125 33.6875 34.8125 36.53125 
Q 39.546875 41.84375 41.421875 45.53125 
Q 43.3125 49.21875 43.3125 52.78125 
Q 43.3125 58.59375 39.234375 62.25 
Q 35.15625 65.921875 28.609375 65.921875 
Q 23.96875 65.921875 18.8125 64.3125 
Q 13.671875 62.703125 7.8125 59.421875 
L 7.8125 69.390625 
Q 13.765625 71.78125 18.9375 73 
Q 24.125 74.21875 28.421875 74.21875 
Q 39.75 74.21875 46.484375 68.546875 
Q 53.21875 62.890625 53.21875 53.421875 
Q 53.21875 48.921875 51.53125 44.890625 
Q 49.859375 40.875 45.40625 35.40625 
Q 44.1875 33.984375 37.640625 27.21875 
Q 31.109375 20.453125 19.1875 8.296875 
z
" id="DejaVuSans-50"/>
      </defs>
      <g transform="translate(340.701016 783.558437)scale(0.1 -0.1)">
       <use xlink:href="#DejaVuSans-50"/>
       <use x="63.623047" xlink:href="#DejaVuSans-48"/>
      </g>
     </g>
    </g>
    <g id="xtick_3">
     <g id="line2d_3">
      <g>
       <use style="stroke:#000000;stroke-width:0.8;" x="509.547153" xlink:href="#ma2e194e5ad" y="768.96"/>
      </g>
     </g>
     <g id="text_3">
      <!-- 40 -->
      <defs>
       <path d="M 37.796875 64.3125 
L 12.890625 25.390625 
L 37.796875 25.390625 
z
M 35.203125 72.90625 
L 47.609375 72.90625 
L 47.609375 25.390625 
L 58.015625 25.390625 
L 58.015625 17.1875 
L 47.609375 17.1875 
L 47.609375 0 
L 37.796875 0 
L 37.796875 17.1875 
L 4.890625 17.1875 
L 4.890625 26.703125 
z
" id="DejaVuSans-52"/>
      </defs>
      <g transform="translate(503.184653 783.558437)scale(0.1 -0.1)">
       <use xlink:href="#DejaVuSans-52"/>
       <use x="63.623047" xlink:href="#DejaVuSans-48"/>
      </g>
     </g>
    </g>
    <g id="xtick_4">
     <g id="line2d_4">
      <g>
       <use style="stroke:#000000;stroke-width:0.8;" x="672.03079" xlink:href="#ma2e194e5ad" y="768.96"/>
      </g>
     </g>
     <g id="text_4">
      <!-- 60 -->
      <defs>
       <path d="M 33.015625 40.375 
Q 26.375 40.375 22.484375 35.828125 
Q 18.609375 31.296875 18.609375 23.390625 
Q 18.609375 15.53125 22.484375 10.953125 
Q 26.375 6.390625 33.015625 6.390625 
Q 39.65625 6.390625 43.53125 10.953125 
Q 47.40625 15.53125 47.40625 23.390625 
Q 47.40625 31.296875 43.53125 35.828125 
Q 39.65625 40.375 33.015625 40.375 
z
M 52.59375 71.296875 
L 52.59375 62.3125 
Q 48.875 64.0625 45.09375 64.984375 
Q 41.3125 65.921875 37.59375 65.921875 
Q 27.828125 65.921875 22.671875 59.328125 
Q 17.53125 52.734375 16.796875 39.40625 
Q 19.671875 43.65625 24.015625 45.921875 
Q 28.375 48.1875 33.59375 48.1875 
Q 44.578125 48.1875 50.953125 41.515625 
Q 57.328125 34.859375 57.328125 23.390625 
Q 57.328125 12.15625 50.6875 5.359375 
Q 44.046875 -1.421875 33.015625 -1.421875 
Q 20.359375 -1.421875 13.671875 8.265625 
Q 6.984375 17.96875 6.984375 36.375 
Q 6.984375 53.65625 15.1875 63.9375 
Q 23.390625 74.21875 37.203125 74.21875 
Q 40.921875 74.21875 44.703125 73.484375 
Q 48.484375 72.75 52.59375 71.296875 
z
" id="DejaVuSans-54"/>
      </defs>
      <g transform="translate(665.66829 783.558437)scale(0.1 -0.1)">
       <use xlink:href="#DejaVuSans-54"/>
       <use x="63.623047" xlink:href="#DejaVuSans-48"/>
      </g>
     </g>
    </g>
    <g id="xtick_5">
     <g id="line2d_5">
      <g>
       <use style="stroke:#000000;stroke-width:0.8;" x="834.514427" xlink:href="#ma2e194e5ad" y="768.96"/>
      </g>
     </g>
     <g id="text_5">
      <!-- 80 -->
      <defs>
       <path d="M 31.78125 34.625 
Q 24.75 34.625 20.71875 30.859375 
Q 16.703125 27.09375 16.703125 20.515625 
Q 16.703125 13.921875 20.71875 10.15625 
Q 24.75 6.390625 31.78125 6.390625 
Q 38.8125 6.390625 42.859375 10.171875 
Q 46.921875 13.96875 46.921875 20.515625 
Q 46.921875 27.09375 42.890625 30.859375 
Q 38.875 34.625 31.78125 34.625 
z
M 21.921875 38.8125 
Q 15.578125 40.375 12.03125 44.71875 
Q 8.5 49.078125 8.5 55.328125 
Q 8.5 64.0625 14.71875 69.140625 
Q 20.953125 74.21875 31.78125 74.21875 
Q 42.671875 74.21875 48.875 69.140625 
Q 55.078125 64.0625 55.078125 55.328125 
Q 55.078125 49.078125 51.53125 44.71875 
Q 48 40.375 41.703125 38.8125 
Q 48.828125 37.15625 52.796875 32.3125 
Q 56.78125 27.484375 56.78125 20.515625 
Q 56.78125 9.90625 50.3125 4.234375 
Q 43.84375 -1.421875 31.78125 -1.421875 
Q 19.734375 -1.421875 13.25 4.234375 
Q 6.78125 9.90625 6.78125 20.515625 
Q 6.78125 27.484375 10.78125 32.3125 
Q 14.796875 37.15625 21.921875 38.8125 
z
M 18.3125 54.390625 
Q 18.3125 48.734375 21.84375 45.5625 
Q 25.390625 42.390625 31.78125 42.390625 
Q 38.140625 42.390625 41.71875 45.5625 
Q 45.3125 48.734375 45.3125 54.390625 
Q 45.3125 60.0625 41.71875 63.234375 
Q 38.140625 66.40625 31.78125 66.40625 
Q 25.390625 66.40625 21.84375 63.234375 
Q 18.3125 60.0625 18.3125 54.390625 
z
" id="DejaVuSans-56"/>
      </defs>
      <g transform="translate(828.151927 783.558437)scale(0.1 -0.1)">
       <use xlink:href="#DejaVuSans-56"/>
       <use x="63.623047" xlink:href="#DejaVuSans-48"/>
      </g>
     </g>
    </g>
    <g id="xtick_6">
     <g id="line2d_6">
      <g>
       <use style="stroke:#000000;stroke-width:0.8;" x="996.998064" xlink:href="#ma2e194e5ad" y="768.96"/>
      </g>
     </g>
     <g id="text_6">
      <!-- 100 -->
      <defs>
       <path d="M 12.40625 8.296875 
L 28.515625 8.296875 
L 28.515625 63.921875 
L 10.984375 60.40625 
L 10.984375 69.390625 
L 28.421875 72.90625 
L 38.28125 72.90625 
L 38.28125 8.296875 
L 54.390625 8.296875 
L 54.390625 0 
L 12.40625 0 
z
" id="DejaVuSans-49"/>
      </defs>
      <g transform="translate(987.454314 783.558437)scale(0.1 -0.1)">
       <use xlink:href="#DejaVuSans-49"/>
       <use x="63.623047" xlink:href="#DejaVuSans-48"/>
       <use x="127.246094" xlink:href="#DejaVuSans-48"/>
      </g>
     </g>
    </g>
   </g>
   <g id="matplotlib.axis_2">
    <g id="ytick_1">
     <g id="line2d_7">
      <defs>
       <path d="M 0 0 
L -3.5 0 
" id="m6546bff0a6" style="stroke:#000000;stroke-width:0.8;"/>
      </defs>
      <g>
       <use style="stroke:#000000;stroke-width:0.8;" x="144" xlink:href="#m6546bff0a6" y="739.122859"/>
      </g>
     </g>
     <g id="text_7">
      <!-- 0.0 -->
      <defs>
       <path d="M 10.6875 12.40625 
L 21 12.40625 
L 21 0 
L 10.6875 0 
z
" id="DejaVuSans-46"/>
      </defs>
      <g transform="translate(121.096875 742.922077)scale(0.1 -0.1)">
       <use xlink:href="#DejaVuSans-48"/>
       <use x="63.623047" xlink:href="#DejaVuSans-46"/>
       <use x="95.410156" xlink:href="#DejaVuSans-48"/>
      </g>
     </g>
    </g>
    <g id="ytick_2">
     <g id="line2d_8">
      <g>
       <use style="stroke:#000000;stroke-width:0.8;" x="144" xlink:href="#m6546bff0a6" y="613.770154"/>
      </g>
     </g>
     <g id="text_8">
      <!-- 0.1 -->
      <g transform="translate(121.096875 617.569373)scale(0.1 -0.1)">
       <use xlink:href="#DejaVuSans-48"/>
       <use x="63.623047" xlink:href="#DejaVuSans-46"/>
       <use x="95.410156" xlink:href="#DejaVuSans-49"/>
      </g>
     </g>
    </g>
    <g id="ytick_3">
     <g id="line2d_9">
      <g>
       <use style="stroke:#000000;stroke-width:0.8;" x="144" xlink:href="#m6546bff0a6" y="488.417449"/>
      </g>
     </g>
     <g id="text_9">
      <!-- 0.2 -->
      <g transform="translate(121.096875 492.216668)scale(0.1 -0.1)">
       <use xlink:href="#DejaVuSans-48"/>
       <use x="63.623047" xlink:href="#DejaVuSans-46"/>
       <use x="95.410156" xlink:href="#DejaVuSans-50"/>
      </g>
     </g>
    </g>
    <g id="ytick_4">
     <g id="line2d_10">
      <g>
       <use style="stroke:#000000;stroke-width:0.8;" x="144" xlink:href="#m6546bff0a6" y="363.064744"/>
      </g>
     </g>
     <g id="text_10">
      <!-- 0.3 -->
      <defs>
       <path d="M 40.578125 39.3125 
Q 47.65625 37.796875 51.625 33 
Q 55.609375 28.21875 55.609375 21.1875 
Q 55.609375 10.40625 48.1875 4.484375 
Q 40.765625 -1.421875 27.09375 -1.421875 
Q 22.515625 -1.421875 17.65625 -0.515625 
Q 12.796875 0.390625 7.625 2.203125 
L 7.625 11.71875 
Q 11.71875 9.328125 16.59375 8.109375 
Q 21.484375 6.890625 26.8125 6.890625 
Q 36.078125 6.890625 40.9375 10.546875 
Q 45.796875 14.203125 45.796875 21.1875 
Q 45.796875 27.640625 41.28125 31.265625 
Q 36.765625 34.90625 28.71875 34.90625 
L 20.21875 34.90625 
L 20.21875 43.015625 
L 29.109375 43.015625 
Q 36.375 43.015625 40.234375 45.921875 
Q 44.09375 48.828125 44.09375 54.296875 
Q 44.09375 59.90625 40.109375 62.90625 
Q 36.140625 65.921875 28.71875 65.921875 
Q 24.65625 65.921875 20.015625 65.03125 
Q 15.375 64.15625 9.8125 62.3125 
L 9.8125 71.09375 
Q 15.4375 72.65625 20.34375 73.4375 
Q 25.25 74.21875 29.59375 74.21875 
Q 40.828125 74.21875 47.359375 69.109375 
Q 53.90625 64.015625 53.90625 55.328125 
Q 53.90625 49.265625 50.4375 45.09375 
Q 46.96875 40.921875 40.578125 39.3125 
z
" id="DejaVuSans-51"/>
      </defs>
      <g transform="translate(121.096875 366.863963)scale(0.1 -0.1)">
       <use xlink:href="#DejaVuSans-48"/>
       <use x="63.623047" xlink:href="#DejaVuSans-46"/>
       <use x="95.410156" xlink:href="#DejaVuSans-51"/>
      </g>
     </g>
    </g>
    <g id="ytick_5">
     <g id="line2d_11">
      <g>
       <use style="stroke:#000000;stroke-width:0.8;" x="144" xlink:href="#m6546bff0a6" y="237.71204"/>
      </g>
     </g>
     <g id="text_11">
      <!-- 0.4 -->
      <g transform="translate(121.096875 241.511258)scale(0.1 -0.1)">
       <use xlink:href="#DejaVuSans-48"/>
       <use x="63.623047" xlink:href="#DejaVuSans-46"/>
       <use x="95.410156" xlink:href="#DejaVuSans-52"/>
      </g>
     </g>
    </g>
    <g id="ytick_6">
     <g id="line2d_12">
      <g>
       <use style="stroke:#000000;stroke-width:0.8;" x="144" xlink:href="#m6546bff0a6" y="112.359335"/>
      </g>
     </g>
     <g id="text_12">
      <!-- 0.5 -->
      <defs>
       <path d="M 10.796875 72.90625 
L 49.515625 72.90625 
L 49.515625 64.59375 
L 19.828125 64.59375 
L 19.828125 46.734375 
Q 21.96875 47.46875 24.109375 47.828125 
Q 26.265625 48.1875 28.421875 48.1875 
Q 40.625 48.1875 47.75 41.5 
Q 54.890625 34.8125 54.890625 23.390625 
Q 54.890625 11.625 47.5625 5.09375 
Q 40.234375 -1.421875 26.90625 -1.421875 
Q 22.3125 -1.421875 17.546875 -0.640625 
Q 12.796875 0.140625 7.71875 1.703125 
L 7.71875 11.625 
Q 12.109375 9.234375 16.796875 8.0625 
Q 21.484375 6.890625 26.703125 6.890625 
Q 35.15625 6.890625 40.078125 11.328125 
Q 45.015625 15.765625 45.015625 23.390625 
Q 45.015625 31 40.078125 35.4375 
Q 35.15625 39.890625 26.703125 39.890625 
Q 22.75 39.890625 18.8125 39.015625 
Q 14.890625 38.140625 10.796875 36.28125 
z
" id="DejaVuSans-53"/>
      </defs>
      <g transform="translate(121.096875 116.158554)scale(0.1 -0.1)">
       <use xlink:href="#DejaVuSans-48"/>
       <use x="63.623047" xlink:href="#DejaVuSans-46"/>
       <use x="95.410156" xlink:href="#DejaVuSans-53"/>
      </g>
     </g>
    </g>
   </g>
   <g id="line2d_13">
    <path clip-path="url(#p07f878620f)" d="M 184.581818 738.679712 
L 184.583459 738.684751 
L 184.688907 738.677881 
L 184.910882 738.677881 
L 185.154078 738.684287 
L 395.942565 738.676051 
L 396.113719 717.612334 
L 396.184075 722.638978 
L 396.204986 722.187708 
L 396.224534 722.638978 
L 396.24608 690.598827 
L 396.440843 689.219947 
L 396.558196 691.050096 
L 396.588751 690.135022 
L 396.667918 690.598827 
L 396.708132 690.135022 
L 396.777786 691.513901 
L 396.848445 689.683752 
L 396.898587 690.598827 
L 396.948076 689.219947 
L 397.016629 689.683752 
L 397.146354 690.598827 
L 397.210024 689.683752 
L 397.258345 690.135022 
L 397.319017 691.050096 
L 397.298957 689.683752 
L 397.357994 690.598827 
L 397.439578 689.683752 
L 397.45956 690.135022 
L 397.508646 691.050096 
L 397.54903 689.219947 
L 397.578421 690.598827 
L 397.61804 689.683752 
L 397.628476 691.050096 
L 397.679792 690.598827 
L 397.692249 690.598827 
L 397.719897 690.135022 
L 397.911994 690.598827 
L 397.940845 689.683752 
L 397.960674 691.050096 
L 398.03116 690.135022 
L 398.131444 691.965171 
L 398.071369 689.683752 
L 398.142227 690.598827 
L 398.232822 689.683752 
L 398.221853 691.965171 
L 398.242828 690.135022 
L 398.363456 692.880246 
L 398.374053 692.428976 
L 398.38293 692.880246 
L 398.472987 651.689347 
L 398.484241 661.755169 
L 398.565051 686.938528 
L 398.604162 686.474723 
L 398.624465 686.474723 
L 398.683422 684.644573 
L 398.694251 686.938528 
L 398.733606 686.474723 
L 398.743847 686.474723 
L 398.853103 685.559648 
L 398.964606 686.938528 
L 398.894308 684.644573 
L 398.974548 686.474723 
L 399.07453 685.559648 
L 399.174502 686.474723 
L 399.155541 685.108378 
L 399.184563 686.023453 
L 399.194484 685.108378 
L 399.39872 686.474723 
L 399.498477 685.559648 
L 399.598862 686.938528 
L 399.537133 684.644573 
L 399.607931 686.474723 
L 399.616473 686.474723 
L 399.705821 685.108378 
L 399.638074 686.938528 
L 399.72587 686.474723 
L 399.735665 686.474723 
L 399.837921 685.559648 
L 399.918179 685.108378 
L 399.949038 686.474723 
L 399.987295 686.938528 
L 400.056662 685.559648 
L 400.066571 687.389797 
L 400.167545 686.938528 
L 400.267755 685.559648 
L 400.388443 686.938528 
L 400.4469 685.559648 
L 400.495113 686.474723 
L 400.505913 686.474723 
L 400.566036 686.938528 
L 400.534859 685.559648 
L 400.605213 686.474723 
L 400.87106 675.945095 
L 400.923676 676.86017 
L 400.999816 675.493826 
L 401.030577 679.154125 
L 401.130297 675.030021 
L 401.110426 679.605394 
L 401.140313 679.154125 
L 401.160353 679.154125 
L 401.259902 675.493826 
L 401.268952 678.69032 
L 401.27908 678.69032 
L 401.289487 679.154125 
L 401.299515 675.493826 
L 401.329805 678.69032 
L 401.38938 674.578751 
L 401.359212 679.154125 
L 401.440742 678.69032 
L 401.500542 679.154125 
L 401.470467 675.945095 
L 401.511035 678.23905 
L 401.560685 675.493826 
L 401.530464 679.154125 
L 401.619471 678.69032 
L 401.709873 679.605394 
L 401.689256 675.493826 
L 401.720716 679.154125 
L 401.820395 675.493826 
L 401.790175 679.605394 
L 401.830278 678.69032 
L 401.891726 679.605394 
L 401.861029 675.493826 
L 401.940905 678.69032 
L 401.989844 675.945095 
L 401.970023 679.605394 
L 402.039862 676.4089 
L 402.111138 679.605394 
L 402.08073 675.493826 
L 402.130091 678.69032 
L 402.32838 678.69032 
L 402.358482 675.493826 
L 402.386467 679.154125 
L 402.44615 674.578751 
L 402.496184 678.23905 
L 402.53681 676.4089 
L 402.566639 679.154125 
L 402.575578 675.030021 
L 402.675488 678.69032 
L 402.686941 678.69032 
L 402.705761 675.493826 
L 402.737046 679.154125 
L 402.786971 675.030021 
L 402.84595 678.69032 
L 402.857529 679.154125 
L 402.867167 678.69032 
L 402.877048 675.030021 
L 402.93585 686.023453 
L 402.956563 685.559648 
L 402.997145 685.108378 
L 403.067001 686.474723 
L 403.170564 684.644573 
L 403.178974 686.023453 
L 403.299273 684.644573 
L 403.399563 686.023453 
L 403.409422 685.559648 
L 403.44941 686.023453 
L 403.509136 685.108378 
L 403.610085 686.474723 
L 403.807021 686.023453 
L 403.90461 686.474723 
L 403.836149 685.559648 
L 403.913499 686.023453 
L 403.964763 685.108378 
L 403.994464 686.938528 
L 404.014097 686.474723 
L 404.09322 685.108378 
L 404.113838 685.559648 
L 404.143181 674.114946 
L 404.234503 675.493826 
L 404.284364 676.4089 
L 404.274439 674.578751 
L 404.343583 675.945095 
L 404.354062 673.663676 
L 404.364174 676.4089 
L 404.445511 674.114946 
L 404.545067 676.86017 
L 404.484254 673.663676 
L 404.565221 675.030021 
L 404.575525 675.030021 
L 404.653724 673.663676 
L 404.685461 676.4089 
L 404.778511 674.114946 
L 404.796027 676.4089 
L 404.806587 676.4089 
L 404.906125 674.114946 
L 404.915682 675.945095 
L 404.926039 675.945095 
L 404.996451 673.663676 
L 404.975793 676.4089 
L 405.045334 675.030021 
L 405.076083 675.493826 
L 405.086279 675.030021 
L 405.276556 675.945095 
L 405.285805 675.493826 
L 405.298516 675.493826 
L 405.306691 673.663676 
L 405.354236 680.520469 
L 405.385601 680.069199 
L 405.395199 679.154125 
L 405.444047 680.984274 
L 405.494867 680.069199 
L 405.50461 680.069199 
L 405.52501 679.154125 
L 405.624751 680.520469 
L 405.634628 680.520469 
L 405.695644 679.154125 
L 405.664895 680.984274 
L 405.744939 680.069199 
L 405.776058 679.605394 
L 405.855175 680.520469 
L 405.866239 679.154125 
L 405.965262 680.069199 
L 406.063999 680.520469 
L 405.995897 679.154125 
L 406.074171 680.069199 
L 406.08443 680.069199 
L 406.145324 680.520469 
L 406.124834 679.605394 
L 406.155202 680.069199 
L 406.184849 680.520469 
L 406.253274 679.154125 
L 406.357732 680.520469 
L 406.366516 680.069199 
L 406.38526 679.154125 
L 406.465799 680.520469 
L 406.557424 678.69032 
L 406.752538 680.069199 
L 406.771677 680.520469 
L 406.84918 679.154125 
L 406.879587 680.984274 
L 406.961592 680.520469 
L 407.059799 679.154125 
L 407.049961 680.984274 
L 407.069627 680.520469 
L 407.089675 680.520469 
L 407.189389 679.605394 
L 407.200554 680.520469 
L 407.220162 680.520469 
L 407.321404 679.154125 
L 407.330566 680.520469 
L 407.341006 680.520469 
L 407.411035 679.154125 
L 407.372176 680.984274 
L 407.459486 680.069199 
L 407.518691 680.520469 
L 407.52875 678.69032 
L 407.59965 679.605394 
L 407.629588 675.945095 
L 407.690794 680.069199 
L 407.670008 675.493826 
L 407.741112 679.154125 
L 407.751116 675.030021 
L 407.761074 679.605394 
L 407.849593 678.69032 
L 407.8608 679.605394 
L 407.880654 675.493826 
L 407.919228 677.775245 
L 407.971323 675.493826 
L 407.939105 679.154125 
L 408.020142 676.86017 
L 408.030503 679.154125 
L 408.244455 679.154125 
L 408.295839 675.493826 
L 408.315406 679.605394 
L 408.355251 679.154125 
L 408.364688 679.605394 
L 408.374119 678.69032 
L 408.384224 675.030021 
L 408.404444 679.605394 
L 408.474325 676.4089 
L 408.524312 679.605394 
L 408.514397 675.493826 
L 408.585078 679.154125 
L 408.615458 679.605394 
L 408.684303 675.945095 
L 408.804408 679.605394 
L 408.855576 675.493826 
L 408.915513 679.154125 
L 408.935725 679.154125 
L 408.986038 675.493826 
L 409.046566 678.69032 
L 409.056433 678.69032 
L 409.114878 675.030021 
L 409.088668 679.154125 
L 409.165805 678.69032 
L 409.226738 679.605394 
L 409.206063 675.945095 
L 409.236031 679.154125 
L 409.333783 675.030021 
L 409.305178 679.605394 
L 409.344138 679.154125 
L 409.365327 679.154125 
L 409.375012 675.493826 
L 409.437035 679.605394 
L 409.47392 676.4089 
L 409.486774 679.154125 
L 409.504476 675.493826 
L 409.701793 679.154125 
L 409.749805 679.605394 
L 409.839986 665.415468 
L 409.850091 665.415468 
L 409.859934 670.454647 
L 409.880855 658.09487 
L 409.940455 659.009945 
L 409.980477 658.09487 
L 409.989947 658.54614 
L 409.999368 667.245618 
L 410.008911 657.179795 
L 410.100111 658.54614 
L 410.110048 659.009945 
L 410.139121 694.259125 
L 410.16897 657.631065 
L 410.208635 658.09487 
L 410.221508 659.009945 
L 410.240108 658.09487 
L 410.290305 674.114946 
L 410.309256 653.970766 
L 410.350606 669.539572 
L 410.430399 357.77486 
L 410.471135 615.061287 
L 410.480734 615.512556 
L 410.519962 622.84569 
L 410.552816 597.662331 
L 410.590202 615.976361 
L 410.64161 610.937183 
L 410.700496 612.767332 
L 410.770629 611.400988 
L 410.821705 611.852257 
L 410.920325 612.767332 
L 410.851989 611.400988 
L 410.930226 612.316062 
L 410.940961 610.937183 
L 410.970695 612.767332 
L 411.183993 611.852257 
L 411.283266 610.937183 
L 411.263834 612.316062 
L 411.293489 611.852257 
L 411.314484 611.852257 
L 411.334616 611.400988 
L 411.345033 612.767332 
L 411.355985 615.512556 
L 411.364161 601.786435 
L 411.374508 198.012838 
L 411.384559 625.127109 
L 411.465256 611.852257 
L 411.474864 619.63666 
L 411.485561 595.380912 
L 411.564957 208.542465 
L 411.544487 620.551735 
L 411.595952 568.818674 
L 411.6061 568.818674 
L 411.636466 599.492481 
L 411.645412 208.07866 
L 411.69532 619.63666 
L 411.744501 617.355241 
L 411.794723 610.485913 
L 411.8251 619.63666 
L 411.844594 618.721586 
L 411.854718 619.63666 
L 411.865805 603.15278 
L 411.964679 610.485913 
L 412.075461 612.316062 
L 412.195467 694.259125 
L 412.30543 692.880246 
L 412.325323 693.344051 
L 412.407504 694.259125 
L 412.356773 692.880246 
L 412.426904 693.79532 
L 412.436601 692.880246 
L 412.446572 693.344051 
L 412.64341 693.344051 
L 412.730892 692.880246 
L 412.65838 694.722931 
L 412.739326 693.344051 
L 412.829398 694.259125 
L 412.769318 692.880246 
L 412.850453 693.344051 
L 412.85932 693.344051 
L 412.899376 692.880246 
L 412.978947 694.259125 
L 413.038078 692.880246 
L 413.088249 693.344051 
L 413.117439 692.880246 
L 413.19754 694.722931 
L 413.289929 692.880246 
L 413.308659 693.79532 
L 413.379317 692.880246 
L 413.409226 694.259125 
L 413.510188 692.880246 
L 413.44976 694.722931 
L 413.519919 693.344051 
L 413.62128 694.722931 
L 413.549684 692.880246 
L 413.629789 693.344051 
L 413.64033 693.344051 
L 413.680225 692.428976 
L 413.750876 694.722931 
L 413.769461 691.965171 
L 413.859309 693.344051 
L 413.889726 692.880246 
L 413.910361 694.259125 
L 414.106315 693.344051 
L 414.113284 693.79532 
L 414.123701 694.722931 
L 414.143504 693.344051 
L 414.17437 693.79532 
L 414.293799 598.577406 
L 414.203153 694.259125 
L 414.383962 602.237705 
L 414.393976 621.01554 
L 414.423315 185.189256 
L 414.501882 610.937183 
L 414.563485 611.852257 
L 414.575432 610.485913 
L 414.602637 611.400988 
L 414.664052 610.937183 
L 414.643249 612.767332 
L 414.673694 611.400988 
L 414.685345 615.512556 
L 414.783996 612.316062 
L 414.794033 610.485913 
L 414.853546 613.231137 
L 414.863521 612.316062 
L 414.872976 488.254491 
L 414.894286 694.259125 
L 414.963387 693.344051 
L 415.042649 692.880246 
L 414.982968 694.259125 
L 415.052785 693.344051 
L 415.093426 692.880246 
L 415.162403 694.259125 
L 415.182042 692.428976 
L 415.213463 694.722931 
L 415.272364 693.79532 
L 415.292658 693.79532 
L 415.343381 692.880246 
L 415.32203 694.259125 
L 415.38545 693.344051 
L 415.579761 693.79532 
L 415.617942 694.722931 
L 415.597728 692.880246 
L 415.676766 693.79532 
L 415.768237 692.880246 
L 415.707753 694.259125 
L 415.777001 694.259125 
L 415.797043 694.259125 
L 415.806869 686.023453 
L 415.906603 693.79532 
L 415.946882 692.880246 
L 416.007776 694.259125 
L 416.076306 692.428976 
L 416.126936 693.344051 
L 416.166512 692.880246 
L 416.238088 694.722931 
L 416.289055 692.428976 
L 416.347927 694.259125 
L 416.367424 692.880246 
L 416.447676 694.722931 
L 416.467848 693.344051 
L 416.477316 694.722931 
L 416.50746 692.880246 
L 416.578314 694.259125 
L 416.588138 692.428976 
L 416.688479 694.259125 
L 416.698171 694.259125 
L 416.758875 692.880246 
L 416.778985 693.79532 
L 416.790116 608.655763 
L 416.858745 688.768677 
L 417.124327 694.722931 
L 417.166043 693.79532 
L 417.262131 692.880246 
L 417.213091 694.722931 
L 417.271806 693.79532 
L 417.372228 694.259125 
L 417.352944 692.428976 
L 417.382124 693.79532 
L 417.431888 691.050096 
L 417.42174 694.722931 
L 417.486638 693.344051 
L 417.524484 692.428976 
L 417.592001 694.259125 
L 417.652459 692.428976 
L 417.632177 694.722931 
L 417.703271 693.344051 
L 417.801612 694.259125 
L 417.743318 692.880246 
L 417.812641 693.79532 
L 417.841965 694.259125 
L 417.913803 692.428976 
L 418.023018 694.259125 
L 418.122295 692.880246 
L 418.133056 693.344051 
L 418.173138 692.880246 
L 418.242853 694.259125 
L 418.252342 686.474723 
L 418.324333 694.259125 
L 418.517337 684.193303 
L 418.527967 677.323975 
L 418.546566 197.549033 
L 418.645711 611.400988 
L 418.735638 612.316062 
L 418.67541 610.937183 
L 418.747333 611.852257 
L 418.756843 610.485913 
L 418.787192 612.316062 
L 418.855944 611.852257 
L 418.865586 615.976361 
L 418.895655 610.485913 
L 418.965944 612.767332 
L 418.975516 611.400988 
L 419.006426 616.440166 
L 419.126293 694.259125 
L 419.245315 692.880246 
L 419.265438 694.259125 
L 419.34709 601.786435 
L 419.385087 619.185391 
L 419.506013 694.259125 
L 419.627309 692.428976 
L 419.747443 694.259125 
L 419.79653 692.880246 
L 419.993228 693.79532 
L 420.005843 692.880246 
L 420.019347 694.259125 
L 420.099156 693.79532 
L 420.129107 692.880246 
L 420.209525 694.259125 
L 420.268546 692.428976 
L 420.319064 692.880246 
L 420.418951 694.259125 
L 420.42893 693.344051 
L 420.43952 693.344051 
L 420.481141 692.880246 
L 420.549556 694.722931 
L 420.609817 692.428976 
L 420.660327 693.344051 
L 420.689722 692.880246 
L 420.770997 694.259125 
L 420.77938 692.428976 
L 420.879836 694.259125 
L 420.890079 694.259125 
L 420.8997 692.428976 
L 420.999678 693.344051 
L 421.100874 694.259125 
L 421.081171 691.965171 
L 421.111814 693.79532 
L 421.142327 694.259125 
L 421.210897 692.880246 
L 421.272054 694.259125 
L 421.467096 693.344051 
L 421.533051 694.722931 
L 421.502796 692.428976 
L 421.573177 694.259125 
L 421.673758 692.880246 
L 421.682569 693.79532 
L 421.753413 694.722931 
L 421.712537 693.344051 
L 421.763148 693.344051 
L 421.902746 179.247538 
L 422.014005 589.877928 
L 422.022843 588.047779 
L 422.134261 589.877928 
L 422.194105 592.623152 
L 422.234156 588.962854 
L 422.313951 590.341733 
L 422.323564 509.765015 
L 422.343646 671.820991 
L 422.41319 671.369722 
L 422.504799 671.820991 
L 422.444652 669.990842 
L 422.514933 671.369722 
L 422.61526 670.454647 
L 422.555115 671.820991 
L 422.625004 671.369722 
L 422.724839 671.820991 
L 422.704983 670.454647 
L 422.735357 671.369722 
L 422.746957 670.454647 
L 422.941673 671.820991 
L 423.030864 670.454647 
L 423.049277 671.820991 
L 423.059285 671.820991 
L 423.118628 663.585319 
L 423.099466 672.284796 
L 423.169349 671.820991 
L 423.189803 671.820991 
L 423.248973 670.454647 
L 423.299067 670.905917 
L 423.393383 671.820991 
L 423.338645 669.990842 
L 423.410546 671.369722 
L 423.431152 671.820991 
L 423.509827 670.454647 
L 423.630013 671.820991 
L 423.639001 669.990842 
L 423.728829 670.454647 
L 423.738942 672.284796 
L 423.839489 671.820991 
L 423.849693 671.820991 
L 423.899504 670.454647 
L 423.958806 671.369722 
L 423.990727 670.454647 
L 424.060628 671.820991 
L 424.120185 670.454647 
L 424.170089 671.820991 
L 424.179202 671.820991 
L 424.189534 672.284796 
L 424.207559 670.454647 
L 424.217263 671.369722 
L 424.421657 592.623152 
L 424.52413 594.002032 
L 424.531128 594.465837 
L 424.550135 591.708078 
L 424.620199 594.002032 
L 424.660172 592.623152 
L 424.641162 594.465837 
L 424.671708 593.086957 
L 424.693191 539.072477 
L 424.730154 594.465837 
L 424.779684 593.550762 
L 424.800527 592.171883 
L 424.880084 594.002032 
L 424.979696 592.623152 
L 424.960425 594.465837 
L 424.990194 593.550762 
L 425.012918 593.550762 
L 425.022398 592.623152 
L 425.072412 594.917107 
L 425.09231 594.002032 
L 425.101767 471.77061 
L 425.122372 676.86017 
L 425.191349 674.578751 
L 425.222514 676.86017 
L 425.281272 674.114946 
L 425.301354 675.030021 
L 425.321264 673.663676 
L 425.391144 675.493826 
L 425.494271 674.114946 
L 425.612338 675.945095 
L 425.661305 674.114946 
L 425.690838 675.945095 
L 425.907943 676.4089 
L 425.998709 675.030021 
L 426.017114 675.945095 
L 426.02828 675.945095 
L 426.127055 674.578751 
L 426.066847 676.86017 
L 426.146522 675.030021 
L 426.235686 675.945095 
L 426.16655 674.114946 
L 426.245388 675.493826 
L 426.345252 674.114946 
L 426.264682 675.945095 
L 426.35495 675.493826 
L 426.365437 675.493826 
L 426.374968 656.71599 
L 426.474216 674.114946 
L 426.594274 675.493826 
L 426.653772 674.114946 
L 426.663466 675.945095 
L 426.69487 675.493826 
L 426.736263 674.114946 
L 426.755357 676.4089 
L 426.834937 585.76636 
L 426.884651 587.132704 
L 426.894847 587.132704 
L 426.964001 676.86017 
L 427.12532 674.578751 
L 427.155866 675.493826 
L 427.1655 674.114946 
L 427.368712 675.945095 
L 427.466437 674.114946 
L 427.476972 675.493826 
L 427.497729 675.493826 
L 427.590284 674.578751 
L 427.607153 675.493826 
L 427.627538 676.86017 
L 427.676862 675.030021 
L 427.716194 675.945095 
L 427.736631 675.945095 
L 427.765718 674.578751 
L 427.826285 676.86017 
L 427.939167 674.114946 
L 428.057478 675.493826 
L 428.157617 673.663676 
L 428.137955 675.945095 
L 428.167582 675.030021 
L 428.176959 675.945095 
L 428.196757 674.114946 
L 428.27746 675.030021 
L 428.286796 674.114946 
L 428.316974 675.945095 
L 428.377643 675.493826 
L 428.398915 675.493826 
L 428.408975 674.114946 
L 428.489568 676.86017 
L 428.498964 675.493826 
L 428.560478 676.86017 
L 428.539199 675.030021 
L 428.607676 676.4089 
L 428.628378 674.578751 
L 428.637836 675.945095 
L 428.835755 674.578751 
L 428.864588 675.945095 
L 428.875954 674.114946 
L 428.943234 675.493826 
L 429.044535 674.114946 
L 429.051504 675.493826 
L 429.15203 675.945095 
L 429.083168 674.114946 
L 429.161214 675.493826 
L 429.221608 674.114946 
L 429.202568 675.945095 
L 429.252061 674.578751 
L 429.282002 593.550762 
L 429.353464 676.4089 
L 429.365493 676.86017 
L 429.383537 675.030021 
L 429.441923 675.945095 
L 429.46346 675.945095 
L 429.473335 674.578751 
L 429.503671 676.86017 
L 429.572952 675.493826 
L 429.583269 675.493826 
L 429.665756 675.945095 
L 429.603326 674.114946 
L 429.676804 675.030021 
L 429.685693 675.030021 
L 429.725075 674.114946 
L 429.794887 675.493826 
L 429.854165 674.114946 
L 429.904191 675.493826 
L 429.957004 675.945095 
L 429.946 674.114946 
L 430.00365 675.493826 
L 430.024691 674.114946 
L 430.094844 675.945095 
L 430.104732 674.578751 
L 430.296103 676.4089 
L 430.317073 675.945095 
L 430.38641 676.86017 
L 430.414416 674.114946 
L 430.425372 676.4089 
L 430.52583 675.493826 
L 430.626093 674.114946 
L 430.566231 675.945095 
L 430.635508 675.493826 
L 430.655422 675.493826 
L 430.696102 675.945095 
L 430.758117 674.114946 
L 430.876382 675.493826 
L 430.915904 675.945095 
L 430.977183 674.114946 
L 431.066514 676.86017 
L 431.088878 676.4089 
L 431.186781 675.030021 
L 431.15696 676.86017 
L 431.196425 675.945095 
L 431.206316 675.945095 
L 431.249605 676.86017 
L 431.276311 674.578751 
L 431.307645 675.945095 
L 431.317485 673.663676 
L 431.418207 675.493826 
L 431.437815 675.493826 
L 431.52658 674.114946 
L 431.478055 675.945095 
L 431.546441 675.493826 
L 431.556597 675.945095 
L 431.578469 674.114946 
L 431.830945 583.472405 
L 431.86005 600.87136 
L 432.017073 676.4089 
L 432.037196 675.945095 
L 432.059345 673.199871 
L 432.107341 676.86017 
L 432.138365 675.030021 
L 432.158325 675.945095 
L 432.178605 674.114946 
L 432.247997 675.493826 
L 432.268174 673.663676 
L 432.278014 675.945095 
L 432.358628 675.493826 
L 432.382499 675.493826 
L 432.479477 674.114946 
L 432.418588 675.945095 
L 432.489361 675.493826 
L 432.557747 675.945095 
L 432.608588 674.114946 
L 432.668578 675.945095 
L 432.719516 675.030021 
L 432.729501 675.030021 
L 432.738934 674.114946 
L 432.819199 676.86017 
L 432.828462 675.030021 
L 432.86925 673.199871 
L 432.948327 676.86017 
L 433.048661 673.663676 
L 433.243904 675.493826 
L 433.290728 674.114946 
L 433.340938 674.578751 
L 433.353201 675.945095 
L 433.450963 675.030021 
L 433.513368 674.114946 
L 433.480528 675.945095 
L 433.559946 675.030021 
L 433.630381 676.86017 
L 433.600263 674.114946 
L 433.675169 675.945095 
L 433.680637 668.160692 
L 433.691137 676.4089 
L 433.779459 675.493826 
L 433.833672 676.86017 
L 433.851361 674.578751 
L 433.881831 675.945095 
L 433.982285 674.114946 
L 433.991792 675.493826 
L 434.000917 675.945095 
L 434.030575 674.114946 
L 434.091067 675.493826 
L 434.161703 674.114946 
L 434.141865 675.945095 
L 434.201428 674.578751 
L 434.232697 675.493826 
L 434.241651 674.578751 
L 434.272782 593.086957 
L 434.332708 675.030021 
L 434.34272 675.030021 
L 434.352575 675.945095 
L 434.372419 674.114946 
L 434.441477 675.493826 
L 434.451493 674.114946 
L 434.492863 676.4089 
L 434.521766 676.4089 
L 434.718483 676.4089 
L 434.835731 667.245618 
L 434.84559 675.493826 
L 434.855633 675.945095 
L 434.874348 674.114946 
L 434.94403 675.493826 
L 434.957374 675.493826 
L 435.054057 674.578751 
L 434.983668 675.945095 
L 435.064875 675.493826 
L 435.136469 674.114946 
L 435.177207 674.578751 
L 435.266768 674.114946 
L 435.296452 675.493826 
L 435.305424 666.794348 
L 435.365884 676.86017 
L 435.405549 676.4089 
L 435.425788 676.4089 
L 435.48612 674.578751 
L 435.536169 676.4089 
L 435.545548 676.86017 
L 435.565439 675.030021 
L 435.59876 675.493826 
L 435.656375 674.114946 
L 435.706343 675.030021 
L 435.745012 675.945095 
L 435.735761 674.114946 
L 435.815668 675.030021 
L 435.846135 675.493826 
L 435.917136 674.114946 
L 435.986186 675.493826 
L 435.995708 674.114946 
L 436.248667 676.4089 
L 436.346412 674.578751 
L 436.287635 676.86017 
L 436.357034 675.493826 
L 436.410631 676.86017 
L 436.427926 674.578751 
L 436.458153 675.030021 
L 436.556773 674.114946 
L 436.487869 675.493826 
L 436.569045 675.030021 
L 436.60755 675.945095 
L 436.597739 674.114946 
L 436.677745 675.493826 
L 436.729532 674.114946 
L 436.706945 675.945095 
L 436.73627 675.030021 
L 436.768011 592.171883 
L 436.827586 675.493826 
L 436.83766 675.493826 
L 436.848056 675.493826 
L 436.867869 666.794348 
L 436.877844 675.945095 
L 436.957597 675.493826 
L 436.988913 674.114946 
L 437.067902 676.4089 
L 437.116871 675.030021 
L 437.147046 676.86017 
L 437.177782 675.493826 
L 437.267302 676.86017 
L 437.277682 675.945095 
L 437.296909 660.376289 
L 437.306859 527.16397 
L 437.40699 611.852257 
L 437.465991 610.937183 
L 437.671038 612.316062 
L 437.679959 610.485913 
L 437.718599 611.400988 
L 437.838739 694.259125 
L 437.939596 692.880246 
L 437.949425 693.344051 
L 437.979012 692.880246 
L 438.051644 694.259125 
L 438.109946 692.428976 
L 438.158687 693.344051 
L 438.219748 694.259125 
L 438.240332 692.428976 
L 438.269863 693.79532 
L 438.369085 692.880246 
L 438.298325 694.259125 
L 438.378854 693.344051 
L 438.408993 692.880246 
L 438.480073 694.259125 
L 438.579398 692.880246 
L 438.589302 693.79532 
L 438.599145 693.79532 
L 438.62904 692.880246 
L 438.69983 694.259125 
L 438.799888 692.428976 
L 438.8102 693.344051 
L 438.839448 692.428976 
L 438.910598 694.259125 
L 438.920816 692.880246 
L 438.940499 694.259125 
L 439.144255 692.880246 
L 439.192365 694.259125 
L 439.233293 693.79532 
L 439.364783 536.778523 
L 439.413848 612.316062 
L 439.484361 611.852257 
L 439.574864 612.767332 
L 439.515254 610.937183 
L 439.58487 611.852257 
L 439.644023 610.937183 
L 439.653454 611.400988 
L 439.662887 615.512556 
L 439.69334 610.022108 
L 439.764087 612.316062 
L 439.774475 593.086957 
L 439.794243 694.259125 
L 439.824014 693.344051 
L 439.863519 692.880246 
L 439.933421 694.259125 
L 440.033864 692.880246 
L 440.04359 693.344051 
L 440.073318 692.880246 
L 440.155747 694.259125 
L 440.244256 692.880246 
L 440.266082 694.259125 
L 440.295704 692.428976 
L 440.385792 693.344051 
L 440.39575 694.259125 
L 440.416731 692.880246 
L 440.610876 693.79532 
L 440.667996 692.428976 
L 440.648325 694.259125 
L 440.717792 693.344051 
L 440.818401 694.259125 
L 440.759688 692.880246 
L 440.827791 693.79532 
L 440.928391 681.435544 
L 440.857688 694.259125 
L 440.938068 693.344051 
L 440.979393 692.880246 
L 441.04056 694.259125 
L 441.140782 692.880246 
L 441.149733 693.79532 
L 441.220682 692.428976 
L 441.259944 694.259125 
L 441.26963 692.428976 
L 441.29974 694.722931 
L 441.370151 694.259125 
L 441.440265 691.965171 
L 441.490172 693.344051 
L 441.569804 692.880246 
L 441.601148 694.259125 
L 441.699757 692.880246 
L 441.711928 693.79532 
L 441.720583 693.79532 
L 441.730641 694.259125 
L 441.749893 611.400988 
L 441.841036 694.259125 
L 441.851833 694.722931 
L 441.861959 692.428976 
L 441.883285 694.259125 
L 442.076959 692.880246 
L 442.084192 693.344051 
L 442.18207 694.259125 
L 442.165585 692.880246 
L 442.191962 693.344051 
L 442.212742 693.344051 
L 442.243638 694.722931 
L 442.253546 692.428976 
L 442.326482 694.259125 
L 442.42202 692.880246 
L 442.431645 693.344051 
L 442.512468 692.880246 
L 442.542894 694.259125 
L 442.621905 689.683752 
L 442.65442 692.880246 
L 442.721654 694.722931 
L 442.762559 694.259125 
L 442.862072 692.880246 
L 442.871919 693.79532 
L 442.892129 693.79532 
L 442.991844 692.428976 
L 442.961924 694.259125 
L 443.001273 693.344051 
L 443.102882 694.259125 
L 443.030753 692.880246 
L 443.111939 693.344051 
L 443.121988 692.428976 
L 443.143153 694.259125 
L 443.213466 692.880246 
L 443.221131 694.722931 
L 443.322273 693.79532 
L 443.332589 692.880246 
L 443.362912 693.79532 
L 443.558159 693.344051 
L 443.578457 694.259125 
L 443.58635 692.880246 
L 443.664202 693.344051 
L 443.673879 692.428976 
L 443.683628 693.79532 
L 443.765193 692.880246 
L 443.804344 692.428976 
L 443.874255 694.259125 
L 443.935955 692.880246 
L 443.985525 693.344051 
L 444.015777 692.880246 
L 444.096147 694.259125 
L 444.10466 692.428976 
L 444.204277 693.79532 
L 444.214605 693.344051 
L 444.225857 693.79532 
L 444.305778 603.15278 
L 444.345483 607.276884 
L 444.425811 694.259125 
L 444.465586 693.79532 
L 444.547322 694.259125 
L 444.485613 692.428976 
L 444.565886 693.344051 
L 444.579979 691.965171 
L 444.595326 694.259125 
L 444.66561 692.880246 
L 444.7394 694.259125 
L 444.706331 692.428976 
L 444.775151 693.79532 
L 444.827578 692.880246 
L 444.805851 694.259125 
L 444.836087 693.344051 
L 445.032458 694.259125 
L 445.119861 692.880246 
L 445.139798 694.259125 
L 445.210696 692.428976 
L 445.240001 694.722931 
L 445.259533 693.344051 
L 445.289953 692.428976 
L 445.370273 694.722931 
L 445.429644 689.219947 
L 445.500318 738.659054 
L 446.176302 738.672842 
L 668.591297 738.684287 
L 668.90445 718.063604 
L 668.996115 722.187708 
L 669.006635 722.187708 
L 669.015351 722.638978 
L 669.126042 689.683752 
L 669.136308 690.598827 
L 669.186169 689.219947 
L 669.254538 690.135022 
L 669.284683 689.683752 
L 669.366103 690.598827 
L 669.406347 690.135022 
L 669.396278 691.050096 
L 669.476304 690.598827 
L 669.525458 691.965171 
L 669.494999 690.135022 
L 669.544657 691.513901 
L 669.557125 688.768677 
L 669.615918 691.965171 
L 669.655331 690.135022 
L 669.69657 691.050096 
L 669.705351 689.683752 
L 669.766781 690.598827 
L 669.776821 690.598827 
L 669.896304 689.683752 
L 669.986787 690.598827 
L 669.937425 689.219947 
L 670.009083 690.135022 
L 670.026614 690.135022 
L 670.036448 690.598827 
L 670.057884 690.135022 
L 670.252002 690.598827 
L 670.369612 689.683752 
L 670.467028 690.598827 
L 670.477379 689.683752 
L 670.59809 690.598827 
L 670.718425 689.683752 
L 670.838759 690.598827 
L 670.918774 689.683752 
L 670.928095 691.965171 
L 670.997356 689.219947 
L 671.028518 691.050096 
L 671.038511 691.050096 
L 671.048382 689.683752 
L 671.079208 692.880246 
L 671.138012 692.428976 
L 671.148338 692.428976 
L 671.178411 692.880246 
L 671.269594 649.859197 
L 671.258979 704.788753 
L 671.291609 685.559648 
L 671.298354 684.644573 
L 671.319261 686.474723 
L 671.39003 686.023453 
L 671.419284 685.108378 
L 671.490356 686.474723 
L 671.510096 685.559648 
L 671.529833 686.023453 
L 671.735495 686.474723 
L 671.838687 685.108378 
L 671.845559 686.474723 
L 671.867819 686.474723 
L 671.955342 685.108378 
L 671.974148 686.474723 
L 672.044461 684.644573 
L 672.096556 685.108378 
L 672.185706 686.938528 
L 672.214756 686.474723 
L 672.263959 684.644573 
L 672.316454 686.474723 
L 672.336738 686.474723 
L 672.435269 685.559648 
L 672.44397 686.474723 
L 672.474159 686.474723 
L 672.564735 685.108378 
L 672.584107 686.474723 
L 672.615584 685.108378 
L 672.695106 685.559648 
L 672.765784 686.474723 
L 672.735662 685.108378 
L 672.80602 686.023453 
L 672.816206 686.023453 
L 672.885013 686.938528 
L 672.915007 685.559648 
L 672.995636 685.108378 
L 673.005188 686.938528 
L 673.199741 686.938528 
L 673.248822 685.559648 
L 673.307575 686.938528 
L 673.426675 685.559648 
L 673.467626 685.108378 
L 673.496768 686.938528 
L 673.557156 674.578751 
L 673.608437 678.23905 
L 673.629033 679.154125 
L 673.638576 675.030021 
L 673.670542 678.69032 
L 673.719481 675.493826 
L 673.699435 679.154125 
L 673.779352 678.69032 
L 673.798574 679.605394 
L 673.808284 675.030021 
L 673.839336 679.154125 
L 673.939108 675.030021 
L 673.9489 678.23905 
L 673.999371 679.605394 
L 673.979662 675.030021 
L 674.009848 679.154125 
L 674.069934 675.030021 
L 674.11941 677.775245 
L 674.178266 679.154125 
L 674.198219 675.030021 
L 674.228768 678.69032 
L 674.329221 675.030021 
L 674.268877 679.154125 
L 674.338818 678.69032 
L 674.368845 675.493826 
L 674.400133 679.154125 
L 674.450693 675.493826 
L 674.482219 679.154125 
L 674.686206 679.154125 
L 674.735939 675.493826 
L 674.715678 679.605394 
L 674.786579 677.775245 
L 674.797993 679.605394 
L 674.816948 675.030021 
L 674.887792 679.154125 
L 674.986585 675.030021 
L 674.996512 677.775245 
L 675.026891 676.4089 
L 675.066608 678.69032 
L 675.165395 675.030021 
L 675.156289 679.154125 
L 675.176149 678.23905 
L 675.206956 675.030021 
L 675.237273 678.69032 
L 675.336391 675.493826 
L 675.266692 679.154125 
L 675.345882 678.69032 
L 675.356069 679.154125 
L 675.376574 675.030021 
L 675.416982 677.323975 
L 675.507378 675.030021 
L 675.448183 679.154125 
L 675.517133 678.69032 
L 675.537294 678.69032 
L 675.597009 675.493826 
L 675.566835 679.154125 
L 675.646568 678.23905 
L 675.677867 675.030021 
L 675.708126 678.69032 
L 675.726882 675.493826 
L 675.736704 686.474723 
L 675.787785 686.023453 
L 675.897322 685.108378 
L 675.937969 684.644573 
L 675.946445 686.023453 
L 676.155648 684.644573 
L 676.265567 686.023453 
L 676.27713 686.023453 
L 676.286369 684.644573 
L 676.385038 685.559648 
L 676.417891 684.644573 
L 676.495423 686.023453 
L 676.58715 685.108378 
L 676.59671 686.023453 
L 676.656223 686.474723 
L 676.637369 685.108378 
L 676.706168 686.023453 
L 676.80437 685.108378 
L 676.738267 686.474723 
L 676.815391 686.023453 
L 676.836364 686.023453 
L 676.935467 673.663676 
L 677.049834 675.030021 
L 677.148737 676.4089 
L 677.138574 674.578751 
L 677.161453 675.945095 
L 677.170694 675.945095 
L 677.220989 674.114946 
L 677.190597 676.4089 
L 677.278819 675.493826 
L 677.309036 673.663676 
L 677.339862 675.945095 
L 677.349137 673.663676 
L 677.420833 675.945095 
L 677.617451 676.4089 
L 677.71532 673.663676 
L 677.734934 675.493826 
L 677.756693 675.493826 
L 677.847095 673.663676 
L 677.78764 675.945095 
L 677.856352 675.945095 
L 677.878007 675.945095 
L 677.976052 673.663676 
L 677.916053 676.4089 
L 677.985789 675.945095 
L 677.996246 675.945095 
L 678.006613 676.4089 
L 678.016819 674.114946 
L 678.057532 675.945095 
L 678.067224 673.663676 
L 678.127343 680.069199 
L 678.146548 679.154125 
L 678.246001 680.520469 
L 678.256453 680.069199 
L 678.317407 680.520469 
L 678.358014 679.605394 
L 678.469942 680.520469 
L 678.56741 679.154125 
L 678.577238 680.069199 
L 678.678988 680.520469 
L 678.609138 679.154125 
L 678.688346 680.069199 
L 678.781142 679.154125 
L 678.707824 680.520469 
L 678.790348 680.069199 
L 678.821107 680.069199 
L 678.86962 679.154125 
L 678.88958 680.069199 
L 679.08442 679.154125 
L 679.192096 680.520469 
L 679.202366 680.069199 
L 679.253282 679.154125 
L 679.2318 680.520469 
L 679.302506 680.069199 
L 679.331547 680.984274 
L 679.3435 679.154125 
L 679.412971 680.520469 
L 679.503245 679.605394 
L 679.442575 680.984274 
L 679.522147 680.069199 
L 679.573114 680.520469 
L 679.592056 679.154125 
L 679.631926 680.069199 
L 679.681708 679.154125 
L 679.651553 680.520469 
L 679.73246 680.520469 
L 679.763134 680.520469 
L 679.773088 679.154125 
L 679.873284 680.520469 
L 679.883165 680.520469 
L 679.973768 679.154125 
L 679.984628 680.069199 
L 680.064135 679.154125 
L 680.094496 680.520469 
L 680.193072 679.154125 
L 680.202799 680.520469 
L 680.213871 680.520469 
L 680.364853 675.030021 
L 680.555502 676.4089 
L 680.59408 675.493826 
L 680.662325 679.154125 
L 680.742747 679.605394 
L 680.764464 675.493826 
L 680.872976 679.154125 
L 680.883076 678.69032 
L 680.934512 675.493826 
L 680.902831 679.605394 
L 680.98489 678.69032 
L 681.005042 679.154125 
L 681.015503 678.23905 
L 681.054477 678.23905 
L 681.103819 675.030021 
L 681.075954 679.154125 
L 681.155536 678.69032 
L 681.215572 679.154125 
L 681.19381 676.86017 
L 681.225448 678.69032 
L 681.275778 675.030021 
L 681.25623 679.154125 
L 681.334274 679.154125 
L 681.424546 679.605394 
L 681.44407 675.493826 
L 681.546563 679.154125 
L 681.556673 678.69032 
L 681.606424 675.945095 
L 681.586665 679.154125 
L 681.665906 679.154125 
L 681.677011 679.154125 
L 681.737446 675.030021 
L 681.786702 678.69032 
L 681.796655 678.69032 
L 681.828634 676.4089 
L 681.839878 679.154125 
L 682.036227 679.154125 
L 682.065882 675.493826 
L 682.1527 676.4089 
L 682.182419 679.154125 
L 682.193062 675.030021 
L 682.262713 678.69032 
L 682.363452 675.030021 
L 682.293509 679.154125 
L 682.373577 678.69032 
L 682.394076 678.69032 
L 682.49386 674.578751 
L 682.427093 679.154125 
L 682.50369 678.69032 
L 682.513814 678.69032 
L 682.534255 675.493826 
L 682.546448 677.323975 
L 682.663351 658.54614 
L 682.732778 657.631065 
L 682.70504 660.840094 
L 682.783483 658.09487 
L 682.792719 658.09487 
L 682.945457 676.86017 
L 683.027437 657.631065 
L 683.044292 679.154125 
L 683.062918 661.755169 
L 683.084167 675.493826 
L 683.163526 595.832182 
L 683.223873 450.260086 
L 683.193056 620.100465 
L 683.242826 620.100465 
L 683.254353 197.549033 
L 683.314972 611.852257 
L 683.514012 612.316062 
L 683.582402 610.937183 
L 683.552323 612.767332 
L 683.632261 611.852257 
L 683.722161 612.316062 
L 683.702385 610.485913 
L 683.73214 611.852257 
L 683.742675 604.995464 
L 683.814043 612.767332 
L 683.842278 612.316062 
L 683.902279 620.100465 
L 683.873997 603.15278 
L 683.942438 612.316062 
L 683.962851 610.485913 
L 684.06377 611.852257 
L 684.075255 611.852257 
L 684.094671 610.937183 
L 684.154689 611.852257 
L 684.183356 593.550762 
L 684.213972 202.588212 
L 684.205081 619.63666 
L 684.293577 601.32263 
L 684.333858 619.63666 
L 684.34399 587.596509 
L 684.434068 190.228435 
L 684.363723 602.237705 
L 684.454505 217.241943 
L 684.484967 619.63666 
L 684.574761 612.767332 
L 684.656525 610.937183 
L 684.675806 611.852257 
L 684.72452 619.63666 
L 684.735065 603.616585 
L 684.783555 610.937183 
L 685.068192 694.259125 
L 685.094969 693.79532 
L 685.124449 692.880246 
L 685.195499 694.722931 
L 685.244215 687.389797 
L 685.304474 692.880246 
L 685.395664 694.259125 
L 685.405887 693.79532 
L 685.415103 692.428976 
L 685.43499 694.259125 
L 685.506351 692.880246 
L 685.565779 694.259125 
L 685.616531 693.344051 
L 685.695997 694.259125 
L 685.675504 692.428976 
L 685.736272 693.79532 
L 685.767563 692.880246 
L 685.836716 694.259125 
L 685.936636 692.880246 
L 685.946927 693.79532 
L 685.977039 692.880246 
L 686.047459 694.259125 
L 686.149157 692.880246 
L 686.158567 693.344051 
L 686.200471 692.880246 
L 686.24941 694.259125 
L 686.479842 610.485913 
L 686.541224 612.316062 
L 686.57127 610.485913 
L 686.630404 612.767332 
L 686.66185 611.400988 
L 686.72239 615.976361 
L 686.69294 610.937183 
L 686.771784 611.852257 
L 686.781647 610.485913 
L 686.801133 612.316062 
L 686.871719 611.400988 
L 686.981198 612.767332 
L 686.911841 610.937183 
L 686.991409 612.316062 
L 687.091784 611.400988 
L 687.101233 611.852257 
L 687.210685 619.185391 
L 687.12995 610.937183 
L 687.220433 617.355241 
L 687.23072 610.022108 
L 687.241829 614.597482 
L 687.250762 227.77157 
L 687.301251 615.061287 
L 687.351648 612.316062 
L 687.383296 611.400988 
L 687.454237 612.767332 
L 687.544565 610.937183 
L 687.555544 615.061287 
L 687.656233 612.316062 
L 687.666127 612.316062 
L 687.676247 611.400988 
L 687.695069 612.316062 
L 687.70512 595.832182 
L 687.715182 692.880246 
L 687.72472 692.880246 
L 687.921634 692.880246 
L 688.039425 694.259125 
L 688.09013 692.880246 
L 688.119679 694.722931 
L 688.150424 694.259125 
L 688.17013 694.259125 
L 688.269434 692.880246 
L 688.279107 693.79532 
L 688.309368 693.344051 
L 688.381063 694.259125 
L 688.471726 692.880246 
L 688.491582 694.259125 
L 688.50049 694.259125 
L 688.601719 692.880246 
L 688.611896 693.79532 
L 688.649945 692.880246 
L 688.709307 694.259125 
L 688.774579 692.880246 
L 688.810717 693.79532 
L 688.930723 600.407555 
L 689.049876 694.259125 
L 689.069498 694.259125 
L 689.161298 692.880246 
L 689.171014 694.259125 
L 689.180865 694.259125 
L 689.191251 693.79532 
L 689.387728 693.79532 
L 689.416534 692.880246 
L 689.485188 694.259125 
L 689.544211 692.880246 
L 689.595023 694.259125 
L 689.605027 694.259125 
L 689.665883 692.880246 
L 689.715128 693.344051 
L 689.816508 694.259125 
L 689.756476 692.880246 
L 689.826115 693.79532 
L 689.855265 694.259125 
L 689.925444 692.880246 
L 690.037276 694.722931 
L 690.088222 692.880246 
L 690.146753 694.259125 
L 690.266846 692.880246 
L 690.276022 693.344051 
L 690.367068 694.259125 
L 690.380892 693.344051 
L 690.408298 694.259125 
L 690.478575 692.880246 
L 690.537732 694.722931 
L 690.598037 694.259125 
L 690.607514 692.880246 
L 690.668005 693.79532 
L 690.875448 692.880246 
L 690.980985 694.259125 
L 691.05899 683.278229 
L 691.090407 694.259125 
L 691.110433 694.259125 
L 691.208486 692.880246 
L 691.217824 693.344051 
L 691.279497 694.259125 
L 691.289259 692.880246 
L 691.29973 693.344051 
L 691.430279 440.645533 
L 691.450995 612.316062 
L 691.549985 610.937183 
L 691.559695 611.400988 
L 691.591064 610.937183 
L 691.672767 615.512556 
L 691.762639 610.485913 
L 691.791701 612.316062 
L 691.801725 612.316062 
L 691.811226 611.400988 
L 691.841582 612.316062 
L 691.950295 694.259125 
L 691.960277 693.79532 
L 692.051108 694.259125 
L 692.022025 692.428976 
L 692.061285 693.344051 
L 692.070763 692.880246 
L 692.091451 694.259125 
L 692.132342 693.79532 
L 692.327671 692.880246 
L 692.432836 694.259125 
L 692.533501 692.880246 
L 692.543438 693.344051 
L 692.622971 692.428976 
L 692.653139 694.259125 
L 692.753929 692.880246 
L 692.762998 694.259125 
L 692.843873 692.880246 
L 692.883089 693.344051 
L 692.967784 692.880246 
L 692.994797 694.259125 
L 693.055058 692.880246 
L 693.1044 694.259125 
L 693.225928 692.880246 
L 693.337202 694.259125 
L 693.386295 692.880246 
L 693.436502 693.344051 
L 693.476663 692.880246 
L 693.545907 694.259125 
L 693.60892 692.880246 
L 693.80119 694.259125 
L 693.939704 133.92 
L 693.948399 589.877928 
L 693.958996 589.877928 
L 693.979888 587.596509 
L 694.069747 588.047779 
L 694.168993 592.171883 
L 694.177965 589.426659 
L 694.199198 587.596509 
L 694.209944 592.623152 
L 694.280438 588.511584 
L 694.380195 597.211061 
L 694.350662 588.047779 
L 694.414839 595.380912 
L 694.500112 588.511584 
L 694.52956 589.426659 
L 694.540734 588.047779 
L 694.560222 589.877928 
L 694.641529 588.962854 
L 694.660345 588.962854 
L 694.701182 597.211061 
L 694.711099 579.812106 
L 694.760406 589.426659 
L 694.791052 588.511584 
L 694.81097 588.962854 
L 694.820949 572.027703 
L 694.850744 671.820991 
L 694.872159 670.905917 
L 694.881406 669.990842 
L 694.910253 671.820991 
L 694.97087 670.454647 
L 695.064853 671.820991 
L 695.052158 669.990842 
L 695.072252 671.369722 
L 695.265975 670.454647 
L 695.363729 671.820991 
L 695.373156 671.369722 
L 695.453286 671.820991 
L 695.392952 670.454647 
L 695.473421 671.369722 
L 695.483588 665.415468 
L 695.513903 671.820991 
L 695.583763 671.369722 
L 695.644312 671.820991 
L 695.604231 669.990842 
L 695.683534 671.369722 
L 695.734278 669.990842 
L 695.765254 671.820991 
L 695.794345 671.369722 
L 695.824409 670.454647 
L 695.895342 671.820991 
L 695.94531 669.990842 
L 696.004826 671.369722 
L 696.015393 671.369722 
L 696.038049 670.454647 
L 696.135056 671.820991 
L 696.245303 670.454647 
L 696.255126 671.369722 
L 696.274854 671.369722 
L 696.284781 671.820991 
L 696.295703 669.990842 
L 696.395603 570.197554 
L 696.466027 592.623152 
L 696.52634 594.465837 
L 696.544491 593.550762 
L 696.742109 588.511584 
L 696.811621 574.772927 
L 697.009983 675.493826 
L 697.020156 675.493826 
L 697.04066 675.030021 
L 697.069922 676.4089 
L 697.110772 676.4089 
L 697.121114 676.4089 
L 697.213929 674.578751 
L 697.23434 675.493826 
L 697.281718 676.4089 
L 697.302312 674.578751 
L 697.331767 675.945095 
L 697.432038 674.114946 
L 697.442621 675.030021 
L 697.472921 674.114946 
L 697.51155 675.493826 
L 697.532877 270.341349 
L 697.633034 593.550762 
L 697.732825 592.171883 
L 697.74597 593.086957 
L 697.822268 592.171883 
L 697.851536 593.550762 
L 697.911446 592.623152 
L 697.922448 593.550762 
L 697.931406 594.917107 
L 697.941137 592.623152 
L 697.982259 676.86017 
L 698.012842 675.945095 
L 698.21623 675.493826 
L 698.32603 674.114946 
L 698.335163 675.030021 
L 698.347147 675.493826 
L 698.356165 675.030021 
L 698.366458 669.075767 
L 698.379161 675.493826 
L 698.465948 675.493826 
L 698.486379 675.493826 
L 698.537708 674.114946 
L 698.597041 675.493826 
L 698.610396 675.493826 
L 698.667176 674.114946 
L 698.716549 674.578751 
L 698.787016 675.945095 
L 698.755864 674.114946 
L 698.797239 675.493826 
L 698.807212 594.465837 
L 698.89762 676.4089 
L 698.907343 675.493826 
L 698.969026 675.030021 
L 698.978792 676.4089 
L 698.988608 676.4089 
L 698.998438 676.4089 
L 699.008555 674.114946 
L 699.108124 675.493826 
L 699.128267 675.493826 
L 699.178689 665.879273 
L 699.230635 675.030021 
L 699.309145 675.493826 
L 699.259914 674.114946 
L 699.339939 675.030021 
L 699.359814 675.030021 
L 699.450578 675.493826 
L 699.430759 673.663676 
L 699.470796 675.030021 
L 699.480814 675.030021 
L 699.490508 675.493826 
L 699.705309 676.4089 
L 699.804642 674.578751 
L 699.814925 675.493826 
L 699.826605 676.86017 
L 699.904947 675.030021 
L 699.924063 675.493826 
L 700.023909 673.663676 
L 700.125696 675.493826 
L 700.135863 675.030021 
L 700.186594 674.114946 
L 700.158053 675.493826 
L 700.235803 675.030021 
L 700.336104 675.493826 
L 700.346368 675.030021 
L 700.397666 674.114946 
L 700.367161 675.493826 
L 700.448186 675.030021 
L 700.487084 674.114946 
L 700.557601 676.4089 
L 700.569604 675.030021 
L 700.667779 675.945095 
L 700.678008 675.945095 
L 700.718982 676.4089 
L 700.697797 675.030021 
L 700.768671 675.493826 
L 700.868773 674.114946 
L 700.878496 675.030021 
L 700.950754 673.663676 
L 700.959629 675.493826 
L 701.155882 674.578751 
L 701.163322 675.030021 
L 701.214081 675.945095 
L 701.242969 674.114946 
L 701.273962 675.493826 
L 701.283364 673.663676 
L 701.292716 675.493826 
L 701.394484 583.93621 
L 701.41383 601.32263 
L 701.422798 593.086957 
L 701.443667 657.179795 
L 701.473382 676.86017 
L 701.562571 676.4089 
L 701.574251 676.4089 
L 701.673225 673.663676 
L 701.682728 675.493826 
L 701.703635 675.493826 
L 701.794378 674.114946 
L 701.813254 675.030021 
L 701.823721 675.030021 
L 701.843881 674.114946 
L 701.933372 675.493826 
L 702.01337 674.114946 
L 702.04429 675.493826 
L 702.0537 675.493826 
L 702.145145 674.114946 
L 702.164335 675.030021 
L 702.25573 676.86017 
L 702.185887 674.114946 
L 702.295067 676.4089 
L 702.355592 674.578751 
L 702.408736 675.945095 
L 702.424884 676.4089 
L 702.638536 675.493826 
L 702.688608 674.114946 
L 702.748251 675.493826 
L 702.768636 675.493826 
L 702.819227 674.114946 
L 702.867825 675.030021 
L 702.957625 675.945095 
L 702.907434 673.663676 
L 702.979698 675.493826 
L 702.988488 674.578751 
L 703.080863 675.030021 
L 703.198001 676.4089 
L 703.298095 675.030021 
L 703.307985 676.4089 
L 703.428489 674.114946 
L 703.438609 675.493826 
L 703.459507 675.493826 
L 703.510447 674.114946 
L 703.567961 675.493826 
L 703.57863 675.945095 
L 703.598668 673.663676 
L 703.678899 675.493826 
L 703.767816 674.578751 
L 703.788027 675.493826 
L 703.809492 592.623152 
L 703.888733 675.945095 
L 703.898687 674.114946 
L 704.101219 675.945095 
L 704.20011 674.114946 
L 704.120765 676.4089 
L 704.209865 675.030021 
L 704.219547 675.030021 
L 704.310497 675.493826 
L 704.239957 674.578751 
L 704.330649 675.030021 
L 704.370853 674.114946 
L 704.449482 675.945095 
L 704.503339 674.114946 
L 704.559222 675.493826 
L 704.579693 675.493826 
L 704.670726 674.114946 
L 704.600336 675.945095 
L 704.690425 675.030021 
L 704.701247 675.030021 
L 704.760977 674.114946 
L 704.730873 675.493826 
L 704.781567 675.493826 
L 704.800282 675.030021 
L 704.881252 676.86017 
L 704.930207 675.030021 
L 704.990485 676.4089 
L 705.000272 676.86017 
L 705.020887 674.114946 
L 705.080828 675.493826 
L 705.191235 674.114946 
L 705.181267 675.945095 
L 705.200871 675.030021 
L 705.232326 673.663676 
L 705.303633 675.493826 
L 705.362196 674.578751 
L 705.373747 675.030021 
L 705.570152 675.493826 
L 705.630116 674.114946 
L 705.663895 675.945095 
L 705.671118 670.454647 
L 705.710211 676.86017 
L 705.771111 676.86017 
L 705.890085 674.578751 
L 705.900504 675.945095 
L 705.929965 674.114946 
L 706.003191 675.493826 
L 706.010898 674.114946 
L 706.113075 675.493826 
L 706.231454 674.114946 
L 706.251408 675.945095 
L 706.281625 675.493826 
L 706.371542 582.55733 
L 706.392235 675.493826 
L 706.47237 675.030021 
L 706.481435 665.879273 
L 706.532191 676.4089 
L 706.581652 676.4089 
L 706.593918 676.4089 
L 706.693416 675.493826 
L 706.704509 676.4089 
L 706.713246 676.86017 
L 706.734262 675.030021 
L 706.763158 675.493826 
L 706.773745 674.114946 
L 706.843344 675.493826 
L 707.038729 675.493826 
L 707.117491 674.114946 
L 707.157545 674.578751 
L 707.197871 674.114946 
L 707.276657 675.493826 
L 707.297243 669.075767 
L 707.306391 656.264721 
L 707.399669 676.86017 
L 707.415846 674.578751 
L 707.517079 676.4089 
L 707.527027 676.4089 
L 707.628638 674.578751 
L 707.577268 676.86017 
L 707.648132 675.493826 
L 707.658409 675.493826 
L 707.710484 674.114946 
L 707.68875 675.945095 
L 707.768791 675.493826 
L 707.778144 675.493826 
L 707.880441 674.114946 
L 707.891675 675.030021 
L 707.901445 675.030021 
L 707.969771 674.114946 
L 708.000057 675.493826 
L 708.010637 674.114946 
L 708.069947 675.945095 
L 708.110543 675.493826 
L 708.1303 675.493826 
L 708.180936 674.114946 
L 708.230743 675.493826 
L 708.270912 675.030021 
L 708.319907 676.4089 
L 708.51692 674.114946 
L 708.524205 675.030021 
L 708.574043 675.945095 
L 708.602805 674.114946 
L 708.632679 675.030021 
L 708.732558 674.114946 
L 708.663106 675.493826 
L 708.741861 675.030021 
L 708.761608 675.493826 
L 708.782181 672.748601 
L 708.881773 583.021135 
L 708.891609 600.407555 
L 709.012795 675.493826 
L 709.033514 674.114946 
L 709.103866 676.4089 
L 709.124745 675.030021 
L 709.203296 676.4089 
L 709.244243 675.945095 
L 709.273331 676.4089 
L 709.335517 657.179795 
L 709.346232 586.681434 
L 709.444501 611.400988 
L 709.483891 611.852257 
L 709.505771 610.485913 
L 709.535058 611.400988 
L 709.59492 610.937183 
L 709.56389 612.316062 
L 709.63591 611.400988 
L 709.693571 619.63666 
L 709.723543 601.786435 
L 709.743728 611.400988 
L 709.75413 611.852257 
L 709.784366 693.79532 
L 709.9778 692.428976 
L 710.083933 693.79532 
L 710.095605 693.344051 
L 710.114227 693.344051 
L 710.185773 694.259125 
L 710.146704 692.880246 
L 710.225141 693.79532 
L 710.276226 692.428976 
L 710.306739 694.259125 
L 710.334366 692.880246 
L 710.435713 694.259125 
L 710.418083 692.428976 
L 710.44511 693.79532 
L 710.54482 687.389797 
L 710.555816 693.79532 
L 710.57917 694.259125 
L 710.585587 692.428976 
L 710.65628 693.79532 
L 710.71578 692.428976 
L 710.709473 694.259125 
L 710.765465 693.344051 
L 710.836177 694.259125 
L 710.796621 692.428976 
L 710.875935 693.79532 
L 710.905437 694.259125 
L 710.976558 692.428976 
L 711.04672 694.259125 
L 711.086033 693.79532 
L 711.095677 692.428976 
L 711.116385 694.259125 
L 711.196955 693.79532 
L 711.219272 693.79532 
L 711.227208 692.428976 
L 711.256586 694.259125 
L 711.489365 610.937183 
L 711.559617 612.316062 
L 711.637323 615.061287 
L 711.657857 610.485913 
L 711.74897 614.597482 
L 711.779511 611.852257 
L 711.799373 612.316062 
L 711.848415 598.126136 
L 711.929932 694.259125 
L 711.968752 693.79532 
L 711.988765 693.79532 
L 712.000284 692.428976 
L 712.029873 694.259125 
L 712.098714 693.79532 
L 712.128861 692.428976 
L 712.158709 693.79532 
L 712.168805 685.559648 
L 712.190938 694.259125 
L 712.259239 693.344051 
L 712.330548 694.259125 
L 712.291294 692.880246 
L 712.369165 693.79532 
L 712.379524 692.428976 
L 712.479698 692.880246 
L 712.580842 694.259125 
L 712.589605 693.79532 
L 712.629231 694.259125 
L 712.691308 692.880246 
L 712.700854 694.259125 
L 712.730658 692.880246 
L 712.927886 694.259125 
L 713.015069 692.428976 
L 713.037278 693.79532 
L 713.044907 693.79532 
L 713.105395 692.428976 
L 713.134503 694.259125 
L 713.225317 692.428976 
L 713.234808 692.880246 
L 713.24582 694.259125 
L 713.274402 692.428976 
L 713.344694 693.79532 
L 713.374438 694.259125 
L 713.454756 692.880246 
L 713.485383 692.428976 
L 713.559613 693.79532 
L 713.657483 692.428976 
L 713.589632 694.259125 
L 713.667249 693.79532 
L 713.67683 693.79532 
L 713.686735 694.259125 
L 713.696916 692.428976 
L 713.766973 693.344051 
L 713.78785 601.786435 
L 713.87805 693.344051 
L 713.907986 692.880246 
L 713.988338 694.259125 
L 714.08773 692.880246 
L 714.096864 693.344051 
L 714.187704 694.259125 
L 714.128514 692.880246 
L 714.198024 693.79532 
L 714.413357 693.79532 
L 714.501525 692.428976 
L 714.519727 693.79532 
L 714.550013 692.428976 
L 714.612457 694.259125 
L 714.641191 692.880246 
L 714.739874 694.259125 
L 714.750308 693.79532 
L 714.761101 693.79532 
L 714.810973 692.428976 
L 714.831168 694.259125 
L 714.869868 693.79532 
L 714.88015 693.79532 
L 714.98165 692.880246 
L 714.92088 694.259125 
L 714.989853 693.344051 
L 715.049271 694.259125 
L 715.029816 692.880246 
L 715.099266 693.344051 
L 715.109695 693.344051 
L 715.199856 692.880246 
L 715.150123 694.259125 
L 715.210424 693.79532 
L 715.240761 692.880246 
L 715.321621 694.259125 
L 715.421668 686.474723 
L 715.430377 693.79532 
L 715.489909 694.259125 
L 715.460328 692.880246 
L 715.530506 693.79532 
L 715.620689 692.880246 
L 715.560583 694.259125 
L 715.640279 693.79532 
L 715.661026 693.79532 
L 715.670744 692.428976 
L 715.866554 693.79532 
L 715.875187 691.965171 
L 715.895107 694.259125 
L 715.974549 692.880246 
L 716.073601 694.259125 
L 716.05282 692.428976 
L 716.085163 693.344051 
L 716.17404 692.880246 
L 716.113543 694.259125 
L 716.185474 693.344051 
L 716.21625 694.259125 
L 716.224608 692.428976 
L 716.263998 692.880246 
L 716.284201 611.400988 
L 716.364178 693.79532 
L 716.434592 692.428976 
L 716.384977 694.259125 
L 716.456028 693.344051 
L 716.536315 694.259125 
L 716.476602 692.880246 
L 716.555373 693.79532 
L 716.564771 692.428976 
L 716.587156 694.259125 
L 716.66433 693.79532 
L 716.674286 693.79532 
L 716.74428 692.428976 
L 716.776071 694.259125 
L 716.832718 692.428976 
L 716.883787 693.79532 
L 716.894262 693.79532 
L 716.994829 692.428976 
L 716.964562 694.259125 
L 717.004566 692.880246 
L 717.034386 692.428976 
L 717.115811 694.259125 
L 717.124288 692.880246 
L 717.143696 693.79532 
L 717.343485 693.344051 
L 717.43569 694.259125 
L 717.426238 692.428976 
L 717.45586 693.79532 
L 717.465645 691.965171 
L 717.629746 738.684287 
L 717.652102 738.670561 
L 717.799799 738.677881 
L 718.019229 738.67743 
L 718.610932 738.683836 
L 718.621651 738.674685 
L 725.707818 738.684751 
L 725.840372 738.681091 
L 726.193233 738.679712 
L 726.584686 738.682921 
L 727.326951 738.683836 
L 727.859197 738.683372 
L 730.012277 738.683836 
L 730.193204 738.682457 
L 730.677011 738.680175 
L 731.878303 738.683372 
L 775.303191 738.684287 
L 775.43323 738.684287 
L 775.682462 738.67926 
L 775.9156 738.684287 
L 777.198502 738.6756 
L 777.370965 738.684287 
L 779.514179 738.682006 
L 779.786473 738.678345 
L 780.028592 738.683836 
L 780.439019 738.682921 
L 784.846404 738.682457 
L 806.730986 738.682006 
L 806.860461 738.684751 
L 808.207506 738.684287 
L 810.685678 738.678797 
L 810.997195 738.678345 
L 811.230571 738.683836 
L 811.371438 738.675136 
L 819.271202 738.681542 
L 819.409917 738.67743 
L 819.591451 738.675136 
L 820.201712 738.684287 
L 845.704181 738.678345 
L 845.896135 738.684287 
L 846.088105 738.683372 
L 846.69893 738.678797 
L 850.403044 738.683372 
L 850.542148 738.682457 
L 851.104937 738.680627 
L 856.305117 738.683372 
L 856.442763 738.684287 
L 941.6134 738.72 
L 941.724318 717.612334 
L 941.813943 722.638978 
L 941.862601 722.187708 
L 941.882887 722.638978 
L 942.014369 689.683752 
L 942.044119 689.683752 
L 942.09367 690.598827 
L 942.065794 689.219947 
L 942.16275 690.135022 
L 942.193019 689.219947 
L 942.212907 690.598827 
L 942.262796 690.598827 
L 942.292365 690.598827 
L 942.312765 689.683752 
L 942.35391 690.598827 
L 942.559932 690.135022 
L 942.648207 689.219947 
L 942.668754 689.683752 
L 942.788867 690.135022 
L 942.798643 690.135022 
L 942.848973 689.683752 
L 942.862402 690.598827 
L 942.898388 690.135022 
L 942.909991 690.135022 
L 943.007972 689.219947 
L 943.018336 689.683752 
L 943.110944 690.135022 
L 943.059533 688.768677 
L 943.11888 689.683752 
L 943.130296 689.683752 
L 943.159401 690.598827 
L 943.230115 690.135022 
L 943.239707 689.219947 
L 943.249512 690.598827 
L 943.33001 689.683752 
L 943.449135 690.135022 
L 943.458876 690.135022 
L 943.541231 689.219947 
L 943.47976 690.598827 
L 943.571194 689.683752 
L 943.590319 689.219947 
L 943.680202 690.598827 
L 943.690597 688.768677 
L 943.790792 690.135022 
L 943.811888 690.135022 
L 943.824633 691.513901 
L 943.833305 690.135022 
L 944.044115 692.428976 
L 944.053767 691.965171 
L 944.133701 650.310467 
L 944.172816 685.559648 
L 944.262794 686.474723 
L 944.203883 684.644573 
L 944.272445 686.023453 
L 944.373535 685.108378 
L 944.315456 686.474723 
L 944.383563 686.023453 
L 944.46487 686.474723 
L 944.414949 685.108378 
L 944.480389 686.023453 
L 944.543356 685.108378 
L 944.583561 685.559648 
L 944.693026 686.474723 
L 944.673362 685.108378 
L 944.703166 686.023453 
L 944.806098 684.644573 
L 944.74341 686.474723 
L 944.813439 686.023453 
L 944.833111 686.023453 
L 944.935125 684.644573 
L 944.944139 686.023453 
L 944.966375 686.023453 
L 944.973961 684.644573 
L 945.074487 686.474723 
L 945.194053 685.108378 
L 945.304328 686.474723 
L 945.501196 686.474723 
L 945.610431 684.644573 
L 945.617452 685.559648 
L 945.722044 686.474723 
L 945.698748 685.108378 
L 945.72916 686.023453 
L 945.747912 686.938528 
L 945.827573 685.108378 
L 945.9384 686.938528 
L 946.04582 685.108378 
L 946.068089 686.938528 
L 946.159195 686.474723 
L 946.169467 685.108378 
L 946.226877 686.938528 
L 946.266654 686.474723 
L 946.468642 675.030021 
L 946.529231 678.69032 
L 946.569654 679.154125 
L 946.559578 677.775245 
L 946.589085 678.69032 
L 946.639043 675.030021 
L 946.659412 679.154125 
L 946.699804 678.69032 
L 946.70951 678.69032 
L 946.76934 674.578751 
L 946.75976 679.154125 
L 946.779703 678.69032 
L 946.987533 678.69032 
L 947.096192 674.578751 
L 947.206056 678.69032 
L 947.267161 674.578751 
L 947.236958 679.154125 
L 947.317367 678.23905 
L 947.417603 679.154125 
L 947.356211 675.945095 
L 947.425552 678.69032 
L 947.477466 674.578751 
L 947.446812 679.154125 
L 947.527905 679.154125 
L 947.558402 675.493826 
L 947.648286 675.945095 
L 947.708152 679.154125 
L 947.687874 675.030021 
L 947.766995 678.69032 
L 947.86127 674.578751 
L 947.869281 678.23905 
L 947.91936 678.69032 
L 947.899204 675.945095 
L 947.939395 677.323975 
L 947.988797 674.578751 
L 947.969463 678.69032 
L 948.039918 678.23905 
L 948.079003 675.030021 
L 948.108321 678.69032 
L 948.15966 675.030021 
L 948.180643 679.154125 
L 948.209843 678.23905 
L 948.220591 678.69032 
L 948.240821 677.775245 
L 948.250753 677.775245 
L 948.448685 675.945095 
L 948.54545 678.69032 
L 948.484393 674.578751 
L 948.555314 678.23905 
L 948.565214 675.945095 
L 948.615804 686.474723 
L 948.636603 685.108378 
L 948.696151 684.193303 
L 948.715687 686.023453 
L 948.738696 684.644573 
L 948.806472 686.023453 
L 948.856397 685.559648 
L 948.906518 684.193303 
L 948.876779 686.023453 
L 948.966493 685.559648 
L 948.976476 685.559648 
L 949.03824 684.193303 
L 949.058228 686.023453 
L 949.087129 685.559648 
L 949.107357 685.559648 
L 949.117342 684.193303 
L 949.175443 686.023453 
L 949.205926 684.644573 
L 949.316224 686.023453 
L 949.418428 684.644573 
L 949.43699 685.559648 
L 949.528586 686.023453 
L 949.508508 684.644573 
L 949.540462 685.559648 
L 949.607324 686.474723 
L 949.63682 685.108378 
L 949.706372 686.023453 
L 949.676361 684.644573 
L 949.716919 685.559648 
L 949.97496 673.663676 
L 950.031939 675.493826 
L 950.071889 675.945095 
L 950.052221 674.114946 
L 950.091175 675.493826 
L 950.181402 673.663676 
L 950.151134 675.945095 
L 950.191169 675.945095 
L 950.202957 675.945095 
L 950.274295 674.114946 
L 950.312775 674.578751 
L 950.374368 676.4089 
L 950.354041 673.663676 
L 950.423814 675.945095 
L 950.523612 674.114946 
L 950.533752 675.945095 
L 950.563471 673.199871 
L 950.652978 674.114946 
L 950.737479 673.199871 
L 950.766619 675.945095 
L 950.864342 673.199871 
L 950.873822 675.945095 
L 950.953086 672.748601 
L 950.963069 675.493826 
L 951.075813 680.069199 
L 951.124549 678.69032 
L 951.104763 680.520469 
L 951.185228 680.069199 
L 951.40307 680.069199 
L 951.467216 678.69032 
L 951.440403 680.520469 
L 951.507164 679.154125 
L 951.547096 678.23905 
L 951.616716 680.069199 
L 951.727062 678.69032 
L 951.827596 680.520469 
L 951.837345 680.069199 
L 951.936571 678.69032 
L 951.947815 680.069199 
L 951.967642 680.069199 
L 952.06688 678.69032 
L 952.079594 680.520469 
L 952.178346 680.069199 
L 952.188217 680.069199 
L 952.278473 679.154125 
L 952.297291 680.069199 
L 952.317685 680.069199 
L 952.409804 678.69032 
L 952.4191 680.069199 
L 952.439876 680.069199 
L 952.539325 679.154125 
L 952.549839 680.069199 
L 952.569255 680.069199 
L 952.619019 678.69032 
L 952.588884 680.520469 
L 952.669705 680.069199 
L 952.863155 680.069199 
L 952.922094 678.69032 
L 952.931092 680.520469 
L 952.963334 679.154125 
L 953.060591 680.520469 
L 953.001248 678.69032 
L 953.071052 680.069199 
L 953.081295 680.069199 
L 953.202504 678.23905 
L 953.240879 679.154125 
L 953.220754 675.493826 
L 953.251106 678.69032 
L 953.261476 674.578751 
L 953.273439 679.154125 
L 953.352864 675.945095 
L 953.46156 679.154125 
L 953.391374 675.030021 
L 953.471194 678.69032 
L 953.482611 674.578751 
L 953.491924 679.154125 
L 953.580564 678.69032 
L 953.611155 675.030021 
L 953.690163 676.86017 
L 953.800636 679.154125 
L 953.780325 675.030021 
L 953.810429 678.69032 
L 953.910976 675.030021 
L 953.920444 678.69032 
L 953.941051 678.69032 
L 954.040855 674.578751 
L 954.020498 679.154125 
L 954.050861 679.154125 
L 954.121808 675.493826 
L 954.14216 679.154125 
L 954.351527 679.154125 
L 954.370639 674.114946 
L 954.46722 678.69032 
L 954.518163 679.154125 
L 954.496967 675.493826 
L 954.528083 678.69032 
L 954.536946 674.578751 
L 954.54714 679.154125 
L 954.636362 678.69032 
L 954.657684 678.69032 
L 954.715698 675.030021 
L 954.765511 679.154125 
L 954.845389 675.030021 
L 954.886979 676.4089 
L 954.937042 679.154125 
L 954.979111 675.493826 
L 954.996903 678.69032 
L 955.008027 678.69032 
L 955.017236 674.578751 
L 955.116452 678.69032 
L 955.138489 678.69032 
L 955.146469 675.030021 
L 955.247503 678.69032 
L 955.267438 678.69032 
L 955.357348 674.578751 
L 955.377595 678.69032 
L 955.387768 678.69032 
L 955.588008 657.631065 
L 955.60786 657.179795 
L 955.815866 674.578751 
L 955.923096 657.179795 
L 955.933061 658.09487 
L 955.954211 677.323975 
L 956.003096 653.970766 
L 956.014251 666.794348 
L 956.044682 587.132704 
L 956.075261 615.512556 
L 956.093608 617.355241 
L 956.109741 601.786435 
L 956.115563 618.721586 
L 956.203941 611.852257 
L 956.214768 611.852257 
L 956.223899 613.682407 
L 956.234343 610.937183 
L 956.283641 610.937183 
L 956.293965 604.067854 
L 956.33454 614.146212 
L 956.39309 611.852257 
L 956.444269 610.485913 
L 956.4282 612.316062 
L 956.495478 610.937183 
L 956.604251 612.316062 
L 956.616259 600.87136 
L 956.626608 612.767332 
L 956.714569 612.316062 
L 956.773863 619.185391 
L 956.764114 604.067854 
L 956.814283 611.852257 
L 956.824402 610.022108 
L 956.845474 612.316062 
L 956.925284 611.400988 
L 957.015415 611.852257 
L 956.954711 610.485913 
L 957.025127 611.400988 
L 957.066223 207.163585 
L 957.077415 617.806511 
L 957.087867 409.507921 
L 957.312902 598.577406 
L 957.325946 204.418361 
L 957.352366 619.63666 
L 957.423361 611.852257 
L 957.433125 611.852257 
L 957.493911 610.485913 
L 957.463863 612.316062 
L 957.534872 610.937183 
L 957.585476 619.185391 
L 957.594235 618.721586 
L 957.604991 602.70151 
L 957.704657 610.022108 
L 957.733931 611.400988 
L 957.743857 610.022108 
L 957.754025 598.126136 
L 957.765416 693.79532 
L 957.782385 692.428976 
L 957.896807 694.259125 
L 957.994825 691.965171 
L 958.005941 692.880246 
L 958.046879 692.428976 
L 958.115017 694.259125 
L 958.215603 691.965171 
L 958.224902 692.880246 
L 958.234477 694.259125 
L 958.326782 693.79532 
L 958.347291 692.428976 
L 958.356662 694.259125 
L 958.375892 611.400988 
L 958.466139 692.428976 
L 958.547249 693.79532 
L 958.55711 692.428976 
L 958.753397 693.79532 
L 958.852788 692.428976 
L 958.860511 693.79532 
L 958.969836 691.965171 
L 958.979901 692.428976 
L 959.04924 693.79532 
L 959.059043 687.389797 
L 959.088944 694.259125 
L 959.152052 692.880246 
L 959.220676 694.259125 
L 959.189902 692.428976 
L 959.259072 693.79532 
L 959.359666 692.428976 
L 959.370211 692.880246 
L 959.439544 694.259125 
L 959.399124 692.428976 
L 959.480919 693.79532 
L 959.571002 692.428976 
L 959.5107 694.259125 
L 959.582216 692.880246 
L 959.612268 692.428976 
L 959.69191 694.259125 
L 959.791747 692.428976 
L 959.801751 693.79532 
L 959.813344 693.79532 
L 959.824514 694.259125 
L 959.831292 691.965171 
L 959.861636 693.79532 
L 959.871022 685.559648 
L 959.932191 694.722931 
L 959.96365 692.428976 
L 960.021613 694.259125 
L 960.031501 693.79532 
L 960.245386 693.79532 
L 960.255067 692.428976 
L 960.274372 694.259125 
L 960.356083 693.79532 
L 960.364847 693.79532 
L 960.375857 691.513901 
L 960.406077 694.259125 
L 960.475878 692.880246 
L 960.56608 694.259125 
L 960.506305 691.965171 
L 960.584982 693.79532 
L 960.686119 687.853602 
L 960.617016 694.259125 
L 960.696086 693.344051 
L 960.745829 694.259125 
L 960.726347 691.965171 
L 960.796054 693.79532 
L 960.806103 691.965171 
L 960.828713 694.259125 
L 960.847459 692.880246 
L 960.985235 597.662331 
L 961.045087 619.185391 
L 961.065349 597.662331 
L 961.105787 202.588212 
L 961.094903 619.63666 
L 961.175872 611.852257 
L 961.186454 610.485913 
L 961.257238 614.597482 
L 961.27857 611.400988 
L 961.338133 619.63666 
L 961.377759 610.937183 
L 961.387475 612.316062 
L 961.48974 602.70151 
L 961.499264 611.400988 
L 961.50874 611.852257 
L 961.711582 611.852257 
L 961.788237 591.256808 
L 961.920453 693.79532 
L 961.978163 691.965171 
L 962.027821 692.880246 
L 962.127764 694.259125 
L 962.057683 692.428976 
L 962.13752 692.880246 
L 962.147809 692.880246 
L 962.177983 694.259125 
L 962.188542 692.428976 
L 962.26792 693.344051 
L 962.358351 692.428976 
L 962.299061 694.259125 
L 962.367886 692.880246 
L 962.447515 692.428976 
L 962.478175 693.79532 
L 962.488326 692.428976 
L 962.580161 692.880246 
L 962.679421 694.259125 
L 962.610382 692.428976 
L 962.689351 693.79532 
L 962.699578 692.428976 
L 962.768794 694.259125 
L 962.798685 692.880246 
L 962.838803 692.428976 
L 962.908258 694.259125 
L 962.960554 691.965171 
L 962.979808 693.79532 
L 963.175874 692.428976 
L 963.183577 692.880246 
L 963.280698 694.259125 
L 963.212798 692.428976 
L 963.291324 693.79532 
L 963.34122 692.428976 
L 963.481617 599.041211 
L 963.63064 693.79532 
L 963.660303 692.880246 
L 963.750298 694.259125 
L 963.692388 692.428976 
L 963.769892 693.79532 
L 963.86023 692.428976 
L 963.880225 693.79532 
L 963.889679 694.259125 
L 963.899544 693.344051 
L 963.929983 693.79532 
L 963.94033 687.389797 
L 963.970287 694.722931 
L 964.040388 692.880246 
L 964.07994 692.428976 
L 964.151567 694.259125 
L 964.174417 692.880246 
L 964.30147 194.352539 
L 964.321026 589.877928 
L 964.402238 612.316062 
L 964.451201 611.400988 
L 964.661389 611.852257 
L 964.718991 612.767332 
L 964.740489 610.485913 
L 964.791408 694.259125 
L 964.871109 692.428976 
L 964.983007 693.79532 
L 965.040444 691.965171 
L 965.02071 694.259125 
L 965.091396 693.79532 
L 965.111319 693.79532 
L 965.211783 692.880246 
L 965.221598 693.344051 
L 965.320559 694.259125 
L 965.251576 692.428976 
L 965.330056 693.344051 
L 965.431285 692.428976 
L 965.359954 693.79532 
L 965.440263 692.880246 
L 965.490875 694.259125 
L 965.472056 692.428976 
L 965.538974 693.79532 
L 965.550392 689.219947 
L 965.650732 693.344051 
L 965.711555 694.259125 
L 965.721625 692.428976 
L 965.760823 693.79532 
L 965.811325 692.428976 
L 965.841075 693.344051 
L 965.921122 603.15278 
L 966.124223 581.178451 
L 966.162174 588.962854 
L 966.24248 588.047779 
L 966.275923 592.171883 
L 966.363714 583.472405 
L 966.383824 589.877928 
L 966.43819 590.341733 
L 966.495195 587.596509 
L 966.524567 589.877928 
L 966.534621 565.158375 
L 966.544347 671.369722 
L 966.594506 670.905917 
L 966.683854 671.820991 
L 966.663324 669.990842 
L 966.704748 670.905917 
L 966.784628 669.990842 
L 966.815228 671.369722 
L 966.91442 669.990842 
L 966.924775 671.369722 
L 966.944425 671.369722 
L 966.954267 669.990842 
L 967.054987 670.905917 
L 967.1473 671.369722 
L 967.084513 669.990842 
L 967.159218 670.905917 
L 967.177822 664.500393 
L 967.187381 671.369722 
L 967.257458 669.990842 
L 967.318289 671.820991 
L 967.376637 671.369722 
L 967.387544 669.990842 
L 967.599908 671.820991 
L 967.696657 669.990842 
L 967.706656 671.369722 
L 967.727151 671.369722 
L 967.826902 669.539572 
L 967.765962 671.820991 
L 967.836105 670.905917 
L 967.856111 671.820991 
L 967.915318 669.990842 
L 967.945676 671.369722 
L 967.99569 666.794348 
L 968.006022 671.820991 
L 968.056195 671.369722 
L 968.075381 671.369722 
L 968.166483 669.990842 
L 968.176257 671.369722 
L 968.19553 671.369722 
L 968.296746 669.990842 
L 968.305751 671.369722 
L 968.336182 670.454647 
L 968.426103 482.764042 
L 968.460941 597.211061 
L 968.547614 578.433226 
L 968.567639 596.295987 
L 968.578104 596.747256 
L 968.58887 573.406583 
L 968.628519 601.32263 
L 968.686827 599.956286 
L 968.697093 586.681434 
L 968.799597 593.086957 
L 968.845708 594.002032 
L 968.816187 591.708078 
L 968.855796 591.708078 
L 969.065041 593.086957 
L 969.075983 593.550762 
L 969.086063 591.256808 
L 969.095234 592.623152 
L 969.106362 472.234415 
L 969.114168 675.030021 
L 969.193866 675.030021 
L 969.253633 674.114946 
L 969.274017 675.945095 
L 969.294113 675.030021 
L 969.324973 676.4089 
L 969.385311 674.578751 
L 969.415367 675.493826 
L 969.515701 673.663676 
L 969.436187 676.4089 
L 969.526058 675.030021 
L 969.535892 675.030021 
L 969.616002 675.493826 
L 969.556263 673.663676 
L 969.625666 675.030021 
L 969.68581 673.663676 
L 969.665678 675.493826 
L 969.7367 675.030021 
L 969.758406 675.030021 
L 969.85823 673.663676 
L 969.787508 675.493826 
L 969.868297 675.030021 
L 969.877532 675.493826 
L 969.897055 674.114946 
L 969.977225 675.030021 
L 969.988371 673.663676 
L 970.078344 675.030021 
L 970.097834 675.030021 
L 970.107054 674.114946 
L 970.127097 676.4089 
L 970.196721 674.578751 
L 970.307211 676.86017 
L 970.286697 673.663676 
L 970.31755 675.945095 
L 970.327241 674.578751 
L 970.587928 591.708078 
L 970.62885 592.171883 
L 970.669763 591.708078 
L 970.749004 593.550762 
L 970.849156 582.093525 
L 970.779071 594.002032 
L 970.859646 593.086957 
L 971.080587 676.4089 
L 971.140294 674.114946 
L 971.190535 675.945095 
L 971.311596 674.114946 
L 971.331043 674.578751 
L 971.381762 675.493826 
L 971.391883 673.663676 
L 971.421869 675.030021 
L 971.431964 673.663676 
L 971.492948 675.493826 
L 971.532711 675.030021 
L 971.561981 675.030021 
L 971.609932 673.663676 
L 971.670644 675.030021 
L 971.720464 675.493826 
L 971.780969 673.663676 
L 971.801669 675.493826 
L 972.007796 675.493826 
L 972.044901 676.4089 
L 972.024778 675.030021 
L 972.0547 675.945095 
L 972.064813 668.160692 
L 972.156841 675.030021 
L 972.228053 675.493826 
L 972.18636 674.114946 
L 972.25845 675.030021 
L 972.268181 675.030021 
L 972.367679 673.663676 
L 972.347252 675.493826 
L 972.377939 675.030021 
L 972.387426 675.030021 
L 972.478242 675.493826 
L 972.407137 673.663676 
L 972.490416 675.030021 
L 972.578586 673.663676 
L 972.517901 675.493826 
L 972.598407 675.493826 
L 972.608063 675.493826 
L 972.669023 673.663676 
L 972.69879 675.945095 
L 972.709137 674.578751 
L 972.827212 675.945095 
L 972.916719 674.114946 
L 972.936755 675.493826 
L 972.947398 675.493826 
L 973.007874 673.663676 
L 973.068072 675.030021 
L 973.160651 675.493826 
L 973.088523 674.114946 
L 973.169121 675.030021 
L 973.258648 673.663676 
L 973.199303 675.493826 
L 973.269886 674.578751 
L 973.46785 674.578751 
L 973.505007 674.114946 
L 973.606645 676.4089 
L 973.685072 669.990842 
L 973.72599 675.030021 
L 973.75586 676.86017 
L 973.804245 674.114946 
L 973.825961 675.030021 
L 973.88717 673.663676 
L 973.877247 675.493826 
L 973.935139 674.114946 
L 974.035129 675.493826 
L 974.01549 673.663676 
L 974.04609 674.578751 
L 974.055988 673.663676 
L 974.075351 675.493826 
L 974.145332 674.114946 
L 974.205232 675.493826 
L 974.235489 673.663676 
L 974.264999 675.030021 
L 974.356014 673.663676 
L 974.29662 675.493826 
L 974.366495 674.578751 
L 974.438066 676.4089 
L 974.408165 673.663676 
L 974.478511 675.945095 
L 974.487507 675.030021 
L 974.498108 658.09487 
L 974.597231 676.4089 
L 974.615268 676.4089 
L 974.707057 673.663676 
L 974.727627 675.493826 
L 974.737643 675.030021 
L 974.928662 675.030021 
L 974.978234 673.663676 
L 975.006051 675.493826 
L 975.036686 675.030021 
L 975.056547 673.663676 
L 975.127944 675.493826 
L 975.187974 673.663676 
L 975.238784 675.030021 
L 975.256137 675.030021 
L 975.285654 676.86017 
L 975.356652 674.114946 
L 975.466717 676.4089 
L 975.517688 673.663676 
L 975.577982 675.030021 
L 975.597669 675.030021 
L 975.637384 675.945095 
L 975.697701 674.114946 
L 975.798491 675.493826 
L 975.808082 675.030021 
L 975.819185 675.030021 
L 975.828994 671.369722 
L 975.899964 584.38748 
L 975.940617 599.956286 
L 976.058841 675.493826 
L 976.068998 675.493826 
L 976.11842 672.284796 
L 976.139761 676.4089 
L 976.168383 674.578751 
L 976.202032 676.4089 
L 976.209003 674.578751 
L 976.421348 675.493826 
L 976.433049 673.199871 
L 976.521901 674.114946 
L 976.559346 673.663676 
L 976.638883 675.493826 
L 976.738534 673.663676 
L 976.748434 675.030021 
L 976.838475 675.493826 
L 976.779758 673.663676 
L 976.849446 675.030021 
L 976.948581 673.663676 
L 976.91962 675.493826 
L 976.958716 675.030021 
L 976.968629 675.030021 
L 977.058461 676.4089 
L 976.987836 674.114946 
L 977.068814 675.493826 
L 977.118224 674.114946 
L 977.098585 676.4089 
L 977.172257 675.945095 
L 977.180565 676.4089 
L 977.241426 674.578751 
L 977.261045 675.030021 
L 977.270358 675.030021 
L 977.371504 673.663676 
L 977.311608 675.493826 
L 977.381177 675.030021 
L 977.391784 675.945095 
L 977.423823 673.663676 
L 977.482017 675.493826 
L 977.591769 673.663676 
L 977.601382 675.030021 
L 977.621228 675.030021 
L 977.671329 673.663676 
L 977.681545 674.578751 
L 977.875794 676.4089 
L 977.890912 675.945095 
L 977.982166 674.578751 
L 978.001172 675.030021 
L 978.041017 676.86017 
L 978.071712 673.199871 
L 978.101653 675.030021 
L 978.111962 673.663676 
L 978.131864 675.493826 
L 978.211196 675.030021 
L 978.240814 673.663676 
L 978.319814 675.493826 
L 978.350232 593.086957 
L 978.430221 675.030021 
L 978.463033 674.114946 
L 978.531729 675.493826 
L 978.591283 673.663676 
L 978.640175 675.030021 
L 978.66891 675.030021 
L 978.679697 673.663676 
L 978.708722 675.945095 
L 978.76908 675.945095 
L 978.788864 675.945095 
L 978.798657 676.4089 
L 978.808468 675.030021 
L 978.880232 675.945095 
L 978.970223 674.114946 
L 978.910226 676.4089 
L 978.990553 675.493826 
L 979.000649 675.493826 
L 979.100615 673.199871 
L 979.110995 675.030021 
L 979.120773 675.493826 
L 979.140524 674.114946 
L 979.152002 675.030021 
L 979.34472 675.030021 
L 979.352264 675.493826 
L 979.362449 675.030021 
L 979.371903 669.539572 
L 979.389911 675.493826 
L 979.470233 675.030021 
L 979.5005 673.663676 
L 979.611078 676.4089 
L 979.710473 674.114946 
L 979.731615 675.493826 
L 979.74141 675.493826 
L 979.842146 674.114946 
L 979.771524 676.86017 
L 979.851348 675.030021 
L 979.872157 675.030021 
L 979.971701 674.114946 
L 979.902604 675.493826 
L 979.981397 675.030021 
L 980.051833 674.114946 
L 980.000864 675.493826 
L 980.07208 675.030021 
L 980.141467 673.663676 
L 980.172366 675.493826 
L 980.185796 670.905917 
L 980.283746 675.030021 
L 980.312243 673.663676 
L 980.392222 675.493826 
L 980.402056 674.114946 
L 980.462041 676.4089 
L 980.492327 676.4089 
L 980.502903 676.4089 
L 980.563323 674.578751 
L 980.614208 675.945095 
L 980.624085 675.945095 
L 980.825734 675.030021 
L 980.919347 583.021135 
L 980.929268 601.32263 
L 981.020032 675.493826 
L 981.0484 675.030021 
L 981.069012 673.663676 
L 981.148932 675.493826 
L 981.24583 673.663676 
L 981.256495 675.030021 
L 981.327107 674.578751 
L 981.308179 676.4089 
L 981.337598 675.945095 
L 981.346895 676.4089 
L 981.407615 674.578751 
L 981.438443 675.493826 
L 981.448163 673.663676 
L 981.518988 677.775245 
L 981.539299 382.958219 
L 981.639943 611.400988 
L 981.649308 611.400988 
L 981.670256 610.022108 
L 981.68002 620.100465 
L 981.780909 611.852257 
L 981.831686 610.022108 
L 981.882674 610.937183 
L 981.91336 610.485913 
L 981.943377 611.852257 
L 981.956858 530.372999 
L 981.981825 693.79532 
L 982.032326 693.344051 
L 982.074113 693.79532 
L 982.091891 692.428976 
L 982.289596 693.79532 
L 982.3355 691.965171 
L 982.396894 693.79532 
L 982.416501 693.79532 
L 982.515621 691.965171 
L 982.526259 693.79532 
L 982.645678 692.428976 
L 982.74708 693.79532 
L 982.759759 693.344051 
L 982.856822 692.428976 
L 982.786756 693.79532 
L 982.865573 692.880246 
L 982.96651 693.79532 
L 982.946462 691.965171 
L 982.975197 693.344051 
L 983.035363 692.428976 
L 983.00509 693.79532 
L 983.087083 692.880246 
L 983.177024 693.79532 
L 983.157025 692.428976 
L 983.186883 693.344051 
L 983.24813 691.965171 
L 983.217245 693.79532 
L 983.296259 693.344051 
L 983.307247 693.79532 
L 983.405949 554.177478 
L 983.485422 611.852257 
L 983.495138 611.852257 
L 983.506333 610.485913 
L 983.526563 612.316062 
L 983.57021 611.852257 
L 983.767898 612.316062 
L 983.813659 599.492481 
L 983.934145 693.79532 
L 984.034892 691.965171 
L 984.144681 693.79532 
L 984.243777 687.853602 
L 984.255194 692.428976 
L 984.357507 693.79532 
L 984.326129 691.965171 
L 984.369106 693.344051 
L 984.455452 692.428976 
L 984.445647 694.259125 
L 984.475855 693.79532 
L 984.487353 693.79532 
L 984.506882 691.965171 
L 984.596599 692.880246 
L 984.70521 693.79532 
L 984.756985 692.428976 
L 984.785501 694.259125 
L 984.816076 693.79532 
L 984.825565 693.79532 
L 984.890498 691.965171 
L 984.938373 692.880246 
L 985.021293 691.513901 
L 985.036798 693.79532 
L 985.233418 692.880246 
L 985.328509 694.259125 
L 985.259621 692.428976 
L 985.340528 693.79532 
L 985.399274 692.428976 
L 985.44997 692.880246 
L 985.529048 692.428976 
L 985.560169 693.79532 
L 985.618278 691.965171 
L 985.659762 692.428976 
L 985.769029 693.79532 
L 985.779835 692.428976 
L 985.809453 693.79532 
L 985.819704 604.067854 
L 985.918874 675.030021 
L 985.938306 694.259125 
L 986.038634 692.428976 
L 986.159868 694.259125 
L 986.259269 691.965171 
L 986.270249 693.344051 
L 986.32966 694.259125 
L 986.300208 692.428976 
L 986.371616 693.79532 
L 986.473777 692.428976 
L 986.493489 693.79532 
L 986.503 692.880246 
L 986.707289 693.79532 
L 986.757254 691.965171 
L 986.816037 693.344051 
L 986.906262 694.259125 
L 986.835225 692.428976 
L 986.917046 693.79532 
L 987.015683 691.965171 
L 986.98605 694.259125 
L 987.028812 692.880246 
L 987.055956 692.428976 
L 987.13713 693.79532 
L 987.236653 692.428976 
L 987.20602 694.259125 
L 987.247 693.79532 
L 987.266957 693.79532 
L 987.316285 691.965171 
L 987.335717 694.259125 
L 987.377061 693.79532 
L 987.386813 693.79532 
L 987.465636 694.259125 
L 987.496867 691.050096 
L 987.608256 693.79532 
L 987.665979 691.965171 
L 987.717278 693.79532 
L 987.735564 693.79532 
L 987.835695 692.428976 
L 987.845386 693.79532 
L 987.865027 693.79532 
L 987.966802 692.428976 
L 987.93668 694.259125 
L 987.976386 693.344051 
L 988.174971 692.880246 
L 988.24269 693.79532 
L 988.201805 692.428976 
L 988.281123 693.344051 
L 988.291285 692.428976 
L 988.300878 692.880246 
L 988.382169 601.32263 
L 988.430777 603.15278 
L 988.481023 597.662331 
L 988.451097 619.185391 
L 988.511858 618.270316 
L 988.522336 619.63666 
L 988.62281 693.79532 
L 988.642102 692.880246 
L 988.671916 692.428976 
L 988.75156 693.79532 
L 988.800671 691.965171 
L 988.860628 692.880246 
L 988.961165 694.259125 
L 988.890982 692.428976 
L 988.971582 692.880246 
L 988.982302 692.880246 
L 989.011962 692.428976 
L 989.092336 693.79532 
L 989.183511 692.428976 
L 989.194449 692.880246 
L 989.235047 692.428976 
L 989.304626 693.79532 
L 989.404529 692.428976 
L 989.414952 692.880246 
L 989.43491 693.79532 
L 989.44486 692.428976 
L 989.641709 693.79532 
L 989.658431 689.683752 
L 989.771148 738.684287 
L 989.991967 738.679712 
L 990.282528 738.682006 
L 990.563526 738.676051 
L 990.763071 738.682457 
L 990.913741 738.684287 
L 994.860124 738.679712 
L 995.125088 738.683372 
L 995.326146 738.676515 
L 995.335798 738.683836 
L 996.218182 738.683836 
L 996.218182 738.683836 
" style="fill:none;stroke:#1f77b4;stroke-linecap:square;stroke-width:1.5;"/>
   </g>
   <g id="patch_3">
    <path d="M 144 768.96 
L 144 103.68 
" style="fill:none;stroke:#000000;stroke-linecap:square;stroke-linejoin:miter;stroke-width:0.8;"/>
   </g>
   <g id="patch_4">
    <path d="M 1036.8 768.96 
L 1036.8 103.68 
" style="fill:none;stroke:#000000;stroke-linecap:square;stroke-linejoin:miter;stroke-width:0.8;"/>
   </g>
   <g id="patch_5">
    <path d="M 144 768.96 
L 1036.8 768.96 
" style="fill:none;stroke:#000000;stroke-linecap:square;stroke-linejoin:miter;stroke-width:0.8;"/>
   </g>
   <g id="patch_6">
    <path d="M 144 103.68 
L 1036.8 103.68 
" style="fill:none;stroke:#000000;stroke-linecap:square;stroke-linejoin:miter;stroke-width:0.8;"/>
   </g>
  </g>
 </g>
 <defs>
  <clipPath id="p07f878620f">
   <rect height="665.28" width="892.8" x="144" y="103.68"/>
  </clipPath>
 </defs>
</svg>
