<?xml version="1.0" encoding="utf-8" standalone="no"?>
<!DOCTYPE svg PUBLIC "-//W3C//DTD SVG 1.1//EN"
  "http://www.w3.org/Graphics/SVG/1.1/DTD/svg11.dtd">
<!-- Created with matplotlib (https://matplotlib.org/) -->
<svg height="864pt" version="1.1" viewBox="0 0 1152 864" width="1152pt" xmlns="http://www.w3.org/2000/svg" xmlns:xlink="http://www.w3.org/1999/xlink">
 <defs>
  <style type="text/css">
*{stroke-linecap:butt;stroke-linejoin:round;}
  </style>
 </defs>
 <g id="figure_1">
  <g id="patch_1">
   <path d="M 0 864 
L 1152 864 
L 1152 0 
L 0 0 
z
" style="fill:#ffffff;"/>
  </g>
  <g id="axes_1">
   <g id="patch_2">
    <path d="M 144 768.96 
L 1036.8 768.96 
L 1036.8 103.68 
L 144 103.68 
z
" style="fill:#ffffff;"/>
   </g>
   <g id="matplotlib.axis_1">
    <g id="xtick_1">
     <g id="line2d_1">
      <defs>
       <path d="M 0 0 
L 0 3.5 
" id="md43056adc7" style="stroke:#000000;stroke-width:0.8;"/>
      </defs>
      <g>
       <use style="stroke:#000000;stroke-width:0.8;" x="184.579856" xlink:href="#md43056adc7" y="768.96"/>
      </g>
     </g>
     <g id="text_1">
      <!-- 0 -->
      <defs>
       <path d="M 31.78125 66.40625 
Q 24.171875 66.40625 20.328125 58.90625 
Q 16.5 51.421875 16.5 36.375 
Q 16.5 21.390625 20.328125 13.890625 
Q 24.171875 6.390625 31.78125 6.390625 
Q 39.453125 6.390625 43.28125 13.890625 
Q 47.125 21.390625 47.125 36.375 
Q 47.125 51.421875 43.28125 58.90625 
Q 39.453125 66.40625 31.78125 66.40625 
z
M 31.78125 74.21875 
Q 44.046875 74.21875 50.515625 64.515625 
Q 56.984375 54.828125 56.984375 36.375 
Q 56.984375 17.96875 50.515625 8.265625 
Q 44.046875 -1.421875 31.78125 -1.421875 
Q 19.53125 -1.421875 13.0625 8.265625 
Q 6.59375 17.96875 6.59375 36.375 
Q 6.59375 54.828125 13.0625 64.515625 
Q 19.53125 74.21875 31.78125 74.21875 
z
" id="DejaVuSans-48"/>
      </defs>
      <g transform="translate(181.398606 783.558437)scale(0.1 -0.1)">
       <use xlink:href="#DejaVuSans-48"/>
      </g>
     </g>
    </g>
    <g id="xtick_2">
     <g id="line2d_2">
      <g>
       <use style="stroke:#000000;stroke-width:0.8;" x="347.061737" xlink:href="#md43056adc7" y="768.96"/>
      </g>
     </g>
     <g id="text_2">
      <!-- 20 -->
      <defs>
       <path d="M 19.1875 8.296875 
L 53.609375 8.296875 
L 53.609375 0 
L 7.328125 0 
L 7.328125 8.296875 
Q 12.9375 14.109375 22.625 23.890625 
Q 32.328125 33.6875 34.8125 36.53125 
Q 39.546875 41.84375 41.421875 45.53125 
Q 43.3125 49.21875 43.3125 52.78125 
Q 43.3125 58.59375 39.234375 62.25 
Q 35.15625 65.921875 28.609375 65.921875 
Q 23.96875 65.921875 18.8125 64.3125 
Q 13.671875 62.703125 7.8125 59.421875 
L 7.8125 69.390625 
Q 13.765625 71.78125 18.9375 73 
Q 24.125 74.21875 28.421875 74.21875 
Q 39.75 74.21875 46.484375 68.546875 
Q 53.21875 62.890625 53.21875 53.421875 
Q 53.21875 48.921875 51.53125 44.890625 
Q 49.859375 40.875 45.40625 35.40625 
Q 44.1875 33.984375 37.640625 27.21875 
Q 31.109375 20.453125 19.1875 8.296875 
z
" id="DejaVuSans-50"/>
      </defs>
      <g transform="translate(340.699237 783.558437)scale(0.1 -0.1)">
       <use xlink:href="#DejaVuSans-50"/>
       <use x="63.623047" xlink:href="#DejaVuSans-48"/>
      </g>
     </g>
    </g>
    <g id="xtick_3">
     <g id="line2d_3">
      <g>
       <use style="stroke:#000000;stroke-width:0.8;" x="509.543618" xlink:href="#md43056adc7" y="768.96"/>
      </g>
     </g>
     <g id="text_3">
      <!-- 40 -->
      <defs>
       <path d="M 37.796875 64.3125 
L 12.890625 25.390625 
L 37.796875 25.390625 
z
M 35.203125 72.90625 
L 47.609375 72.90625 
L 47.609375 25.390625 
L 58.015625 25.390625 
L 58.015625 17.1875 
L 47.609375 17.1875 
L 47.609375 0 
L 37.796875 0 
L 37.796875 17.1875 
L 4.890625 17.1875 
L 4.890625 26.703125 
z
" id="DejaVuSans-52"/>
      </defs>
      <g transform="translate(503.181118 783.558437)scale(0.1 -0.1)">
       <use xlink:href="#DejaVuSans-52"/>
       <use x="63.623047" xlink:href="#DejaVuSans-48"/>
      </g>
     </g>
    </g>
    <g id="xtick_4">
     <g id="line2d_4">
      <g>
       <use style="stroke:#000000;stroke-width:0.8;" x="672.0255" xlink:href="#md43056adc7" y="768.96"/>
      </g>
     </g>
     <g id="text_4">
      <!-- 60 -->
      <defs>
       <path d="M 33.015625 40.375 
Q 26.375 40.375 22.484375 35.828125 
Q 18.609375 31.296875 18.609375 23.390625 
Q 18.609375 15.53125 22.484375 10.953125 
Q 26.375 6.390625 33.015625 6.390625 
Q 39.65625 6.390625 43.53125 10.953125 
Q 47.40625 15.53125 47.40625 23.390625 
Q 47.40625 31.296875 43.53125 35.828125 
Q 39.65625 40.375 33.015625 40.375 
z
M 52.59375 71.296875 
L 52.59375 62.3125 
Q 48.875 64.0625 45.09375 64.984375 
Q 41.3125 65.921875 37.59375 65.921875 
Q 27.828125 65.921875 22.671875 59.328125 
Q 17.53125 52.734375 16.796875 39.40625 
Q 19.671875 43.65625 24.015625 45.921875 
Q 28.375 48.1875 33.59375 48.1875 
Q 44.578125 48.1875 50.953125 41.515625 
Q 57.328125 34.859375 57.328125 23.390625 
Q 57.328125 12.15625 50.6875 5.359375 
Q 44.046875 -1.421875 33.015625 -1.421875 
Q 20.359375 -1.421875 13.671875 8.265625 
Q 6.984375 17.96875 6.984375 36.375 
Q 6.984375 53.65625 15.1875 63.9375 
Q 23.390625 74.21875 37.203125 74.21875 
Q 40.921875 74.21875 44.703125 73.484375 
Q 48.484375 72.75 52.59375 71.296875 
z
" id="DejaVuSans-54"/>
      </defs>
      <g transform="translate(665.663 783.558437)scale(0.1 -0.1)">
       <use xlink:href="#DejaVuSans-54"/>
       <use x="63.623047" xlink:href="#DejaVuSans-48"/>
      </g>
     </g>
    </g>
    <g id="xtick_5">
     <g id="line2d_5">
      <g>
       <use style="stroke:#000000;stroke-width:0.8;" x="834.507381" xlink:href="#md43056adc7" y="768.96"/>
      </g>
     </g>
     <g id="text_5">
      <!-- 80 -->
      <defs>
       <path d="M 31.78125 34.625 
Q 24.75 34.625 20.71875 30.859375 
Q 16.703125 27.09375 16.703125 20.515625 
Q 16.703125 13.921875 20.71875 10.15625 
Q 24.75 6.390625 31.78125 6.390625 
Q 38.8125 6.390625 42.859375 10.171875 
Q 46.921875 13.96875 46.921875 20.515625 
Q 46.921875 27.09375 42.890625 30.859375 
Q 38.875 34.625 31.78125 34.625 
z
M 21.921875 38.8125 
Q 15.578125 40.375 12.03125 44.71875 
Q 8.5 49.078125 8.5 55.328125 
Q 8.5 64.0625 14.71875 69.140625 
Q 20.953125 74.21875 31.78125 74.21875 
Q 42.671875 74.21875 48.875 69.140625 
Q 55.078125 64.0625 55.078125 55.328125 
Q 55.078125 49.078125 51.53125 44.71875 
Q 48 40.375 41.703125 38.8125 
Q 48.828125 37.15625 52.796875 32.3125 
Q 56.78125 27.484375 56.78125 20.515625 
Q 56.78125 9.90625 50.3125 4.234375 
Q 43.84375 -1.421875 31.78125 -1.421875 
Q 19.734375 -1.421875 13.25 4.234375 
Q 6.78125 9.90625 6.78125 20.515625 
Q 6.78125 27.484375 10.78125 32.3125 
Q 14.796875 37.15625 21.921875 38.8125 
z
M 18.3125 54.390625 
Q 18.3125 48.734375 21.84375 45.5625 
Q 25.390625 42.390625 31.78125 42.390625 
Q 38.140625 42.390625 41.71875 45.5625 
Q 45.3125 48.734375 45.3125 54.390625 
Q 45.3125 60.0625 41.71875 63.234375 
Q 38.140625 66.40625 31.78125 66.40625 
Q 25.390625 66.40625 21.84375 63.234375 
Q 18.3125 60.0625 18.3125 54.390625 
z
" id="DejaVuSans-56"/>
      </defs>
      <g transform="translate(828.144881 783.558437)scale(0.1 -0.1)">
       <use xlink:href="#DejaVuSans-56"/>
       <use x="63.623047" xlink:href="#DejaVuSans-48"/>
      </g>
     </g>
    </g>
    <g id="xtick_6">
     <g id="line2d_6">
      <g>
       <use style="stroke:#000000;stroke-width:0.8;" x="996.989262" xlink:href="#md43056adc7" y="768.96"/>
      </g>
     </g>
     <g id="text_6">
      <!-- 100 -->
      <defs>
       <path d="M 12.40625 8.296875 
L 28.515625 8.296875 
L 28.515625 63.921875 
L 10.984375 60.40625 
L 10.984375 69.390625 
L 28.421875 72.90625 
L 38.28125 72.90625 
L 38.28125 8.296875 
L 54.390625 8.296875 
L 54.390625 0 
L 12.40625 0 
z
" id="DejaVuSans-49"/>
      </defs>
      <g transform="translate(987.445512 783.558437)scale(0.1 -0.1)">
       <use xlink:href="#DejaVuSans-49"/>
       <use x="63.623047" xlink:href="#DejaVuSans-48"/>
       <use x="127.246094" xlink:href="#DejaVuSans-48"/>
      </g>
     </g>
    </g>
   </g>
   <g id="matplotlib.axis_2">
    <g id="ytick_1">
     <g id="line2d_7">
      <defs>
       <path d="M 0 0 
L -3.5 0 
" id="m6eb709f55c" style="stroke:#000000;stroke-width:0.8;"/>
      </defs>
      <g>
       <use style="stroke:#000000;stroke-width:0.8;" x="144" xlink:href="#m6eb709f55c" y="739.090614"/>
      </g>
     </g>
     <g id="text_7">
      <!-- 0.0 -->
      <defs>
       <path d="M 10.6875 12.40625 
L 21 12.40625 
L 21 0 
L 10.6875 0 
z
" id="DejaVuSans-46"/>
      </defs>
      <g transform="translate(121.096875 742.889833)scale(0.1 -0.1)">
       <use xlink:href="#DejaVuSans-48"/>
       <use x="63.623047" xlink:href="#DejaVuSans-46"/>
       <use x="95.410156" xlink:href="#DejaVuSans-48"/>
      </g>
     </g>
    </g>
    <g id="ytick_2">
     <g id="line2d_8">
      <g>
       <use style="stroke:#000000;stroke-width:0.8;" x="144" xlink:href="#m6eb709f55c" y="608.817524"/>
      </g>
     </g>
     <g id="text_8">
      <!-- 0.1 -->
      <g transform="translate(121.096875 612.616742)scale(0.1 -0.1)">
       <use xlink:href="#DejaVuSans-48"/>
       <use x="63.623047" xlink:href="#DejaVuSans-46"/>
       <use x="95.410156" xlink:href="#DejaVuSans-49"/>
      </g>
     </g>
    </g>
    <g id="ytick_3">
     <g id="line2d_9">
      <g>
       <use style="stroke:#000000;stroke-width:0.8;" x="144" xlink:href="#m6eb709f55c" y="478.544433"/>
      </g>
     </g>
     <g id="text_9">
      <!-- 0.2 -->
      <g transform="translate(121.096875 482.343652)scale(0.1 -0.1)">
       <use xlink:href="#DejaVuSans-48"/>
       <use x="63.623047" xlink:href="#DejaVuSans-46"/>
       <use x="95.410156" xlink:href="#DejaVuSans-50"/>
      </g>
     </g>
    </g>
    <g id="ytick_4">
     <g id="line2d_10">
      <g>
       <use style="stroke:#000000;stroke-width:0.8;" x="144" xlink:href="#m6eb709f55c" y="348.271343"/>
      </g>
     </g>
     <g id="text_10">
      <!-- 0.3 -->
      <defs>
       <path d="M 40.578125 39.3125 
Q 47.65625 37.796875 51.625 33 
Q 55.609375 28.21875 55.609375 21.1875 
Q 55.609375 10.40625 48.1875 4.484375 
Q 40.765625 -1.421875 27.09375 -1.421875 
Q 22.515625 -1.421875 17.65625 -0.515625 
Q 12.796875 0.390625 7.625 2.203125 
L 7.625 11.71875 
Q 11.71875 9.328125 16.59375 8.109375 
Q 21.484375 6.890625 26.8125 6.890625 
Q 36.078125 6.890625 40.9375 10.546875 
Q 45.796875 14.203125 45.796875 21.1875 
Q 45.796875 27.640625 41.28125 31.265625 
Q 36.765625 34.90625 28.71875 34.90625 
L 20.21875 34.90625 
L 20.21875 43.015625 
L 29.109375 43.015625 
Q 36.375 43.015625 40.234375 45.921875 
Q 44.09375 48.828125 44.09375 54.296875 
Q 44.09375 59.90625 40.109375 62.90625 
Q 36.140625 65.921875 28.71875 65.921875 
Q 24.65625 65.921875 20.015625 65.03125 
Q 15.375 64.15625 9.8125 62.3125 
L 9.8125 71.09375 
Q 15.4375 72.65625 20.34375 73.4375 
Q 25.25 74.21875 29.59375 74.21875 
Q 40.828125 74.21875 47.359375 69.109375 
Q 53.90625 64.015625 53.90625 55.328125 
Q 53.90625 49.265625 50.4375 45.09375 
Q 46.96875 40.921875 40.578125 39.3125 
z
" id="DejaVuSans-51"/>
      </defs>
      <g transform="translate(121.096875 352.070562)scale(0.1 -0.1)">
       <use xlink:href="#DejaVuSans-48"/>
       <use x="63.623047" xlink:href="#DejaVuSans-46"/>
       <use x="95.410156" xlink:href="#DejaVuSans-51"/>
      </g>
     </g>
    </g>
    <g id="ytick_5">
     <g id="line2d_11">
      <g>
       <use style="stroke:#000000;stroke-width:0.8;" x="144" xlink:href="#m6eb709f55c" y="217.998253"/>
      </g>
     </g>
     <g id="text_11">
      <!-- 0.4 -->
      <g transform="translate(121.096875 221.797471)scale(0.1 -0.1)">
       <use xlink:href="#DejaVuSans-48"/>
       <use x="63.623047" xlink:href="#DejaVuSans-46"/>
       <use x="95.410156" xlink:href="#DejaVuSans-52"/>
      </g>
     </g>
    </g>
   </g>
   <g id="line2d_12">
    <path clip-path="url(#p1194cd3cf3)" d="M 184.581818 738.63626 
L 184.619346 738.621514 
L 184.687453 738.63626 
L 184.835899 738.622934 
L 184.977199 738.63626 
L 185.12833 738.629121 
L 186.254394 738.631505 
L 186.495359 738.633407 
L 187.083701 738.635778 
L 187.25117 738.629604 
L 187.482043 738.63626 
L 187.641782 738.634827 
L 190.143004 738.626269 
L 190.314452 738.635778 
L 190.57491 738.631023 
L 190.816711 738.634358 
L 190.988016 738.636742 
L 191.17843 738.626751 
L 191.292322 738.635778 
L 195.193096 738.633876 
L 195.64464 738.634827 
L 195.702841 738.63626 
L 205.273922 738.635778 
L 206.353296 738.632925 
L 207.821979 738.627702 
L 208.121362 738.628653 
L 208.423407 738.629121 
L 208.617788 738.635778 
L 354.520362 738.632925 
L 354.90754 687.710907 
L 355.017504 688.661901 
L 355.079982 687.710907 
L 355.118352 688.17989 
L 355.217188 689.130884 
L 355.227146 688.661901 
L 355.268868 689.130884 
L 355.29829 687.710907 
L 355.308286 690.563888 
L 355.410144 689.130884 
L 355.528357 687.710907 
L 355.61824 689.130884 
L 355.639349 687.710907 
L 355.748517 688.661901 
L 355.758939 687.710907 
L 355.858798 688.17989 
L 355.868965 688.17989 
L 355.908387 687.228897 
L 355.968723 688.661901 
L 356.06992 687.228897 
L 356.110466 688.661901 
L 356.303683 687.710907 
L 356.422394 688.661901 
L 356.462889 687.710907 
L 356.533231 688.17989 
L 356.57511 687.710907 
L 356.643046 688.661901 
L 356.663387 688.17989 
L 356.73327 689.612894 
L 356.753315 688.661901 
L 356.782753 687.710907 
L 356.874366 691.032871 
L 356.883929 691.032871 
L 356.973669 683.424922 
L 357.034243 687.228897 
L 357.044129 647.743123 
L 357.144923 683.906933 
L 357.204563 684.857926 
L 357.233884 683.424922 
L 357.355474 684.857926 
L 357.454635 682.955939 
L 357.465321 684.375916 
L 357.484518 684.375916 
L 357.585171 683.424922 
L 357.798906 683.906933 
L 357.898081 684.375916 
L 357.829515 682.955939 
L 357.907976 683.906933 
L 357.998737 683.424922 
L 357.928155 684.857926 
L 358.009125 684.375916 
L 358.038245 684.375916 
L 358.087222 682.955939 
L 358.057332 685.32691 
L 358.147856 684.375916 
L 358.228712 684.857926 
L 358.218686 683.424922 
L 358.248459 683.906933 
L 358.2586 683.906933 
L 358.358351 684.857926 
L 358.348823 683.424922 
L 358.36844 684.375916 
L 358.388079 683.424922 
L 358.477703 683.906933 
L 358.517522 682.955939 
L 358.577294 684.857926 
L 358.648124 683.424922 
L 358.689104 683.906933 
L 358.778317 683.424922 
L 358.798219 684.857926 
L 358.828423 685.32691 
L 358.910524 683.906933 
L 359.010406 685.32691 
L 358.999488 683.424922 
L 359.020277 684.857926 
L 359.029861 683.906933 
L 359.049914 684.857926 
L 359.24131 683.906933 
L 359.270765 684.857926 
L 359.281161 683.906933 
L 359.331573 672.963993 
L 359.393148 677.236951 
L 359.401365 677.236951 
L 359.462264 672.963993 
L 359.511753 675.334963 
L 359.552833 672.481983 
L 359.630214 677.236951 
L 359.640292 672.963993 
L 359.740921 676.767967 
L 359.760821 676.767967 
L 359.770953 672.963993 
L 359.860856 675.816974 
L 359.880594 677.236951 
L 359.90099 672.481983 
L 359.970061 676.767967 
L 360.030849 672.481983 
L 360.049917 677.718961 
L 360.08009 675.334963 
L 360.140259 677.236951 
L 360.160824 672.963993 
L 360.18982 676.767967 
L 360.281791 672.963993 
L 360.261705 677.236951 
L 360.291921 676.767967 
L 360.311608 676.767967 
L 360.371965 672.963993 
L 360.341516 677.236951 
L 360.420815 675.816974 
L 360.481138 677.236951 
L 360.500936 672.963993 
L 360.522736 676.767967 
L 360.725746 676.767967 
L 360.745915 672.481983 
L 360.845116 676.285957 
L 360.866565 676.285957 
L 360.875824 672.481983 
L 360.935272 676.767967 
L 360.975293 676.285957 
L 360.985466 676.285957 
L 360.997037 676.767967 
L 361.005753 672.481983 
L 361.104998 676.285957 
L 361.146873 676.767967 
L 361.125717 673.432976 
L 361.16717 676.285957 
L 361.256118 672.481983 
L 361.186272 676.767967 
L 361.267309 676.285957 
L 361.296989 673.914987 
L 361.337178 676.767967 
L 361.388296 672.481983 
L 361.447657 676.285957 
L 361.456823 676.285957 
L 361.479541 673.432976 
L 361.497888 676.767967 
L 361.507824 676.285957 
L 361.616961 684.375916 
L 361.626944 683.906933 
L 361.638275 683.906933 
L 361.726764 682.955939 
L 361.746604 683.906933 
L 361.788006 683.906933 
L 361.798214 684.375916 
L 361.857759 682.473929 
L 361.888049 683.906933 
L 361.938161 682.473929 
L 361.998227 683.906933 
L 362.221968 683.906933 
L 362.272102 682.473929 
L 362.322052 684.375916 
L 362.332013 684.375916 
L 362.443438 682.955939 
L 362.552533 684.375916 
L 362.661868 682.955939 
L 362.672271 683.906933 
L 362.699196 683.906933 
L 362.793109 671.530989 
L 362.813491 673.432976 
L 362.822546 673.432976 
L 362.833191 672.013 
L 362.84312 673.914987 
L 362.932734 673.432976 
L 363.034784 673.914987 
L 363.13379 671.062006 
L 363.14351 673.432976 
L 363.235009 673.914987 
L 363.214677 672.013 
L 363.248432 673.432976 
L 363.347248 672.013 
L 363.334586 674.38397 
L 363.355732 673.914987 
L 363.375456 673.914987 
L 363.448242 672.013 
L 363.46377 672.963993 
L 363.666571 673.432976 
L 363.686865 673.914987 
L 363.768332 671.530989 
L 363.807979 671.062006 
L 363.907094 678.187944 
L 363.916951 678.187944 
L 364.027312 677.236951 
L 364.127145 678.187944 
L 364.067352 676.767967 
L 364.137338 677.718961 
L 364.158551 678.187944 
L 364.237409 676.767967 
L 364.347336 678.187944 
L 364.408847 676.767967 
L 364.458199 677.718961 
L 364.509312 678.187944 
L 364.489393 676.767967 
L 364.559833 677.718961 
L 364.569747 677.718961 
L 364.65938 677.236951 
L 364.609216 678.187944 
L 364.679123 677.718961 
L 364.700157 677.718961 
L 364.749597 676.767967 
L 364.720148 678.187944 
L 364.79968 677.718961 
L 364.850846 678.669955 
L 364.880363 676.767967 
L 364.911091 678.187944 
L 364.921145 676.767967 
L 364.940887 677.718961 
L 365.142463 677.236951 
L 365.243256 678.187944 
L 365.174427 676.767967 
L 365.253093 677.236951 
L 365.272784 678.187944 
L 365.343366 676.767967 
L 365.442723 678.187944 
L 365.453018 677.718961 
L 365.463599 677.718961 
L 365.473412 676.767967 
L 365.483079 678.187944 
L 365.563419 677.236951 
L 365.653874 678.669955 
L 365.643884 676.767967 
L 365.673056 678.187944 
L 365.682524 678.187944 
L 365.775328 676.767967 
L 365.785059 678.187944 
L 365.794901 678.187944 
L 365.814977 676.767967 
L 365.825502 678.669955 
L 365.905409 677.236951 
L 366.024433 678.187944 
L 366.115558 672.963993 
L 366.136574 677.236951 
L 366.154917 673.914987 
L 366.255883 676.285957 
L 366.306734 677.236951 
L 366.286024 672.963993 
L 366.36607 676.285957 
L 366.385995 676.767967 
L 366.416147 672.963993 
L 366.664811 676.767967 
L 366.674569 676.285957 
L 366.724722 672.963993 
L 366.704263 676.767967 
L 366.775209 676.285957 
L 366.814065 673.432976 
L 366.844274 676.767967 
L 366.855386 672.481983 
L 366.924781 677.236951 
L 366.954464 676.767967 
L 366.964569 676.767967 
L 366.995033 677.236951 
L 366.984597 672.963993 
L 367.015228 676.767967 
L 367.064709 673.432976 
L 367.125819 676.767967 
L 367.135097 677.236951 
L 367.155127 674.38397 
L 367.184504 676.767967 
L 367.194609 672.963993 
L 367.206089 677.236951 
L 367.285453 674.86598 
L 367.305059 677.236951 
L 367.325891 672.963993 
L 367.395466 676.767967 
L 367.495828 672.963993 
L 367.506084 676.767967 
L 367.525759 676.767967 
L 367.625668 672.963993 
L 367.566144 677.236951 
L 367.636103 676.767967 
L 367.645882 676.767967 
L 367.758054 672.481983 
L 367.806287 677.236951 
L 367.867067 676.767967 
L 367.877096 675.334963 
L 367.888235 675.816974 
L 368.084974 672.481983 
L 368.190903 676.767967 
L 368.201732 675.816974 
L 368.253164 672.481983 
L 368.221723 676.767967 
L 368.310964 676.285957 
L 368.321266 676.285957 
L 368.441838 655.833082 
L 368.471158 653.931095 
L 368.54144 655.351071 
L 368.573331 657.253059 
L 368.600009 654.882088 
L 368.651035 655.833082 
L 368.671175 656.302065 
L 368.68118 655.351071 
L 368.722053 692.465875 
L 368.772812 654.400078 
L 368.79254 655.833082 
L 368.831765 652.498091 
L 368.842224 658.217079 
L 368.851961 654.400078 
L 368.862742 675.816974 
L 368.931252 641.555151 
L 368.972725 306.141025 
L 369.043474 610.159336 
L 369.053499 611.11033 
L 369.063188 609.677326 
L 369.07283 158.189877 
L 369.103261 612.061324 
L 369.17284 607.306356 
L 369.181935 607.306356 
L 369.203313 610.62832 
L 369.271166 615.396315 
L 369.231577 605.873352 
L 369.30095 607.306356 
L 369.33137 605.404369 
L 369.351789 607.775339 
L 369.554867 611.11033 
L 369.684411 599.216397 
L 369.734177 607.775339 
L 369.802008 606.824345 
L 369.862449 607.775339 
L 369.842893 605.873352 
L 369.900478 606.824345 
L 369.93146 605.404369 
L 369.951137 552.109647 
L 369.962021 576.861535 
L 369.97437 323.753947 
L 369.984574 615.865298 
L 370.062487 613.494328 
L 370.073166 615.396315 
L 370.103014 613.494328 
L 370.113105 136.772981 
L 370.183102 615.396315 
L 370.213301 587.804474 
L 370.243302 561.63261 
L 370.272761 589.706461 
L 370.283009 159.14087 
L 370.375105 610.62832 
L 370.484466 605.873352 
L 370.495561 606.824345 
L 370.515566 607.775339 
L 370.564657 605.404369 
L 370.595032 606.355362 
L 370.627387 606.824345 
L 370.715864 596.363416 
L 370.725349 608.257349 
L 370.826165 605.404369 
L 371.136653 692.465875 
L 371.146609 691.983864 
L 371.156482 691.983864 
L 371.207842 690.563888 
L 371.218117 692.947885 
L 371.258628 691.514881 
L 371.347787 692.947885 
L 371.337982 690.563888 
L 371.367755 692.465875 
L 371.377261 691.032871 
L 371.476704 691.514881 
L 371.506713 690.563888 
L 371.578693 692.465875 
L 371.679307 677.718961 
L 371.79975 365.610691 
L 371.819491 390.362578 
L 371.839805 608.726332 
L 371.940234 606.824345 
L 371.96075 606.824345 
L 371.990288 607.306356 
L 372.060881 605.873352 
L 372.130747 610.62832 
L 372.171279 607.306356 
L 372.219474 607.775339 
L 372.232811 605.873352 
L 372.240133 569.722569 
L 372.260804 692.465875 
L 372.30031 692.465875 
L 372.493575 691.983864 
L 372.59237 692.947885 
L 372.523501 691.032871 
L 372.602386 692.465875 
L 372.702524 691.514881 
L 372.742134 691.032871 
L 372.821777 692.465875 
L 372.913388 691.032871 
L 372.923406 692.465875 
L 372.933155 692.465875 
L 373.023457 692.947885 
L 373.045162 691.032871 
L 373.162709 692.465875 
L 373.212957 690.563888 
L 373.181948 692.947885 
L 373.27311 692.465875 
L 373.384306 691.032871 
L 373.394568 691.514881 
L 373.494965 692.465875 
L 373.424274 691.032871 
L 373.504843 691.514881 
L 373.516809 690.563888 
L 373.524921 692.465875 
L 373.604686 691.514881 
L 373.684852 691.032871 
L 373.715845 692.465875 
L 373.767087 691.032871 
L 373.776857 691.983864 
L 373.969086 691.983864 
L 374.047524 692.947885 
L 374.067054 691.032871 
L 374.168623 692.465875 
L 374.2496 598.265403 
L 374.288467 606.824345 
L 374.318579 605.873352 
L 374.398564 607.306356 
L 374.492877 605.404369 
L 374.428932 607.775339 
L 374.507953 606.824345 
L 374.559469 610.159336 
L 374.538397 605.404369 
L 374.608772 607.775339 
L 374.709371 605.404369 
L 374.719559 606.824345 
L 374.769193 610.62832 
L 374.749186 605.873352 
L 374.820584 607.306356 
L 374.921393 605.404369 
L 374.849744 607.775339 
L 374.930745 607.306356 
L 374.940823 607.306356 
L 374.961209 605.873352 
L 374.97077 607.775339 
L 375.021897 606.824345 
L 375.072149 615.396315 
L 375.152293 692.465875 
L 375.19141 691.983864 
L 375.201381 692.465875 
L 375.2123 691.032871 
L 375.241642 691.983864 
L 375.435222 691.514881 
L 375.467245 690.563888 
L 375.543095 692.465875 
L 375.643924 691.032871 
L 375.653342 692.465875 
L 375.674015 692.465875 
L 375.773279 691.032871 
L 375.783136 692.947885 
L 375.884554 692.465875 
L 375.984296 691.032871 
L 375.995095 691.983864 
L 376.024823 691.032871 
L 376.103863 692.465875 
L 376.115642 691.032871 
L 376.204268 691.514881 
L 376.255242 692.947885 
L 376.244242 691.032871 
L 376.315032 691.983864 
L 376.414604 690.563888 
L 376.335689 692.465875 
L 376.425113 691.983864 
L 376.455928 690.563888 
L 376.534785 692.465875 
L 376.635238 691.032871 
L 376.645823 691.983864 
L 376.654904 692.465875 
L 376.666345 691.032871 
L 376.686086 607.775339 
L 376.715681 613.494328 
L 377.020312 692.465875 
L 377.029861 692.465875 
L 377.083476 691.514881 
L 377.130661 462.677171 
L 377.190722 153.903892 
L 377.160434 616.347308 
L 377.232432 606.824345 
L 377.301158 605.873352 
L 377.330462 607.775339 
L 377.431223 605.873352 
L 377.442029 606.824345 
L 377.541995 615.396315 
L 377.511877 605.404369 
L 377.56401 613.963311 
L 377.581791 615.396315 
L 377.641082 516.909858 
L 377.760952 692.465875 
L 377.810903 691.032871 
L 377.870733 691.514881 
L 377.902522 690.563888 
L 377.981162 692.465875 
L 378.03085 691.032871 
L 378.090692 692.465875 
L 378.111289 692.465875 
L 378.161266 691.032871 
L 378.141707 692.947885 
L 378.191521 691.983864 
L 378.383791 691.983864 
L 378.442863 692.465875 
L 378.462657 690.563888 
L 378.492706 691.983864 
L 378.592685 691.032871 
L 378.523343 692.465875 
L 378.60272 691.983864 
L 378.672713 691.032871 
L 378.712401 692.465875 
L 378.723112 690.563888 
L 378.814361 691.514881 
L 378.845664 691.032871 
L 378.924643 692.465875 
L 378.934688 690.563888 
L 379.032745 692.465875 
L 379.053464 692.465875 
L 379.153383 691.032871 
L 379.162744 692.465875 
L 379.273851 474.089094 
L 379.284235 614.445321 
L 379.355003 135.821987 
L 379.384272 583.987473 
L 379.453645 588.273457 
L 379.443763 582.567496 
L 379.483836 583.036479 
L 379.524616 584.469483 
L 379.573975 582.085485 
L 379.655706 585.88946 
L 379.665826 584.938466 
L 379.962774 669.146992 
L 379.97334 668.678009 
L 380.013909 667.245005 
L 380.085196 669.146992 
L 380.184421 667.727015 
L 380.193916 668.678009 
L 380.235249 667.727015 
L 380.305672 669.146992 
L 380.402946 667.727015 
L 380.414018 668.678009 
L 380.444546 667.245005 
L 380.523852 669.146992 
L 380.533893 667.245005 
L 380.634327 669.146992 
L 380.653171 669.146992 
L 380.6633 667.245005 
L 380.75402 667.727015 
L 380.864319 669.146992 
L 380.955275 667.727015 
L 380.975311 669.146992 
L 381.084626 667.245005 
L 381.126029 669.146992 
L 381.135925 667.727015 
L 381.33111 667.727015 
L 381.451429 669.146992 
L 381.501495 667.727015 
L 381.560536 668.678009 
L 381.590251 667.727015 
L 381.659698 669.629002 
L 381.781467 460.293173 
L 381.871691 588.755468 
L 381.901739 587.804474 
L 382.021056 585.88946 
L 382.090162 588.273457 
L 382.141404 587.322464 
L 382.161726 589.706461 
L 382.211155 568.289565 
L 382.301203 672.963993 
L 382.322621 672.013 
L 382.362712 671.530989 
L 382.43256 672.963993 
L 382.451699 672.013 
L 382.48193 673.914987 
L 382.531925 672.481983 
L 382.602247 673.914987 
L 382.795456 672.481983 
L 382.884768 673.432976 
L 382.825479 671.530989 
L 382.903837 672.963993 
L 382.91427 671.062006 
L 382.983364 673.432976 
L 383.011899 672.963993 
L 383.026937 672.963993 
L 383.034377 673.432976 
L 383.043951 671.530989 
L 383.123643 672.963993 
L 383.21439 671.530989 
L 383.163301 673.432976 
L 383.224764 672.963993 
L 383.244753 672.963993 
L 383.274708 673.432976 
L 383.304357 659.168073 
L 383.324528 570.673563 
L 383.424794 587.322464 
L 383.525783 589.224451 
L 383.515248 586.840453 
L 383.535336 588.273457 
L 383.545331 588.273457 
L 383.595877 585.88946 
L 383.656598 587.322464 
L 383.685408 585.88946 
L 383.736113 588.273457 
L 383.787208 673.432976 
L 383.847433 672.013 
L 383.877167 673.432976 
L 383.937004 671.530989 
L 383.96767 672.963993 
L 384.067275 671.530989 
L 384.056709 673.432976 
L 384.077595 672.963993 
L 384.272447 673.432976 
L 384.292325 674.38397 
L 384.312041 671.062006 
L 384.342331 673.432976 
L 384.441845 671.530989 
L 384.371424 674.38397 
L 384.452086 672.963993 
L 384.52229 671.062006 
L 384.561519 673.432976 
L 384.6532 671.530989 
L 384.672706 672.963993 
L 384.704195 673.432976 
L 384.790534 671.530989 
L 384.85087 673.432976 
L 384.902061 672.481983 
L 384.91216 671.530989 
L 384.922358 672.963993 
L 384.942458 672.963993 
L 384.952136 653.931095 
L 384.991973 673.432976 
L 385.050756 672.481983 
L 385.092078 672.013 
L 385.161566 674.38397 
L 385.171432 672.013 
L 385.270904 673.432976 
L 385.290988 673.914987 
L 385.311076 672.013 
L 385.341551 672.963993 
L 385.35131 663.923041 
L 385.381162 673.432976 
L 385.451083 672.963993 
L 385.501951 673.432976 
L 385.480823 671.530989 
L 385.542933 672.481983 
L 385.740122 672.963993 
L 385.790101 671.530989 
L 385.850299 672.963993 
L 385.860501 672.963993 
L 385.87011 671.530989 
L 385.940634 674.38397 
L 385.960635 672.481983 
L 386.020931 673.914987 
L 386.069978 673.432976 
L 386.079772 673.432976 
L 386.179878 671.530989 
L 386.10993 674.38397 
L 386.200042 672.963993 
L 386.310395 671.530989 
L 386.399716 673.432976 
L 386.42927 672.963993 
L 386.479077 671.530989 
L 386.459994 673.432976 
L 386.541473 672.481983 
L 386.549963 673.432976 
L 386.570049 664.392024 
L 386.64926 672.963993 
L 386.670945 587.322464 
L 386.761313 595.881406 
L 386.841223 674.38397 
L 386.880692 673.914987 
L 386.949891 674.38397 
L 387.000362 672.013 
L 387.010101 673.432976 
L 387.022809 672.963993 
L 387.234346 672.963993 
L 387.28445 671.530989 
L 387.30417 673.432976 
L 387.334144 672.013 
L 387.364665 672.963993 
L 387.374886 671.062006 
L 387.384801 662.490037 
L 387.404577 673.432976 
L 387.474262 672.963993 
L 387.506896 671.530989 
L 387.583587 673.432976 
L 387.595324 671.530989 
L 387.666241 674.38397 
L 387.685793 674.38397 
L 387.795813 672.481983 
L 387.806534 673.914987 
L 387.830323 673.914987 
L 387.925605 671.530989 
L 387.94565 672.481983 
L 387.95553 672.481983 
L 387.976451 672.963993 
L 388.056697 671.530989 
L 388.107154 673.432976 
L 388.166674 672.963993 
L 388.176426 672.963993 
L 388.26623 671.530989 
L 388.27626 672.963993 
L 388.307425 673.432976 
L 388.317458 671.530989 
L 388.345987 672.963993 
L 388.436934 671.530989 
L 388.447243 672.481983 
L 388.478352 672.013 
L 388.488203 673.914987 
L 388.680779 673.914987 
L 388.779648 671.530989 
L 388.700361 674.38397 
L 388.791756 672.963993 
L 388.800629 672.963993 
L 388.810282 673.432976 
L 388.819489 671.530989 
L 388.892141 672.963993 
L 388.989476 671.530989 
L 388.999682 672.963993 
L 389.03051 672.963993 
L 389.112837 673.432976 
L 389.15003 650.596104 
L 389.219355 578.281511 
L 389.261846 595.412423 
L 389.389902 673.914987 
L 389.399676 674.38397 
L 389.47043 672.481983 
L 389.490408 673.432976 
L 389.500437 673.432976 
L 389.599723 672.013 
L 389.539145 674.38397 
L 389.608962 672.963993 
L 389.630119 672.963993 
L 389.728758 671.530989 
L 389.710095 673.432976 
L 389.739267 672.963993 
L 389.769646 672.963993 
L 389.819735 663.44103 
L 389.879422 672.963993 
L 389.88969 672.963993 
L 389.949376 671.530989 
L 389.929449 673.432976 
L 389.960711 672.481983 
L 390.158966 672.963993 
L 390.168696 671.530989 
L 390.228278 674.38397 
L 390.258006 672.963993 
L 390.346773 672.013 
L 390.377168 673.914987 
L 390.477398 671.530989 
L 390.408219 674.38397 
L 390.488545 672.963993 
L 390.507919 672.963993 
L 390.598432 671.530989 
L 390.537809 673.432976 
L 390.618407 672.963993 
L 390.628681 672.963993 
L 390.689299 671.062006 
L 390.669465 673.432976 
L 390.728189 672.013 
L 390.838255 673.432976 
L 390.818841 671.530989 
L 390.848906 672.963993 
L 390.947971 671.530989 
L 390.929218 673.432976 
L 390.957892 672.963993 
L 390.978561 672.963993 
L 390.988534 671.530989 
L 391.058845 673.914987 
L 391.078172 672.481983 
L 391.139749 674.38397 
L 391.200439 673.914987 
L 391.208097 672.013 
L 391.238484 674.38397 
L 391.307881 672.963993 
L 391.317939 673.432976 
L 391.378271 671.530989 
L 391.408642 672.963993 
L 391.419442 672.963993 
L 391.429541 672.013 
L 391.639383 672.963993 
L 391.718726 579.232505 
L 391.748603 673.432976 
L 391.77818 671.062006 
L 391.859338 671.530989 
L 391.959328 674.38397 
L 391.979927 673.432976 
L 391.989153 672.013 
L 392.000573 673.914987 
L 392.089128 673.432976 
L 392.128891 673.914987 
L 392.160684 672.481983 
L 392.189504 673.432976 
L 392.28053 671.530989 
L 392.290592 672.481983 
L 392.324326 671.530989 
L 392.400895 673.432976 
L 392.50018 671.530989 
L 392.490176 673.914987 
L 392.510064 672.963993 
L 392.530178 672.963993 
L 392.632091 671.530989 
L 392.732957 673.432976 
L 392.742423 672.481983 
L 392.765101 672.013 
L 392.879486 673.914987 
L 392.889245 672.481983 
L 392.89947 672.963993 
L 393.114894 672.963993 
L 393.125849 673.432976 
L 393.134368 671.530989 
L 393.204423 672.481983 
L 393.264235 671.530989 
L 393.234902 672.963993 
L 393.303522 672.013 
L 393.414137 673.432976 
L 393.354061 671.530989 
L 393.424017 672.963993 
L 393.525127 671.530989 
L 393.50475 673.432976 
L 393.534872 672.963993 
L 393.565686 671.530989 
L 393.635656 673.914987 
L 393.736057 672.013 
L 393.665777 674.38397 
L 393.746048 673.914987 
L 393.765111 673.914987 
L 393.864112 672.481983 
L 393.845668 674.86598 
L 393.876537 673.432976 
L 393.885627 673.432976 
L 393.905167 671.530989 
L 393.99727 672.481983 
L 394.037539 671.530989 
L 394.106478 672.963993 
L 394.126177 672.013 
L 394.136617 673.432976 
L 394.216276 577.812528 
L 394.245651 594.930412 
L 394.28531 673.432976 
L 394.367591 672.963993 
L 394.570613 673.914987 
L 394.629896 672.013 
L 394.610196 674.38397 
L 394.68009 673.914987 
L 394.699554 674.38397 
L 394.730683 672.013 
L 394.750513 477.424085 
L 394.760603 169.132816 
L 394.780574 607.306356 
L 394.849694 606.355362 
L 394.880057 605.873352 
L 394.920191 607.306356 
L 394.930625 604.922358 
L 394.991342 606.824345 
L 395.003494 615.865298 
L 395.041822 605.404369 
L 395.101984 606.824345 
L 395.111316 607.306356 
L 395.131791 606.355362 
L 395.165081 606.824345 
L 395.172817 525.4688 
L 395.203127 692.465875 
L 395.262007 691.032871 
L 395.372029 692.465875 
L 395.353522 690.563888 
L 395.382146 691.983864 
L 395.433223 690.563888 
L 395.412314 692.465875 
L 395.492175 691.514881 
L 395.584298 692.465875 
L 395.52274 691.032871 
L 395.594163 691.983864 
L 395.653429 690.081877 
L 395.633242 692.465875 
L 395.704357 691.514881 
L 395.732855 691.032871 
L 395.81483 692.465875 
L 395.824503 691.032871 
L 395.842888 691.983864 
L 396.034389 691.032871 
L 396.043458 691.514881 
L 396.072861 691.032871 
L 396.143871 692.465875 
L 396.153544 690.563888 
L 396.256079 691.514881 
L 396.286237 691.032871 
L 396.366457 692.465875 
L 396.456757 691.032871 
L 396.476828 691.983864 
L 396.486474 691.983864 
L 396.586977 691.032871 
L 396.516274 692.465875 
L 396.596381 691.514881 
L 396.606529 691.514881 
L 396.617548 692.465875 
L 396.626977 691.032871 
L 396.726353 508.819899 
L 396.767994 606.355362 
L 396.779712 607.775339 
L 396.80631 605.404369 
L 396.87746 606.824345 
L 396.926416 605.404369 
L 396.906953 607.306356 
L 396.987636 605.873352 
L 397.087592 611.11033 
L 397.100564 607.306356 
L 397.107732 605.873352 
L 397.126993 607.775339 
L 397.137288 607.775339 
L 397.146785 495.023979 
L 397.176673 692.465875 
L 397.23765 691.032871 
L 397.249293 691.032871 
L 397.30871 692.465875 
L 397.500734 691.032871 
L 397.590347 692.465875 
L 397.539122 686.277903 
L 397.608157 691.983864 
L 397.657725 690.081877 
L 397.678531 692.465875 
L 397.708467 691.514881 
L 397.807787 692.465875 
L 397.761506 691.032871 
L 397.817995 691.983864 
L 397.827749 691.983864 
L 397.837877 690.081877 
L 397.84816 692.465875 
L 397.928915 691.514881 
L 397.969397 691.032871 
L 398.038656 692.465875 
L 398.048536 690.563888 
L 398.149718 691.514881 
L 398.230589 690.563888 
L 398.259033 692.465875 
L 398.308731 691.032871 
L 398.369167 692.465875 
L 398.438503 690.563888 
L 398.488232 691.514881 
L 398.519256 691.032871 
L 398.600675 692.465875 
L 398.630074 692.947885 
L 398.700766 691.032871 
L 398.72902 692.465875 
L 398.779733 690.563888 
L 398.972995 691.983864 
L 399.072776 691.032871 
L 399.002916 692.465875 
L 399.081808 691.514881 
L 399.103021 692.465875 
L 399.122042 690.563888 
L 399.202872 595.881406 
L 399.222522 692.465875 
L 399.232896 692.465875 
L 399.25184 690.081877 
L 399.342473 691.983864 
L 399.402721 692.465875 
L 399.372637 691.514881 
L 399.412814 691.983864 
L 399.42223 690.081877 
L 399.452522 692.465875 
L 399.51319 691.514881 
L 399.553016 690.563888 
L 399.623202 692.465875 
L 399.682887 690.563888 
L 399.7331 692.465875 
L 399.84521 691.032871 
L 399.854937 691.514881 
L 399.955048 691.983864 
L 399.885355 691.032871 
L 399.965308 691.514881 
L 400.015993 690.563888 
L 399.988239 692.465875 
L 400.065391 691.514881 
L 400.10546 690.563888 
L 400.176089 692.465875 
L 400.22662 691.032871 
L 400.256718 692.465875 
L 400.449046 691.514881 
L 400.548259 692.465875 
L 400.479289 690.563888 
L 400.557894 691.983864 
L 400.567727 690.081877 
L 400.588211 692.465875 
L 400.658018 691.514881 
L 400.698122 690.563888 
L 400.768727 692.465875 
L 400.868415 690.563888 
L 400.878325 691.514881 
L 400.938957 692.947885 
L 400.908196 690.563888 
L 400.98823 691.983864 
L 401.079078 691.032871 
L 401.009484 692.465875 
L 401.089259 691.514881 
L 401.11938 691.032871 
L 401.19843 692.465875 
L 401.297284 691.032871 
L 401.307995 691.514881 
L 401.347627 690.563888 
L 401.418532 692.465875 
L 401.478594 691.032871 
L 401.459419 692.947885 
L 401.529247 692.465875 
L 401.539079 692.465875 
L 401.599035 685.32691 
L 401.620403 692.465875 
L 401.699744 597.783393 
L 401.729716 613.494328 
L 402.004249 601.600394 
L 402.125709 610.159336 
L 402.175335 605.873352 
L 402.235153 607.306356 
L 402.246204 607.775339 
L 402.359328 692.465875 
L 402.368845 691.983864 
L 402.378194 691.983864 
L 402.428274 691.032871 
L 402.408317 692.465875 
L 402.486478 691.514881 
L 402.537207 692.465875 
L 402.517861 690.563888 
L 402.58816 691.983864 
L 402.687881 690.563888 
L 402.658126 692.465875 
L 402.699007 691.514881 
L 402.728762 691.032871 
L 402.800248 692.465875 
L 402.869194 676.285957 
L 402.982547 738.634827 
L 403.132442 738.6258 
L 403.194215 738.635309 
L 403.203518 738.625318 
L 408.004545 738.631023 
L 408.123583 738.626269 
L 408.295862 738.634827 
L 627.419443 738.635309 
L 627.57972 716.735752 
L 627.678171 721.490719 
L 627.688396 721.490719 
L 627.698559 721.008709 
L 627.759416 687.710907 
L 627.819137 688.661901 
L 627.859741 689.130884 
L 627.939277 687.710907 
L 628.058711 689.130884 
L 628.06843 688.661901 
L 628.088224 688.661901 
L 628.191176 689.612894 
L 628.108742 688.17989 
L 628.201786 689.130884 
L 628.279159 687.710907 
L 628.241896 690.081877 
L 628.319577 688.661901 
L 628.330298 688.661901 
L 628.400287 687.710907 
L 628.430366 688.661901 
L 628.644041 687.710907 
L 628.754293 688.661901 
L 628.856228 687.710907 
L 628.865208 688.661901 
L 628.985424 687.710907 
L 629.096327 688.661901 
L 629.146528 687.710907 
L 629.216322 688.17989 
L 629.226869 688.17989 
L 629.276719 687.228897 
L 629.25675 688.661901 
L 629.326764 687.710907 
L 629.447222 688.661901 
L 629.546259 687.710907 
L 629.566894 688.17989 
L 629.647602 689.612894 
L 629.607069 687.710907 
L 629.677444 689.130884 
L 629.687594 687.228897 
L 629.766468 691.032871 
L 629.776536 691.032871 
L 629.837237 690.563888 
L 629.85705 691.032871 
L 629.867268 676.767967 
L 629.907655 687.228897 
L 630.201732 683.424922 
L 630.292466 684.857926 
L 630.315248 684.375916 
L 630.414297 683.424922 
L 630.332794 684.857926 
L 630.426319 684.375916 
L 630.432919 684.375916 
L 630.5341 682.955939 
L 630.50248 684.857926 
L 630.543882 684.375916 
L 630.563532 684.375916 
L 630.66458 682.955939 
L 630.674437 683.906933 
L 630.694821 683.906933 
L 630.763385 684.375916 
L 630.793669 682.955939 
L 630.813408 684.857926 
L 630.904337 684.375916 
L 630.924507 682.955939 
L 630.994726 684.857926 
L 631.01373 683.424922 
L 631.113933 684.857926 
L 631.133835 684.375916 
L 631.226504 683.424922 
L 631.204245 684.857926 
L 631.243824 683.906933 
L 631.274279 684.857926 
L 631.264449 683.424922 
L 631.344279 684.375916 
L 631.353958 682.955939 
L 631.386601 683.906933 
L 631.580853 684.375916 
L 631.639751 683.424922 
L 631.609285 685.32691 
L 631.688242 684.375916 
L 631.729354 683.424922 
L 631.798948 684.857926 
L 631.81785 683.424922 
L 631.906628 684.857926 
L 631.926398 684.857926 
L 632.027659 683.906933 
L 632.036997 684.857926 
L 632.046848 684.857926 
L 632.066835 682.955939 
L 632.167699 683.906933 
L 632.178752 684.857926 
L 632.187917 676.285957 
L 632.287115 673.432976 
L 632.257552 676.767967 
L 632.297668 676.285957 
L 632.348131 677.236951 
L 632.327293 672.481983 
L 632.357581 676.767967 
L 632.408112 672.481983 
L 632.428285 677.236951 
L 632.468676 676.767967 
L 632.537898 672.963993 
L 632.587805 673.432976 
L 632.627826 672.481983 
L 632.69793 676.767967 
L 632.75739 672.481983 
L 632.807936 676.285957 
L 632.828386 676.767967 
L 632.837984 673.432976 
L 632.848028 674.86598 
L 633.041722 673.432976 
L 633.131131 672.963993 
L 633.16151 676.767967 
L 633.171053 673.432976 
L 633.262219 675.334963 
L 633.355581 677.236951 
L 633.345468 672.963993 
L 633.375766 676.767967 
L 633.424499 672.963993 
L 633.445149 677.236951 
L 633.484877 676.767967 
L 633.504611 676.767967 
L 633.595966 672.963993 
L 633.605769 676.285957 
L 633.616033 677.236951 
L 633.637256 672.481983 
L 633.66705 676.767967 
L 633.677552 672.013 
L 633.778513 676.285957 
L 633.78995 676.285957 
L 633.889662 672.963993 
L 633.819155 676.767967 
L 633.899676 676.285957 
L 633.951384 676.767967 
L 633.93014 673.432976 
L 633.960538 676.285957 
L 634.010228 672.481983 
L 633.981393 676.767967 
L 634.061848 676.767967 
L 634.072388 677.236951 
L 634.082073 676.285957 
L 634.132668 672.481983 
L 634.113178 676.767967 
L 634.182135 675.816974 
L 634.243751 676.767967 
L 634.212405 673.914987 
L 634.253118 676.285957 
L 634.303746 672.481983 
L 634.294431 676.767967 
L 634.323551 676.285957 
L 634.560047 684.375916 
L 634.600221 683.906933 
L 634.639608 684.375916 
L 634.709998 682.473929 
L 634.810289 683.906933 
L 634.820464 683.424922 
L 634.830472 683.424922 
L 634.880971 682.473929 
L 634.849785 683.906933 
L 634.92321 682.955939 
L 634.972978 684.375916 
L 634.963338 682.473929 
L 635.030981 683.906933 
L 635.041084 683.906933 
L 635.141753 682.473929 
L 635.060756 684.375916 
L 635.15167 683.906933 
L 635.161556 683.906933 
L 635.181586 682.473929 
L 635.27189 682.955939 
L 635.330466 684.857926 
L 635.383385 683.906933 
L 635.39226 682.473929 
L 635.441468 684.375916 
L 635.482678 682.955939 
L 635.591391 684.375916 
L 635.612314 671.062006 
L 635.71205 673.432976 
L 635.772473 673.914987 
L 635.741556 671.062006 
L 635.793274 673.432976 
L 635.986715 671.530989 
L 636.058101 673.914987 
L 636.105134 673.432976 
L 636.196146 671.530989 
L 636.125096 673.914987 
L 636.206058 673.432976 
L 636.236673 672.013 
L 636.317792 673.914987 
L 636.367571 671.062006 
L 636.427136 673.432976 
L 636.43706 673.432976 
L 636.527021 673.914987 
L 636.537806 671.530989 
L 636.637799 673.914987 
L 636.619473 671.062006 
L 636.657689 673.432976 
L 636.708605 671.062006 
L 636.678831 673.914987 
L 636.769181 672.963993 
L 636.947826 678.187944 
L 636.958017 677.236951 
L 637.048427 676.767967 
L 636.979631 678.187944 
L 637.058602 677.718961 
L 637.109744 678.669955 
L 637.090205 677.236951 
L 637.169636 678.187944 
L 637.229271 676.767967 
L 637.268292 677.236951 
L 637.463148 677.718961 
L 637.492343 678.187944 
L 637.561467 676.767967 
L 637.681193 678.187944 
L 637.781754 676.767967 
L 637.791646 677.718961 
L 637.841778 678.187944 
L 637.823203 676.767967 
L 637.892805 677.718961 
L 637.90344 676.767967 
L 637.912957 678.669955 
L 637.99204 677.236951 
L 638.083215 678.187944 
L 638.073042 676.767967 
L 638.103057 677.718961 
L 638.112875 677.718961 
L 638.211901 676.767967 
L 638.131801 678.187944 
L 638.221921 677.718961 
L 638.316571 678.187944 
L 638.252275 676.767967 
L 638.323039 677.718961 
L 638.373627 676.767967 
L 638.343686 678.187944 
L 638.422314 677.236951 
L 638.532086 678.669955 
L 638.642462 676.767967 
L 638.743239 678.187944 
L 638.937405 678.669955 
L 639.096418 672.963993 
L 639.198512 677.236951 
L 639.208847 676.767967 
L 639.227837 672.481983 
L 639.237113 677.236951 
L 639.317322 674.38397 
L 639.348072 677.236951 
L 639.3571 672.481983 
L 639.426749 676.767967 
L 639.527899 672.963993 
L 639.466756 677.718961 
L 639.537044 676.285957 
L 639.600364 677.236951 
L 639.568366 674.38397 
L 639.609099 675.816974 
L 639.657664 672.963993 
L 639.687809 677.236951 
L 639.718399 676.285957 
L 639.748667 673.914987 
L 639.777963 676.767967 
L 639.788403 672.963993 
L 639.888037 676.767967 
L 639.897916 676.767967 
L 639.958067 672.481983 
L 639.967926 677.236951 
L 640.008003 676.767967 
L 640.028198 676.767967 
L 640.089258 672.481983 
L 640.108726 677.718961 
L 640.13851 675.816974 
L 640.188226 677.236951 
L 640.177303 672.963993 
L 640.218248 674.86598 
L 640.41311 676.767967 
L 640.422661 672.481983 
L 640.522988 676.767967 
L 640.533277 676.767967 
L 640.590959 672.481983 
L 640.641215 675.816974 
L 640.692553 677.236951 
L 640.67226 674.38397 
L 640.712442 676.767967 
L 640.811762 672.481983 
L 640.822181 676.285957 
L 640.843128 677.236951 
L 640.853098 672.481983 
L 640.952314 676.285957 
L 640.963278 677.236951 
L 640.981951 672.963993 
L 641.054303 676.767967 
L 641.151277 671.530989 
L 641.161533 676.767967 
L 641.190644 673.432976 
L 641.220312 676.285957 
L 641.34099 655.351071 
L 641.454718 662.490037 
L 641.363399 654.400078 
L 641.473762 656.302065 
L 641.57485 653.931095 
L 641.515007 657.253059 
L 641.584922 655.833082 
L 641.624922 672.481983 
L 641.646096 654.400078 
L 641.686063 655.351071 
L 641.899097 647.743123 
L 641.978583 651.078114 
L 641.938533 647.27414 
L 641.998847 650.596104 
L 642.118815 646.792129 
L 642.138607 651.547097 
L 642.158792 672.963993 
L 642.179034 651.078114 
L 642.219865 666.294011 
L 642.299171 478.844061 
L 642.338249 609.677326 
L 642.359505 611.11033 
L 642.408978 605.873352 
L 642.439854 587.322464 
L 642.482004 608.257349 
L 642.513165 606.824345 
L 642.580228 605.873352 
L 642.62235 611.11033 
L 642.710208 605.873352 
L 642.729862 607.306356 
L 642.740031 607.775339 
L 642.750202 605.873352 
L 642.790842 606.824345 
L 642.840564 605.404369 
L 642.819989 607.306356 
L 642.891081 606.355362 
L 642.944722 614.914304 
L 642.950549 598.265403 
L 643.051965 605.873352 
L 643.162006 607.775339 
L 643.172058 607.306356 
L 643.371189 590.175444 
L 643.460108 159.609853 
L 643.431706 614.914304 
L 643.480664 576.861535 
L 643.499697 562.101593 
L 643.52971 593.979419 
L 643.539538 161.511841 
L 643.569471 614.914304 
L 643.639119 607.775339 
L 643.701723 605.404369 
L 643.730729 606.824345 
L 643.741223 615.396315 
L 643.791783 601.600394 
L 643.831831 605.873352 
L 643.882048 605.404369 
L 643.951667 607.306356 
L 643.980899 596.832399 
L 644.080957 692.465875 
L 644.101787 691.514881 
L 644.131163 690.563888 
L 644.202397 692.465875 
L 644.303837 691.032871 
L 644.313477 691.514881 
L 644.343519 691.032871 
L 644.421633 692.465875 
L 644.481872 690.563888 
L 644.531756 691.514881 
L 644.562832 691.032871 
L 644.64324 692.465875 
L 644.854654 692.465875 
L 644.864506 686.277903 
L 644.923317 692.947885 
L 644.964258 692.465875 
L 644.984729 692.465875 
L 645.043521 691.032871 
L 645.083784 691.514881 
L 645.093554 692.947885 
L 645.165064 691.032871 
L 645.195334 692.465875 
L 645.253524 690.563888 
L 645.303237 691.514881 
L 645.383517 690.563888 
L 645.404341 692.465875 
L 645.465 690.563888 
L 645.516763 691.514881 
L 645.545222 691.032871 
L 645.626322 692.465875 
L 645.676037 686.277903 
L 645.655916 692.947885 
L 645.725531 691.514881 
L 645.735344 692.947885 
L 645.805955 691.032871 
L 645.826707 692.465875 
L 645.888288 691.032871 
L 645.936467 691.514881 
L 645.967919 691.032871 
L 646.048277 692.947885 
L 646.068369 691.032871 
L 646.108316 691.514881 
L 646.312473 595.881406 
L 646.40956 217.177532 
L 646.369049 615.396315 
L 646.41945 371.32968 
L 646.43955 608.726332 
L 646.44962 158.65886 
L 646.540001 606.355362 
L 646.569824 605.873352 
L 646.639749 609.677326 
L 646.741328 605.873352 
L 646.750794 606.824345 
L 646.811652 608.257349 
L 646.77964 605.873352 
L 646.869853 607.306356 
L 646.949636 692.465875 
L 646.989474 691.983864 
L 647.029749 692.465875 
L 647.08932 690.563888 
L 647.150103 692.947885 
L 647.200767 692.465875 
L 647.299926 685.80892 
L 647.310531 691.514881 
L 647.380714 692.947885 
L 647.350114 691.032871 
L 647.419859 692.465875 
L 647.520336 691.032871 
L 647.531549 691.983864 
L 647.551757 691.032871 
L 647.582153 692.465875 
L 647.773997 690.563888 
L 647.883465 692.465875 
L 647.983227 691.032871 
L 647.992979 691.514881 
L 648.024518 691.032871 
L 648.094033 692.465875 
L 648.11421 688.661901 
L 648.203977 691.983864 
L 648.243247 691.032871 
L 648.313484 692.947885 
L 648.364266 690.563888 
L 648.423666 691.514881 
L 648.453241 691.032871 
L 648.534906 692.465875 
L 648.633458 691.032871 
L 648.57633 692.947885 
L 648.643379 691.514881 
L 648.672967 691.032871 
L 648.703131 692.947885 
L 648.774017 595.881406 
L 648.814224 692.465875 
L 648.824501 692.465875 
L 648.86478 692.947885 
L 648.844868 691.032871 
L 648.91577 692.465875 
L 648.92579 685.80892 
L 649.02558 692.465875 
L 649.047489 692.465875 
L 649.056649 691.032871 
L 649.250104 692.465875 
L 649.259483 690.563888 
L 649.358268 692.465875 
L 649.371426 692.465875 
L 649.429096 691.032871 
L 649.459041 692.947885 
L 649.478767 691.983864 
L 649.488318 692.947885 
L 649.510167 691.032871 
L 649.588903 692.465875 
L 649.649833 691.032871 
L 649.690123 691.514881 
L 649.720791 692.465875 
L 649.731243 677.236951 
L 649.790474 692.947885 
L 649.830691 692.465875 
L 649.851683 692.465875 
L 649.860874 690.081877 
L 649.880551 692.947885 
L 649.959478 691.983864 
L 649.989376 691.032871 
L 650.060587 692.947885 
L 650.111327 690.563888 
L 650.170832 691.983864 
L 650.200301 691.032871 
L 650.280385 692.465875 
L 650.391807 675.816974 
L 650.471229 436.987317 
L 650.520518 524.517807 
L 650.723726 607.306356 
L 650.742948 594.461429 
L 650.79301 133.92 
L 650.826105 611.11033 
L 650.842608 606.355362 
L 650.923077 605.873352 
L 650.862256 608.257349 
L 650.933535 606.824345 
L 651.032737 607.775339 
L 651.014235 605.873352 
L 651.042604 607.306356 
L 651.147065 605.873352 
L 651.133684 607.775339 
L 651.15359 606.824345 
L 651.173459 607.775339 
L 651.182997 605.404369 
L 651.213755 606.824345 
L 651.223783 476.473091 
L 651.243764 614.914304 
L 651.315617 614.445321 
L 651.415919 692.465875 
L 651.436863 690.081877 
L 651.556209 692.465875 
L 651.655115 691.032871 
L 651.664862 691.514881 
L 651.735356 691.032871 
L 651.77506 692.465875 
L 651.825619 690.563888 
L 651.875577 691.514881 
L 651.885285 692.947885 
L 651.955613 690.563888 
L 651.985481 692.465875 
L 651.995295 691.032871 
L 652.190133 691.983864 
L 652.200228 691.514881 
L 652.209158 691.514881 
L 652.309677 692.465875 
L 652.411358 691.032871 
L 652.421682 691.514881 
L 652.481564 692.947885 
L 652.450572 691.032871 
L 652.530675 692.465875 
L 652.621287 691.032871 
L 652.631454 691.514881 
L 652.641954 692.947885 
L 652.71106 690.563888 
L 652.740321 692.465875 
L 652.800607 690.563888 
L 652.85167 691.983864 
L 652.881454 691.032871 
L 652.961736 692.465875 
L 653.041064 692.947885 
L 653.061275 691.514881 
L 653.111411 690.563888 
L 653.171094 692.465875 
L 653.233498 691.032871 
L 653.280589 691.514881 
L 653.320724 691.032871 
L 653.392346 692.465875 
L 653.410019 690.563888 
L 653.461316 691.983864 
L 653.65367 691.983864 
L 653.663587 691.032871 
L 653.693292 692.465875 
L 653.792862 161.993851 
L 653.821883 536.41174 
L 653.84268 611.11033 
L 653.894127 436.505307 
L 653.934165 583.518489 
L 653.94407 583.518489 
L 653.994599 581.616502 
L 653.964015 583.987473 
L 654.044229 582.567496 
L 654.154158 584.938466 
L 654.163601 583.987473 
L 654.17358 582.085485 
L 654.201747 584.469483 
L 654.271362 583.987473 
L 654.281128 584.469483 
L 654.291274 583.987473 
L 654.311222 549.738677 
L 654.331347 669.146992 
L 654.34119 667.727015 
L 654.451088 669.146992 
L 654.562687 667.727015 
L 654.592614 669.146992 
L 654.602539 664.392024 
L 654.675771 668.678009 
L 654.73415 667.245005 
L 654.704017 669.146992 
L 654.774043 667.727015 
L 654.894627 669.146992 
L 654.905712 667.245005 
L 654.935551 669.146992 
L 655.138249 669.146992 
L 655.22881 667.245005 
L 655.248571 669.146992 
L 655.268736 669.146992 
L 655.359519 667.727015 
L 655.379118 668.678009 
L 655.40869 667.727015 
L 655.478305 669.146992 
L 655.569139 667.727015 
L 655.579479 669.146992 
L 655.609536 669.629002 
L 655.620263 667.727015 
L 655.64978 669.146992 
L 655.660022 667.245005 
L 655.760881 669.146992 
L 655.780101 669.146992 
L 655.870532 667.727015 
L 655.889813 669.146992 
L 655.909941 669.146992 
L 655.960714 667.245005 
L 656.012331 669.146992 
L 656.022039 669.146992 
L 656.131296 667.727015 
L 656.160985 669.146992 
L 656.190409 663.44103 
L 656.290603 353.247775 
L 656.31133 582.085485 
L 656.32117 583.987473 
L 656.392749 489.787001 
L 656.382449 595.881406 
L 656.402349 580.183498 
L 656.692509 588.755468 
L 656.71208 587.322464 
L 656.733264 586.840453 
L 656.742502 588.273457 
L 656.756663 595.881406 
L 656.805361 586.840453 
L 656.844015 588.273457 
L 656.854127 586.37147 
L 656.885384 588.273457 
L 656.89514 137.254991 
L 656.996163 586.840453 
L 657.036036 587.322464 
L 657.026245 585.88946 
L 657.045111 586.840453 
L 657.054811 595.881406 
L 657.094923 579.232505 
L 657.155216 586.840453 
L 657.216106 589.224451 
L 657.265986 587.804474 
L 657.275064 586.840453 
L 657.294389 588.273457 
L 657.304755 567.820582 
L 657.344203 674.86598 
L 657.355048 673.914987 
L 657.45497 671.530989 
L 657.465058 672.481983 
L 657.536048 673.432976 
L 657.545179 671.062006 
L 657.576536 672.963993 
L 657.667146 671.530989 
L 657.616836 673.432976 
L 657.677077 672.963993 
L 657.68675 673.432976 
L 657.717007 671.530989 
L 657.776033 672.963993 
L 657.845253 671.530989 
L 657.855734 654.400078 
L 657.865409 672.963993 
L 657.876134 672.963993 
L 658.071235 673.914987 
L 658.13005 672.013 
L 658.11137 674.38397 
L 658.181321 673.432976 
L 658.203212 674.38397 
L 658.260561 671.530989 
L 658.278846 673.432976 
L 658.389882 672.013 
L 658.399009 672.481983 
L 658.439214 671.530989 
L 658.499763 672.963993 
L 658.56022 671.530989 
L 658.579828 673.432976 
L 658.61035 672.963993 
L 658.630674 672.963993 
L 658.650574 672.013 
L 658.683065 672.963993 
L 658.711344 586.840453 
L 658.790594 672.963993 
L 658.810056 672.963993 
L 658.819516 671.530989 
L 658.890433 674.38397 
L 658.909862 672.963993 
L 658.981279 674.38397 
L 658.991684 672.481983 
L 659.020674 673.432976 
L 659.121718 671.530989 
L 659.069675 674.38397 
L 659.141188 672.963993 
L 659.16124 672.963993 
L 659.209018 671.530989 
L 659.270566 672.963993 
L 659.29022 672.963993 
L 659.341717 671.530989 
L 659.351836 672.963993 
L 659.545212 671.530989 
L 659.60344 673.432976 
L 659.663824 672.963993 
L 659.71457 671.530989 
L 659.724105 673.914987 
L 659.763878 673.914987 
L 659.783786 673.914987 
L 659.793866 674.38397 
L 659.805125 672.481983 
L 659.833641 673.914987 
L 659.844666 671.530989 
L 659.945071 672.963993 
L 659.954172 673.914987 
L 659.978076 671.530989 
L 660.053967 672.963993 
L 660.103434 671.530989 
L 660.154277 672.481983 
L 660.205244 673.432976 
L 660.184604 671.530989 
L 660.265273 672.481983 
L 660.28416 672.963993 
L 660.363939 671.530989 
L 660.473558 673.432976 
L 660.483329 672.963993 
L 660.53571 671.530989 
L 660.584548 673.432976 
L 660.616598 672.481983 
L 660.695327 674.38397 
L 660.704576 672.013 
L 660.804328 673.914987 
L 660.824418 673.432976 
L 661.020602 672.963993 
L 661.119808 671.530989 
L 661.069777 673.432976 
L 661.129743 672.963993 
L 661.149749 672.963993 
L 661.159134 671.530989 
L 661.178838 673.432976 
L 661.28032 582.567496 
L 661.289276 593.979419 
L 661.399296 673.432976 
L 661.409465 672.963993 
L 661.420614 672.013 
L 661.441186 673.914987 
L 661.501313 672.963993 
L 661.550131 672.481983 
L 661.620372 674.38397 
L 661.719979 672.013 
L 661.739364 672.963993 
L 661.751319 672.963993 
L 661.851356 671.530989 
L 661.860707 672.481983 
L 661.951534 673.432976 
L 661.89183 671.530989 
L 661.971434 672.963993 
L 662.021533 671.530989 
L 662.081006 672.963993 
L 662.101044 672.963993 
L 662.19178 671.530989 
L 662.211416 672.963993 
L 662.242155 672.963993 
L 662.28219 671.530989 
L 662.291925 673.432976 
L 662.485055 672.963993 
L 662.514512 674.38397 
L 662.565215 672.013 
L 662.594674 672.963993 
L 662.60474 672.963993 
L 662.695937 671.530989 
L 662.705561 672.481983 
L 662.73618 670.111013 
L 662.775471 672.963993 
L 662.785413 671.062006 
L 662.885708 672.963993 
L 662.895195 672.963993 
L 662.994906 671.530989 
L 662.945588 673.432976 
L 663.005104 672.963993 
L 663.035927 672.963993 
L 663.127703 671.530989 
L 663.137459 672.481983 
L 663.17637 674.38397 
L 663.246507 673.914987 
L 663.346958 672.481983 
L 663.335313 674.38397 
L 663.357117 673.914987 
L 663.365177 673.914987 
L 663.375795 674.38397 
L 663.386243 672.481983 
L 663.424763 672.963993 
L 663.517583 671.530989 
L 663.495842 673.432976 
L 663.534837 672.963993 
L 663.556029 672.963993 
L 663.655641 671.530989 
L 663.615836 673.432976 
L 663.66442 672.481983 
L 663.675791 673.432976 
L 663.703885 590.657455 
L 663.76435 672.481983 
L 663.96895 672.963993 
L 663.979609 671.062006 
L 664.029483 674.38397 
L 664.069847 672.963993 
L 664.109467 672.481983 
L 664.188221 673.914987 
L 664.287642 671.530989 
L 664.217949 674.38397 
L 664.297296 672.963993 
L 664.318736 672.963993 
L 664.41825 671.530989 
L 664.428777 672.963993 
L 664.479325 673.432976 
L 664.457819 671.530989 
L 664.528132 672.963993 
L 664.61222 673.432976 
L 664.629507 671.530989 
L 664.737257 672.963993 
L 664.716878 671.062006 
L 664.748482 672.481983 
L 664.779893 673.432976 
L 664.84006 671.530989 
L 664.920578 674.38397 
L 664.96353 673.914987 
L 665.059867 672.481983 
L 665.069912 673.914987 
L 665.089766 673.914987 
L 665.189355 671.530989 
L 665.199652 672.963993 
L 665.220137 672.963993 
L 665.230695 672.013 
L 665.240331 672.963993 
L 665.433918 671.530989 
L 665.562432 672.963993 
L 665.572196 671.062006 
L 665.642344 673.432976 
L 665.671878 672.963993 
L 665.682869 672.963993 
L 665.6929 671.530989 
L 665.7615 674.38397 
L 665.782534 672.013 
L 665.801886 674.38397 
L 665.902897 673.432976 
L 665.953149 672.963993 
L 665.933965 674.38397 
L 665.972781 673.914987 
L 665.983219 653.449084 
L 666.073856 671.530989 
L 666.145901 672.963993 
L 666.165807 672.481983 
L 666.245554 576.379524 
L 666.258375 672.963993 
L 666.275807 672.963993 
L 666.376793 671.530989 
L 666.386898 672.963993 
L 666.408133 672.963993 
L 666.456234 671.530989 
L 666.517432 672.963993 
L 666.536528 672.963993 
L 666.547286 671.530989 
L 666.607129 673.914987 
L 666.637834 673.432976 
L 666.697127 673.914987 
L 666.717031 672.013 
L 666.918499 672.963993 
L 667.01861 671.530989 
L 667.02937 672.481983 
L 667.118296 673.432976 
L 667.057691 671.530989 
L 667.138332 672.963993 
L 667.236868 671.530989 
L 667.158089 673.432976 
L 667.247039 672.481983 
L 667.256704 673.432976 
L 667.318087 671.530989 
L 667.348394 672.963993 
L 667.408929 671.530989 
L 667.448606 672.013 
L 667.567504 673.914987 
L 667.578196 672.013 
L 667.656483 674.38397 
L 667.677925 672.963993 
L 667.687563 673.914987 
L 667.708414 671.530989 
L 667.77851 672.963993 
L 667.879417 671.530989 
L 667.889251 672.481983 
L 667.91788 672.013 
L 668.002087 672.963993 
L 668.048015 671.530989 
L 668.10894 673.432976 
L 668.17888 671.530989 
L 668.189144 672.963993 
L 668.383105 672.963993 
L 668.422863 670.579996 
L 668.502626 674.38397 
L 668.593824 671.530989 
L 668.613397 672.963993 
L 668.623711 672.963993 
L 668.633485 671.062006 
L 668.663395 672.963993 
L 668.683694 586.37147 
L 668.773711 672.013 
L 668.812744 671.530989 
L 668.884645 672.963993 
L 668.983352 671.530989 
L 668.993017 672.481983 
L 669.013636 673.432976 
L 669.063903 671.530989 
L 669.074159 658.686063 
L 669.083944 672.963993 
L 669.164747 672.963993 
L 669.264376 673.914987 
L 669.243172 672.481983 
L 669.273723 673.432976 
L 669.32351 672.481983 
L 669.344034 674.38397 
L 669.364827 672.963993 
L 669.404672 673.914987 
L 669.447883 329.928892 
L 669.524111 606.355362 
L 669.56253 614.914304 
L 669.57353 597.783393 
L 669.633083 604.922358 
L 669.663464 606.824345 
L 669.863638 606.355362 
L 669.873174 607.306356 
L 669.883767 587.322464 
L 669.913255 692.465875 
L 669.937408 690.081877 
L 670.003845 692.465875 
L 670.054909 691.983864 
L 670.144757 691.032871 
L 670.124282 692.465875 
L 670.154482 691.514881 
L 670.257857 692.465875 
L 670.194771 691.032871 
L 670.265229 691.983864 
L 670.3058 692.465875 
L 670.366982 691.032871 
L 670.426713 692.465875 
L 670.406832 690.563888 
L 670.475334 691.983864 
L 670.515521 692.465875 
L 670.586529 691.032871 
L 670.687238 692.465875 
L 670.666736 690.563888 
L 670.697816 691.514881 
L 670.707929 691.514881 
L 670.767063 692.465875 
L 670.787792 690.563888 
L 670.817639 691.514881 
L 670.918001 691.032871 
L 670.84782 692.465875 
L 670.927688 691.514881 
L 671.007753 690.563888 
L 671.038039 692.465875 
L 671.128544 690.563888 
L 671.077091 692.947885 
L 671.138372 691.032871 
L 671.331682 481.228059 
L 671.429381 620.620266 
L 671.449922 607.306356 
L 671.501253 604.922358 
L 671.552421 607.775339 
L 671.560746 605.873352 
L 671.620419 610.62832 
L 671.640162 605.404369 
L 671.670711 607.306356 
L 671.730555 605.873352 
L 671.713345 607.775339 
L 671.781229 606.824345 
L 671.801536 607.775339 
L 671.811435 605.873352 
L 671.830851 606.824345 
L 671.841425 590.175444 
L 671.87302 692.465875 
L 671.881367 691.983864 
L 671.982461 691.032871 
L 672.092826 692.465875 
L 672.193568 690.081877 
L 672.20301 691.032871 
L 672.301972 692.465875 
L 672.312135 691.983864 
L 672.402359 690.563888 
L 672.382115 692.465875 
L 672.412662 691.032871 
L 672.522792 692.947885 
L 672.582124 690.563888 
L 672.612067 691.983864 
L 672.814299 692.465875 
L 672.924224 691.032871 
L 672.9351 691.514881 
L 672.965147 691.032871 
L 673.043959 692.465875 
L 673.135613 688.661901 
L 673.157282 691.983864 
L 673.244742 692.465875 
L 673.225683 690.563888 
L 673.255021 691.983864 
L 673.355345 691.032871 
L 673.284899 692.465875 
L 673.364803 691.514881 
L 673.394909 691.032871 
L 673.477442 692.465875 
L 673.565098 691.032871 
L 673.585228 691.983864 
L 673.594802 691.983864 
L 673.639441 692.465875 
L 673.615169 690.563888 
L 673.656637 691.514881 
L 673.73602 597.783393 
L 673.776411 613.963311 
L 673.786917 614.445321 
L 673.896401 692.947885 
L 673.91643 691.514881 
L 673.926253 692.947885 
L 673.946784 691.032871 
L 674.025693 691.983864 
L 674.076995 691.032871 
L 674.087435 691.514881 
L 674.282275 691.983864 
L 674.309721 692.465875 
L 674.379455 691.032871 
L 674.399884 692.465875 
L 674.409787 690.563888 
L 674.491466 691.983864 
L 674.541038 691.032871 
L 674.521041 692.465875 
L 674.590042 691.514881 
L 674.690329 692.465875 
L 674.630483 691.032871 
L 674.699994 691.983864 
L 674.801397 690.563888 
L 674.772635 692.465875 
L 674.811269 691.514881 
L 674.840079 691.032871 
L 674.911196 692.465875 
L 674.924198 686.277903 
L 675.022539 691.514881 
L 675.052592 691.032871 
L 675.131534 692.465875 
L 675.231251 691.032871 
L 675.244122 691.514881 
L 675.272541 691.032871 
L 675.343159 692.465875 
L 675.442003 691.032871 
L 675.452036 691.514881 
L 675.551142 692.465875 
L 675.481739 691.032871 
L 675.564166 691.983864 
L 675.76514 691.983864 
L 675.864946 691.032871 
L 675.794349 692.465875 
L 675.874683 691.514881 
L 675.905239 691.032871 
L 675.985091 692.465875 
L 676.08504 691.032871 
L 676.094463 691.514881 
L 676.124511 691.032871 
L 676.154683 692.947885 
L 676.255777 593.510435 
L 676.265431 615.396315 
L 676.366552 692.465875 
L 676.386807 691.514881 
L 676.487315 692.465875 
L 676.466214 690.563888 
L 676.497156 691.983864 
L 676.547662 686.759914 
L 676.527442 692.465875 
L 676.596827 691.032871 
L 676.707583 692.465875 
L 676.817591 691.032871 
L 676.917702 692.465875 
L 676.927136 691.983864 
L 676.936848 690.563888 
L 676.966572 692.465875 
L 677.028097 691.032871 
L 677.221899 691.032871 
L 677.340482 692.465875 
L 677.359726 686.277903 
L 677.451345 691.032871 
L 677.502799 692.465875 
L 677.531927 691.514881 
L 677.541739 676.767967 
L 677.561688 738.608603 
L 677.600946 738.608603 
L 678.035611 738.630554 
L 678.498744 738.635309 
L 900.317814 738.72 
L 900.479337 717.204735 
L 900.520168 721.490719 
L 900.539349 721.008709 
L 900.588499 721.959703 
L 900.678752 687.228897 
L 900.709602 688.17989 
L 900.739427 688.17989 
L 900.749251 687.228897 
L 900.759141 688.661901 
L 900.798596 688.661901 
L 901.012723 688.661901 
L 901.103735 688.17989 
L 901.115154 689.612894 
L 901.182449 687.228897 
L 901.203586 688.17989 
L 901.323639 687.228897 
L 901.437531 688.661901 
L 901.523696 687.228897 
L 901.543098 687.710907 
L 901.572607 688.661901 
L 901.662493 688.17989 
L 901.783619 687.710907 
L 901.814505 687.710907 
L 901.882935 688.661901 
L 901.832747 687.228897 
L 901.911827 688.17989 
L 902.030923 687.228897 
L 902.072112 688.661901 
L 902.141805 688.17989 
L 902.151786 687.228897 
L 902.252336 688.17989 
L 902.263322 687.228897 
L 902.273344 687.710907 
L 902.479833 688.17989 
L 902.529511 687.710907 
L 902.508364 689.612894 
L 902.563278 688.17989 
L 902.578591 687.710907 
L 902.678667 690.563888 
L 902.69926 690.563888 
L 902.709208 691.032871 
L 902.729523 690.081877 
L 902.748794 690.563888 
L 902.849402 646.792129 
L 902.859654 677.236951 
L 902.950163 684.375916 
L 902.96907 683.906933 
L 903.018789 682.473929 
L 903.029599 684.375916 
L 903.069808 684.375916 
L 903.080542 684.857926 
L 903.099483 683.424922 
L 903.139535 683.906933 
L 903.190415 682.955939 
L 903.160309 684.375916 
L 903.241145 683.424922 
L 903.318181 682.955939 
L 903.34862 684.375916 
L 903.399094 682.955939 
L 903.462961 683.906933 
L 903.502505 684.375916 
L 903.571288 682.473929 
L 903.582425 684.375916 
L 903.682007 683.906933 
L 903.712291 684.375916 
L 903.741895 682.955939 
L 903.937661 684.375916 
L 903.944793 683.906933 
L 903.963413 684.375916 
L 904.046317 682.955939 
L 904.144636 684.375916 
L 904.153794 683.906933 
L 904.163849 683.906933 
L 904.253717 682.955939 
L 904.184033 684.375916 
L 904.263601 683.906933 
L 904.355884 684.857926 
L 904.304414 682.955939 
L 904.364335 684.375916 
L 904.464585 682.955939 
L 904.435391 684.857926 
L 904.475368 684.375916 
L 904.499006 684.375916 
L 904.594373 682.473929 
L 904.525974 684.857926 
L 904.604896 684.375916 
L 904.658218 684.857926 
L 904.645359 683.424922 
L 904.714606 684.375916 
L 904.805206 683.424922 
L 904.775118 684.857926 
L 904.817951 684.375916 
L 904.916235 684.857926 
L 904.856212 682.955939 
L 904.92549 684.375916 
L 904.9769 682.955939 
L 904.99615 684.857926 
L 905.027598 683.424922 
L 905.036463 684.857926 
L 905.086604 676.285957 
L 905.197812 673.432976 
L 905.217952 676.285957 
L 905.423699 676.285957 
L 905.523306 672.013 
L 905.453326 676.767967 
L 905.534778 675.816974 
L 905.54443 676.767967 
L 905.564719 672.481983 
L 905.64119 676.285957 
L 905.739958 672.481983 
L 905.70985 676.767967 
L 905.751316 676.285957 
L 905.770189 676.285957 
L 905.829698 672.013 
L 905.849145 676.767967 
L 905.878181 675.816974 
L 905.938678 676.767967 
L 905.918646 674.38397 
L 905.948506 676.285957 
L 906.041967 672.481983 
L 905.97164 676.767967 
L 906.051998 676.285957 
L 906.085563 673.914987 
L 906.121518 676.767967 
L 906.171879 672.963993 
L 906.231722 676.767967 
L 906.301925 672.963993 
L 906.351012 674.38397 
L 906.442591 676.767967 
L 906.43265 672.481983 
L 906.462464 676.285957 
L 906.566324 672.481983 
L 906.492577 676.767967 
L 906.572185 676.285957 
L 906.581672 676.285957 
L 906.602002 672.013 
L 906.681909 673.914987 
L 906.882362 676.285957 
L 906.977016 672.481983 
L 906.919675 676.767967 
L 906.986633 675.334963 
L 907.075802 676.767967 
L 907.065943 672.481983 
L 907.095456 675.816974 
L 907.195045 671.530989 
L 907.125827 676.285957 
L 907.20744 675.334963 
L 907.427226 684.375916 
L 907.244679 673.432976 
L 907.466774 683.906933 
L 907.585495 682.004946 
L 907.646878 683.906933 
L 907.69589 682.955939 
L 907.75684 683.906933 
L 907.796721 682.004946 
L 907.897699 683.906933 
L 907.907427 683.424922 
L 907.94841 683.906933 
L 908.009852 682.473929 
L 908.098842 683.906933 
L 908.118802 683.424922 
L 908.129122 682.955939 
L 908.149329 684.375916 
L 908.159904 683.906933 
L 908.364169 683.906933 
L 908.462459 682.473929 
L 908.4028 684.375916 
L 908.473126 683.424922 
L 908.48214 683.906933 
L 908.546102 671.530989 
L 908.583562 672.963993 
L 908.643259 671.062006 
L 908.615799 673.914987 
L 908.687558 672.963993 
L 908.722388 671.062006 
L 908.800573 673.432976 
L 908.899837 671.062006 
L 908.908876 672.963993 
L 908.931961 672.963993 
L 908.981335 671.062006 
L 909.001466 674.38397 
L 909.030957 672.963993 
L 909.080965 673.914987 
L 909.070893 671.062006 
L 909.141777 673.432976 
L 909.231765 671.062006 
L 909.163477 673.914987 
L 909.251669 673.432976 
L 909.271238 673.432976 
L 909.363204 670.579996 
L 909.38328 672.963993 
L 909.393081 672.963993 
L 909.403165 670.579996 
L 909.413982 673.914987 
L 909.49428 671.530989 
L 909.59472 673.432976 
L 909.534189 671.062006 
L 909.604563 672.963993 
L 909.615288 671.062006 
L 909.625153 673.432976 
L 909.883153 678.187944 
L 909.981603 676.767967 
L 909.991239 677.718961 
L 910.002615 677.718961 
L 910.042524 678.187944 
L 910.070977 676.285957 
L 910.102311 677.718961 
L 910.202026 676.285957 
L 910.131849 678.187944 
L 910.212304 677.718961 
L 910.222998 677.718961 
L 910.324233 676.285957 
L 910.314334 678.187944 
L 910.333744 677.718961 
L 910.34399 678.187944 
L 910.362753 676.285957 
L 910.44462 677.718961 
L 910.501798 676.285957 
L 910.553991 677.718961 
L 910.56396 677.718961 
L 910.622529 676.285957 
L 910.604634 678.187944 
L 910.674425 677.718961 
L 910.694912 677.718961 
L 910.703762 676.285957 
L 910.726482 678.187944 
L 910.802862 677.718961 
L 910.823711 677.718961 
L 910.894014 678.187944 
L 910.928086 676.285957 
L 911.043814 678.187944 
L 911.09464 676.285957 
L 911.300733 677.718961 
L 911.341951 676.767967 
L 911.409024 678.187944 
L 911.430849 676.285957 
L 911.509988 676.767967 
L 911.629604 678.187944 
L 911.727764 676.767967 
L 911.737719 678.187944 
L 911.849581 676.767967 
L 911.880853 677.718961 
L 911.901218 675.334963 
L 911.930042 676.285957 
L 911.940265 672.013 
L 911.950438 676.767967 
L 912.031461 674.38397 
L 912.129013 676.767967 
L 912.069853 672.481983 
L 912.139676 676.285957 
L 912.239608 672.963993 
L 912.219916 676.767967 
L 912.249591 676.285957 
L 912.300786 676.767967 
L 912.281411 672.481983 
L 912.311042 676.285957 
L 912.32094 672.481983 
L 912.42106 675.816974 
L 912.430867 675.816974 
L 912.51414 676.767967 
L 912.45135 672.013 
L 912.520923 676.285957 
L 912.540627 673.432976 
L 912.560506 676.767967 
L 912.570309 675.816974 
L 912.771305 676.285957 
L 912.817938 672.013 
L 912.788497 676.767967 
L 912.876674 676.767967 
L 912.906805 672.481983 
L 912.999534 674.38397 
L 913.106162 676.767967 
L 913.036215 672.481983 
L 913.115686 676.285957 
L 913.167935 672.481983 
L 913.14627 676.767967 
L 913.21733 676.285957 
L 913.228059 676.285957 
L 913.276918 676.767967 
L 913.337364 672.013 
L 913.357925 677.236951 
L 913.45666 676.285957 
L 913.555825 672.481983 
L 913.565723 676.767967 
L 913.576454 676.767967 
L 913.677077 672.481983 
L 913.688335 676.285957 
L 913.728433 673.914987 
L 913.759041 676.767967 
L 913.769444 672.013 
L 913.867654 675.816974 
L 913.91828 676.285957 
L 913.898535 672.481983 
L 913.9281 675.816974 
L 913.939486 672.013 
L 913.948698 676.285957 
L 914.030872 676.285957 
L 914.049742 676.285957 
L 914.344361 654.400078 
L 914.374554 660.119067 
L 914.447178 656.302065 
L 914.466495 654.882088 
L 914.487125 655.833082 
L 914.517076 692.465875 
L 914.546194 654.400078 
L 914.596064 654.882088 
L 914.605762 654.400078 
L 914.618699 655.351071 
L 914.664692 673.432976 
L 914.684656 651.078114 
L 914.726402 664.874034 
L 914.806481 145.813933 
L 914.845799 609.677326 
L 914.866836 617.298302 
L 914.886345 609.208343 
L 914.896535 610.62832 
L 914.906419 337.067857 
L 914.947327 614.914304 
L 915.006843 604.453375 
L 915.128593 607.306356 
L 915.220449 605.404369 
L 915.240999 606.824345 
L 915.251381 606.824345 
L 915.309966 593.028425 
L 915.280058 607.306356 
L 915.340963 606.824345 
L 915.370935 610.159336 
L 915.43262 605.404369 
L 915.451936 607.306356 
L 915.46483 607.306356 
L 915.494031 607.775339 
L 915.52163 605.404369 
L 915.727025 607.306356 
L 915.744942 588.755468 
L 915.773781 163.895838 
L 915.803766 615.396315 
L 915.853381 560.199606 
L 915.924964 614.914304 
L 915.884285 160.560847 
L 915.943716 588.273457 
L 916.034302 160.091864 
L 916.024391 588.755468 
L 916.054632 173.887784 
L 916.065882 614.445321 
L 916.174306 607.306356 
L 916.184694 608.726332 
L 916.254648 605.873352 
L 916.273816 607.306356 
L 916.324478 605.404369 
L 916.354079 607.775339 
L 916.385858 605.873352 
L 916.39557 607.775339 
L 916.4536 605.404369 
L 916.463475 605.873352 
L 916.474283 587.804474 
L 916.484549 607.306356 
L 916.56645 607.306356 
L 916.594969 605.873352 
L 916.734407 692.465875 
L 916.824426 691.983864 
L 916.834159 691.983864 
L 916.924661 690.563888 
L 916.904896 692.465875 
L 916.936195 691.514881 
L 916.985758 692.465875 
L 916.975893 690.563888 
L 916.996645 691.983864 
L 917.194604 691.032871 
L 917.239759 692.465875 
L 917.222033 690.563888 
L 917.299249 691.983864 
L 917.390253 690.563888 
L 917.329134 692.465875 
L 917.40049 691.983864 
L 917.420766 691.983864 
L 917.4704 690.563888 
L 917.530706 691.983864 
L 917.541658 691.983864 
L 917.639808 690.563888 
L 917.590101 692.465875 
L 917.649766 691.032871 
L 917.711167 692.465875 
L 917.761002 691.983864 
L 917.861244 690.563888 
L 917.831425 692.465875 
L 917.872324 691.514881 
L 917.941922 690.563888 
L 917.972316 692.465875 
L 918.030839 690.563888 
L 918.080963 691.032871 
L 918.150223 692.465875 
L 918.159881 690.563888 
L 918.192294 691.514881 
L 918.212134 691.983864 
L 918.242201 685.32691 
L 918.360991 482.179052 
L 918.431344 614.914304 
L 918.420916 161.042857 
L 918.46214 606.355362 
L 918.666297 606.824345 
L 918.731525 605.404369 
L 918.701651 607.775339 
L 918.772307 606.824345 
L 918.801708 605.873352 
L 918.831219 607.775339 
L 918.841343 541.648718 
L 918.875464 691.983864 
L 918.92319 691.983864 
L 918.982813 690.563888 
L 919.031707 691.032871 
L 919.073926 690.563888 
L 919.134262 692.465875 
L 919.192976 690.563888 
L 919.25209 691.514881 
L 919.271986 690.563888 
L 919.352824 692.465875 
L 919.442725 691.032871 
L 919.462663 691.983864 
L 919.472747 691.983864 
L 919.513839 692.465875 
L 919.574938 690.563888 
L 919.674448 692.465875 
L 919.684491 691.983864 
L 919.786732 690.563888 
L 919.79624 691.514881 
L 919.806411 692.465875 
L 919.826608 690.081877 
L 919.898121 691.983864 
L 919.90756 690.563888 
L 919.927199 692.465875 
L 919.937462 691.983864 
L 920.135192 691.514881 
L 920.189775 692.465875 
L 920.210778 690.563888 
L 920.239487 691.983864 
L 920.338592 690.563888 
L 920.269703 692.465875 
L 920.348705 691.514881 
L 920.371452 692.465875 
L 920.379417 690.563888 
L 920.460084 691.983864 
L 920.46981 690.081877 
L 920.54 692.465875 
L 920.567867 692.465875 
L 920.588019 692.465875 
L 920.678803 690.563888 
L 920.699385 691.983864 
L 920.710286 692.465875 
L 920.719223 690.563888 
L 920.729868 691.032871 
L 920.760598 605.873352 
L 920.821164 692.465875 
L 920.831207 691.983864 
L 920.880678 692.465875 
L 920.939979 691.032871 
L 921.040378 692.465875 
L 921.051467 691.983864 
L 921.150815 690.563888 
L 921.160658 691.983864 
L 921.192697 690.563888 
L 921.261902 692.465875 
L 921.321253 690.563888 
L 921.371687 691.514881 
L 921.390495 691.983864 
L 921.40029 691.032871 
L 921.599945 692.465875 
L 921.654515 690.081877 
L 921.705805 691.032871 
L 921.806729 692.465875 
L 921.815195 691.514881 
L 921.827996 690.563888 
L 921.886048 692.465875 
L 921.915098 691.032871 
L 921.935378 692.465875 
L 922.026898 691.983864 
L 922.075751 690.563888 
L 922.056653 692.947885 
L 922.136565 691.514881 
L 922.156138 692.465875 
L 922.215908 690.563888 
L 922.246657 691.983864 
L 922.287073 692.465875 
L 922.345543 691.032871 
L 922.447294 692.465875 
L 922.385295 690.563888 
L 922.457062 691.983864 
L 922.556332 690.563888 
L 922.537133 692.465875 
L 922.567127 691.514881 
L 922.58723 692.465875 
L 922.597461 690.563888 
L 922.617473 691.983864 
L 922.6285 672.481983 
L 922.656795 692.465875 
L 922.726866 691.032871 
L 922.81697 690.563888 
L 922.838458 692.465875 
L 922.857977 690.563888 
L 922.878065 692.465875 
L 923.109978 605.404369 
L 923.178822 606.824345 
L 923.19813 605.404369 
L 923.218894 607.306356 
L 923.249778 607.306356 
L 923.300413 614.914304 
L 923.309817 598.265403 
L 923.35053 607.306356 
L 923.369841 606.355362 
L 923.389822 607.306356 
L 923.399782 587.322464 
L 923.430572 691.983864 
L 923.448961 690.563888 
L 923.530268 692.465875 
L 923.570538 691.983864 
L 923.661078 690.563888 
L 923.609459 692.465875 
L 923.68099 691.983864 
L 923.790299 690.563888 
L 923.800061 691.032871 
L 923.860654 692.465875 
L 923.909738 691.983864 
L 923.96005 692.465875 
L 924.019127 690.563888 
L 924.071445 692.465875 
L 924.131401 691.983864 
L 924.191105 690.563888 
L 924.161693 692.465875 
L 924.240197 691.983864 
L 924.33004 692.465875 
L 924.275288 691.032871 
L 924.349117 691.983864 
L 924.549921 692.465875 
L 924.662249 691.032871 
L 924.763874 692.465875 
L 924.692605 690.563888 
L 924.772598 691.983864 
L 924.873059 689.612894 
L 924.887581 691.514881 
L 924.952142 690.563888 
L 924.981237 692.465875 
L 925.002512 682.004946 
L 925.090209 691.514881 
L 925.100304 692.465875 
L 925.170483 690.563888 
L 925.201529 691.983864 
L 925.300706 690.563888 
L 925.231005 692.465875 
L 925.311217 691.983864 
L 925.321088 692.465875 
L 925.341019 690.563888 
L 925.412728 691.983864 
L 925.422928 690.563888 
L 925.522688 691.983864 
L 925.593502 690.563888 
L 925.622942 692.465875 
L 925.704272 692.947885 
L 925.724613 690.563888 
L 925.816304 487.416031 
L 926.019012 588.273457 
L 926.060112 140.107972 
L 926.126847 583.987473 
L 926.136638 580.665509 
L 926.146941 582.085485 
L 926.15961 485.514044 
L 926.188182 585.420477 
L 926.249257 583.518489 
L 926.295879 583.987473 
L 926.319508 582.085485 
L 926.345169 583.036479 
L 926.355161 583.036479 
L 926.364536 581.616502 
L 926.386431 583.518489 
L 926.45656 583.036479 
L 926.46643 583.036479 
L 926.478017 587.804474 
L 926.507213 669.146992 
L 926.58923 668.678009 
L 926.608999 668.678009 
L 926.708853 667.245005 
L 926.718943 668.678009 
L 926.749291 667.245005 
L 926.828626 669.146992 
L 926.927551 667.245005 
L 926.938295 668.678009 
L 926.968873 666.776021 
L 927.048832 667.245005 
L 927.109057 669.146992 
L 927.159588 668.678009 
L 927.16911 668.678009 
L 927.188979 669.146992 
L 927.267698 667.245005 
L 927.288611 668.678009 
L 927.484094 667.245005 
L 927.599576 668.678009 
L 927.699751 667.245005 
L 927.659511 669.146992 
L 927.710053 668.678009 
L 927.729833 668.678009 
L 927.780261 667.245005 
L 927.839998 668.678009 
L 927.860119 668.678009 
L 927.950487 667.245005 
L 927.880583 669.146992 
L 927.970683 668.678009 
L 927.980798 668.678009 
L 928.079405 667.245005 
L 928.01981 669.146992 
L 928.090903 668.678009 
L 928.110745 668.678009 
L 928.211014 667.245005 
L 928.140572 669.146992 
L 928.221042 668.678009 
L 928.311969 456.489199 
L 928.351587 500.729941 
L 928.452724 588.273457 
L 928.471683 587.804474 
L 928.481583 588.273457 
L 928.501299 586.37147 
L 928.581842 587.804474 
L 928.591206 585.420477 
L 928.662051 590.175444 
L 928.692653 587.322464 
L 928.743555 587.804474 
L 928.722472 585.88946 
L 928.764265 585.88946 
L 929.06222 673.432976 
L 929.081949 451.252221 
L 929.192866 586.37147 
L 929.272493 588.755468 
L 929.243348 585.88946 
L 929.313775 587.804474 
L 929.412431 585.420477 
L 929.422391 586.840453 
L 929.43385 586.840453 
L 929.513342 590.657455 
L 929.452297 585.88946 
L 929.523448 587.322464 
L 929.543316 586.37147 
L 929.553345 587.804474 
L 929.563235 455.056195 
L 929.654794 672.963993 
L 929.752024 671.062006 
L 929.761974 672.013 
L 929.842681 671.062006 
L 929.87217 672.481983 
L 929.933598 670.111013 
L 929.953527 673.914987 
L 929.973755 673.432976 
L 929.983738 673.432976 
L 929.994228 673.914987 
L 930.053311 671.530989 
L 930.083207 672.963993 
L 930.187722 671.062006 
L 930.115081 673.914987 
L 930.194118 672.481983 
L 930.203142 672.481983 
L 930.213243 672.963993 
L 930.233308 671.062006 
L 930.431404 671.530989 
L 930.518597 671.062006 
L 930.54849 672.963993 
L 930.648676 671.062006 
L 930.658643 672.481983 
L 930.678507 672.963993 
L 930.688902 671.062006 
L 930.718624 672.481983 
L 930.748939 576.861535 
L 930.830395 596.363416 
L 930.930277 673.432976 
L 930.940208 672.013 
L 930.999029 673.914987 
L 931.019285 671.530989 
L 931.059529 672.963993 
L 931.111104 662.490037 
L 931.169969 672.963993 
L 931.282197 671.530989 
L 931.382377 672.963993 
L 931.362101 671.062006 
L 931.393015 672.481983 
L 931.491514 671.062006 
L 931.434527 672.963993 
L 931.50134 672.481983 
L 931.513217 672.963993 
L 931.541711 671.530989 
L 931.603682 672.481983 
L 931.61345 672.481983 
L 931.622749 671.530989 
L 931.653912 673.432976 
L 931.712001 672.013 
L 931.904627 672.963993 
L 931.91283 672.481983 
L 931.924033 672.481983 
L 931.971312 671.062006 
L 931.950815 672.963993 
L 932.030956 672.481983 
L 932.06223 671.062006 
L 932.132814 672.963993 
L 932.231867 671.062006 
L 932.243279 672.481983 
L 932.263454 672.481983 
L 932.362492 671.062006 
L 932.35301 672.963993 
L 932.372703 672.481983 
L 932.463584 672.963993 
L 932.402952 671.062006 
L 932.473875 672.481983 
L 932.483691 671.062006 
L 932.544929 673.914987 
L 932.572132 672.481983 
L 932.653485 672.013 
L 932.692791 674.38397 
L 932.79331 671.062006 
L 932.813009 672.481983 
L 932.823252 672.481983 
L 932.914084 671.062006 
L 932.905002 672.963993 
L 932.924172 672.963993 
L 932.944186 672.963993 
L 933.044676 671.062006 
L 933.056734 672.481983 
L 933.14439 672.963993 
L 933.084207 671.062006 
L 933.164584 672.481983 
L 933.174143 671.530989 
L 933.184329 672.481983 
L 933.38505 673.432976 
L 933.482582 672.013 
L 933.423444 673.914987 
L 933.4928 673.432976 
L 933.502542 673.432976 
L 933.61289 671.530989 
L 933.56343 674.86598 
L 933.623165 672.481983 
L 933.722855 672.963993 
L 933.702971 671.062006 
L 933.733613 672.481983 
L 933.824957 671.062006 
L 933.762483 672.963993 
L 933.835257 672.481983 
L 933.895339 672.963993 
L 933.86491 671.062006 
L 933.945543 672.481983 
L 933.994369 667.727015 
L 933.985471 672.963993 
L 934.053986 672.481983 
L 934.083696 671.062006 
L 934.164118 672.963993 
L 934.175713 671.062006 
L 934.236187 673.914987 
L 934.264269 673.432976 
L 934.294489 672.481983 
L 934.335965 673.914987 
L 934.384758 671.530989 
L 934.445152 673.432976 
L 934.473601 671.062006 
L 934.564973 671.530989 
L 934.657887 672.481983 
L 934.853444 672.963993 
L 934.952482 671.530989 
L 934.963179 672.481983 
L 934.973997 672.481983 
L 935.054721 672.963993 
L 935.034563 671.062006 
L 935.065688 672.481983 
L 935.105035 673.914987 
L 935.164934 672.013 
L 935.204829 671.062006 
L 935.285171 673.914987 
L 935.383816 671.062006 
L 935.39461 672.481983 
L 935.41484 671.062006 
L 935.495474 672.963993 
L 935.587932 671.062006 
L 935.597223 672.481983 
L 935.698356 672.963993 
L 935.677711 671.062006 
L 935.708074 672.481983 
L 935.726951 586.840453 
L 935.796912 672.963993 
L 935.817395 672.963993 
L 935.828104 672.963993 
L 935.927533 671.062006 
L 935.93744 672.481983 
L 936.057497 673.914987 
L 936.067147 671.062006 
L 936.127457 673.914987 
L 936.35122 671.530989 
L 936.363568 672.481983 
L 936.394196 671.062006 
L 936.470777 672.963993 
L 936.570368 671.530989 
L 936.580977 672.013 
L 936.610246 671.530989 
L 936.691303 672.963993 
L 936.782147 671.062006 
L 936.801133 672.963993 
L 936.820967 672.481983 
L 936.902173 673.914987 
L 936.951079 671.530989 
L 937.012687 673.914987 
L 937.112059 670.579996 
L 937.133728 672.481983 
L 937.183428 672.963993 
L 937.153767 671.062006 
L 937.193219 671.062006 
L 937.243577 663.44103 
L 937.223408 672.963993 
L 937.294679 672.481983 
L 937.304844 672.481983 
L 937.385483 672.963993 
L 937.365819 671.062006 
L 937.397289 672.481983 
L 937.495582 671.062006 
L 937.436645 672.963993 
L 937.507659 672.481983 
L 937.527584 673.432976 
L 937.537575 671.062006 
L 937.599226 672.481983 
L 937.790308 672.963993 
L 937.890295 672.013 
L 937.836471 673.914987 
L 937.896069 673.432976 
L 937.905536 673.432976 
L 937.96686 671.062006 
L 938.026756 672.963993 
L 938.036936 672.963993 
L 938.050954 672.481983 
L 938.056782 663.923041 
L 938.078522 672.963993 
L 938.15766 672.963993 
L 938.187008 671.062006 
L 938.210778 673.432976 
L 938.307942 576.861535 
L 938.318001 579.714515 
L 938.428788 672.963993 
L 938.480659 671.062006 
L 938.586689 673.914987 
L 938.597355 673.432976 
L 938.655988 672.013 
L 938.616452 673.914987 
L 938.705522 673.432976 
L 938.715648 674.38397 
L 938.745455 671.530989 
L 938.806759 672.963993 
L 938.826328 671.062006 
L 938.860054 672.481983 
L 938.869913 662.490037 
L 938.968354 672.481983 
L 938.988219 672.481983 
L 939.048214 671.062006 
L 939.019338 672.963993 
L 939.069663 672.963993 
L 939.267215 672.963993 
L 939.37302 671.062006 
L 939.484506 673.914987 
L 939.495797 673.914987 
L 939.503248 671.062006 
L 939.602797 672.963993 
L 939.613059 673.432976 
L 939.633098 671.062006 
L 939.66456 672.481983 
L 939.76297 671.062006 
L 939.69399 672.963993 
L 939.773993 672.481983 
L 939.784098 672.481983 
L 939.873797 672.963993 
L 939.803833 671.062006 
L 939.882946 672.481983 
L 939.977631 671.062006 
L 939.92415 672.963993 
L 939.983469 672.481983 
L 940.054147 673.432976 
L 940.023699 671.062006 
L 940.094104 672.481983 
L 940.144134 671.062006 
L 940.124644 672.963993 
L 940.193396 672.481983 
L 940.2338 671.530989 
L 940.304489 673.432976 
L 940.403743 671.530989 
L 940.334246 673.914987 
L 940.413245 673.432976 
L 940.433455 674.38397 
L 940.455684 672.481983 
L 940.484405 672.481983 
L 940.494825 663.44103 
L 940.524546 672.963993 
L 940.534362 671.062006 
L 940.73229 587.322464 
L 940.769915 594.461429 
L 940.878025 672.963993 
L 940.889021 672.481983 
L 940.899126 672.481983 
L 940.989313 671.062006 
L 940.918985 672.963993 
L 940.998488 672.481983 
L 941.039118 671.062006 
L 941.10963 673.432976 
L 941.209223 672.013 
L 941.179321 673.914987 
L 941.220031 672.963993 
L 941.308851 674.38397 
L 941.249039 672.013 
L 941.318894 672.963993 
L 941.328844 671.530989 
L 941.358867 402.725495 
L 941.459186 605.404369 
L 941.468976 605.404369 
L 941.581004 614.914304 
L 941.600509 614.445321 
L 941.609909 597.31441 
L 941.711329 604.922358 
L 941.772594 606.824345 
L 941.782513 475.991081 
L 941.792394 691.983864 
L 941.872869 691.514881 
L 941.923069 690.563888 
L 941.906843 691.983864 
L 941.973449 691.032871 
L 942.003268 691.983864 
L 942.01295 690.563888 
L 942.210841 691.983864 
L 942.305598 690.563888 
L 942.247486 692.465875 
L 942.316271 691.514881 
L 942.388439 690.563888 
L 942.425856 691.983864 
L 942.436378 690.081877 
L 942.536262 691.032871 
L 942.627883 692.465875 
L 942.566032 690.081877 
L 942.637842 691.983864 
L 942.736436 690.563888 
L 942.746512 691.032871 
L 942.77642 690.563888 
L 942.857179 691.983864 
L 942.946793 690.563888 
L 942.966697 691.983864 
L 942.980029 691.983864 
L 943.078007 690.563888 
L 943.087758 691.983864 
L 943.107969 691.983864 
L 943.19795 690.563888 
L 943.287876 493.121992 
L 943.32805 532.138783 
L 943.408588 607.306356 
L 943.388602 526.901804 
L 943.449038 606.824345 
L 943.459161 605.404369 
L 943.480609 607.306356 
L 943.49039 606.824345 
L 943.693257 605.873352 
L 943.729048 604.922358 
L 943.79297 610.62832 
L 943.800213 588.273457 
L 943.828538 691.983864 
L 943.870159 691.983864 
L 943.880185 691.983864 
L 943.939527 690.081877 
L 943.988645 691.032871 
L 944.050209 692.465875 
L 944.018505 690.563888 
L 944.09949 691.983864 
L 944.199074 690.563888 
L 944.208803 691.514881 
L 944.23747 691.032871 
L 944.317825 691.983864 
L 944.327673 690.081877 
L 944.419596 691.514881 
L 944.449793 690.563888 
L 944.529035 691.983864 
L 944.619468 690.563888 
L 944.609646 692.465875 
L 944.639078 691.983864 
L 944.649053 691.983864 
L 944.75006 690.563888 
L 944.761205 691.514881 
L 944.780939 692.465875 
L 944.790409 690.563888 
L 944.871028 691.514881 
L 944.891067 691.983864 
L 944.960973 690.563888 
L 945.160096 691.983864 
L 945.24755 690.563888 
L 945.266997 691.983864 
L 945.285704 691.983864 
L 945.385315 690.563888 
L 945.315033 692.465875 
L 945.395348 691.032871 
L 945.426655 690.563888 
L 945.506507 691.983864 
L 945.59591 690.563888 
L 945.605924 691.032871 
L 945.626227 692.465875 
L 945.635588 690.563888 
L 945.68627 691.032871 
L 945.71692 605.404369 
L 945.777198 691.983864 
L 945.796871 691.983864 
L 945.84673 690.081877 
L 945.90778 691.983864 
L 945.917991 691.983864 
L 945.979454 690.563888 
L 946.019582 691.032871 
L 946.039778 692.465875 
L 946.099558 690.081877 
L 946.129654 691.514881 
L 946.179939 684.857926 
L 946.159423 691.983864 
L 946.239654 691.514881 
L 946.269948 690.563888 
L 946.340621 691.983864 
L 946.433179 690.563888 
L 946.442087 691.032871 
L 946.637948 691.983864 
L 946.645663 690.563888 
L 946.7436 691.983864 
L 946.763735 691.983864 
L 946.857045 690.563888 
L 946.865497 691.032871 
L 946.895973 690.563888 
L 946.965939 691.983864 
L 946.996062 674.38397 
L 947.075258 691.032871 
L 947.116084 690.563888 
L 947.18761 691.983864 
L 947.275696 690.563888 
L 947.265804 692.465875 
L 947.296438 691.514881 
L 947.36733 690.563888 
L 947.39818 691.983864 
L 947.498681 690.081877 
L 947.510948 691.032871 
L 947.608506 691.983864 
L 947.537759 690.563888 
L 947.618659 691.032871 
L 947.729746 692.465875 
L 947.670966 690.563888 
L 947.739423 691.983864 
L 947.83761 690.563888 
L 947.828935 692.465875 
L 947.848428 691.514881 
L 947.867807 692.465875 
L 947.918287 690.081877 
L 948.143398 692.465875 
L 948.155947 691.983864 
L 948.195901 671.062006 
L 948.262725 593.979419 
L 948.273252 691.983864 
L 948.303003 691.032871 
L 948.342738 690.563888 
L 948.413639 691.983864 
L 948.514121 690.563888 
L 948.624157 692.465875 
L 948.723839 690.563888 
L 948.734589 691.514881 
L 948.824453 692.465875 
L 948.764005 690.563888 
L 948.83507 691.983864 
L 948.894075 690.563888 
L 948.947311 691.032871 
L 949.04417 692.465875 
L 948.973975 690.563888 
L 949.054063 691.514881 
L 949.083904 691.983864 
L 949.153914 690.563888 
L 949.173807 692.465875 
L 949.273694 691.983864 
L 949.364603 690.563888 
L 949.384406 691.983864 
L 949.394619 691.983864 
L 949.699735 738.63626 
L 952.240536 738.62722 
L 952.332248 738.634827 
L 955.747055 738.629604 
L 955.946912 738.633876 
L 958.200894 738.636742 
L 958.220672 738.629604 
L 962.285016 738.635778 
L 962.445451 738.635778 
L 964.530528 738.635309 
L 965.483277 738.631974 
L 965.573486 738.635309 
L 996.218182 738.633876 
L 996.218182 738.633876 
" style="fill:none;stroke:#1f77b4;stroke-linecap:square;stroke-width:1.5;"/>
   </g>
   <g id="patch_3">
    <path d="M 144 768.96 
L 144 103.68 
" style="fill:none;stroke:#000000;stroke-linecap:square;stroke-linejoin:miter;stroke-width:0.8;"/>
   </g>
   <g id="patch_4">
    <path d="M 1036.8 768.96 
L 1036.8 103.68 
" style="fill:none;stroke:#000000;stroke-linecap:square;stroke-linejoin:miter;stroke-width:0.8;"/>
   </g>
   <g id="patch_5">
    <path d="M 144 768.96 
L 1036.8 768.96 
" style="fill:none;stroke:#000000;stroke-linecap:square;stroke-linejoin:miter;stroke-width:0.8;"/>
   </g>
   <g id="patch_6">
    <path d="M 144 103.68 
L 1036.8 103.68 
" style="fill:none;stroke:#000000;stroke-linecap:square;stroke-linejoin:miter;stroke-width:0.8;"/>
   </g>
  </g>
 </g>
 <defs>
  <clipPath id="p1194cd3cf3">
   <rect height="665.28" width="892.8" x="144" y="103.68"/>
  </clipPath>
 </defs>
</svg>
